<?xml version="1.0" standalone="no"?>
<!DOCTYPE svg PUBLIC "-//W3C//DTD SVG 1.1//EN" "http://www.w3.org/Graphics/SVG/1.1/DTD/svg11.dtd" >
<svg>
<metadata>
Created by FontForge 20090914 at Thu Sep 12 14:12:19 2013
 By www-data
Copyright (c) 2011, Edgar Tolentino, Pablo Impallari, Igino Marini (impallari.com), with Reserved Font Name Dosis.
</metadata>
<defs>
<font id="Dosis-SemiBold" horiz-adv-x="215" >
  <font-face 
    font-family="Dosis"
    font-weight="600"
    font-stretch="normal"
    units-per-em="1000"
    panose-1="2 1 7 3 2 2 2 6 0 3"
    ascent="800"
    descent="-200"
    x-height="474"
    cap-height="731"
    bbox="-133 -237 1071 1016"
    underline-thickness="26"
    underline-position="-25"
    unicode-range="U+000D-U+FB02"
  />
<missing-glyph horiz-adv-x="370" 
d="M43 83c0 10 2.33203 17.667 6.99902 23l86 130l-86 130c-4.66699 6 -7 13.667 -7 23c0 10.667 4.33301 19.834 13 27.501s18.667 11.5 30 11.5c13.333 0 24 -5.66699 32 -17l67 -110l67 110c8 11.333 18.667 17 32 17c11.333 0 21.5 -3.83301 30.5 -11.5
s13.5 -16.834 13.5 -27.501c0 -8 -2.66699 -15.667 -8 -23l-86 -130l86 -130c4.66699 -5.33301 7 -13 7 -23c0 -10.667 -4.5 -19.667 -13.5 -27s-19.167 -11 -30.5 -11c-13.333 0 -23.666 5.66699 -30.999 17l-67 108l-67 -108c-7.33301 -11.333 -18 -17 -32 -17
c-11.333 0 -21.333 3.83301 -30 11.5s-13 16.5 -13 26.5z" />
    <glyph glyph-name="uniFB01" unicode="fi" horiz-adv-x="544" 
d="M56 34l0.000976562 513.002c0 57.333 21.167 106.5 63.5 147.5s98.833 61.5 169.5 61.5c41.333 0 79 -6.66699 113 -20s51 -29.333 51 -48c0 -10 -3.66699 -22.5 -11 -37.5s-16.333 -22.5 -27 -22.5c-5.33301 0 -13 3.16699 -23 9.5s-23.667 12.666 -41 18.999
s-37.666 9.5 -60.999 9.5c-42 0 -74 -10.667 -96 -32s-33 -48.666 -33 -81.999v-78h112c8.66699 0 15.667 -3.83301 21 -11.5s8 -16.834 8 -27.501s-2.66699 -19.834 -8 -27.501s-12.333 -11.5 -21 -11.5h-112v-362c0 -10 -5.33301 -18.167 -16 -24.5
s-23.334 -9.5 -38.001 -9.5s-26.834 3.16699 -36.501 9.5s-14.5 14.5 -14.5 24.5zM385.001 35.002l0.000976562 405c0 10 4.83301 18.167 14.5 24.5s21.834 9.5 36.501 9.5c15.333 0 28.166 -3.16699 38.499 -9.5s15.5 -14.5 15.5 -24.5v-405
c0 -8.66699 -5.33301 -16.667 -16 -24s-23.334 -11 -38.001 -11c-14 0 -26 3.66699 -36 11s-15 15.333 -15 24z" />
    <glyph glyph-name="uniFB02" unicode="fl" horiz-adv-x="555" 
d="M56 34l0.00390625 513.002c0 64 24 114.833 72 152.5s105.667 56.5 173 56.5c36.667 0 72.667 -5.5 108 -16.5s62.666 -26.833 81.999 -47.5v-657c0 -8.66699 -5.33301 -16.667 -16 -24s-23.334 -11 -38.001 -11c-14 0 -26 3.66699 -36 11s-15 15.333 -15 24v607
c-21.333 18 -51 27 -89 27c-36.667 0 -68.5 -10.5 -95.5 -31.5s-40.5 -49.5 -40.5 -85.5v-78h112c8.66699 0 15.667 -3.83301 21 -11.5s8 -16.834 8 -27.501s-2.66699 -19.834 -8 -27.501s-12.333 -11.5 -21 -11.5h-112v-362c0 -10 -5.33301 -18.167 -16 -24.5
s-23.334 -9.5 -38.001 -9.5s-26.834 3.16699 -36.501 9.5s-14.5 14.5 -14.5 24.5z" />
    <glyph glyph-name=".notdef" horiz-adv-x="370" 
d="M43 83c0 10 2.33203 17.667 6.99902 23l86 130l-86 130c-4.66699 6 -7 13.667 -7 23c0 10.667 4.33301 19.834 13 27.501s18.667 11.5 30 11.5c13.333 0 24 -5.66699 32 -17l67 -110l67 110c8 11.333 18.667 17 32 17c11.333 0 21.5 -3.83301 30.5 -11.5
s13.5 -16.834 13.5 -27.501c0 -8 -2.66699 -15.667 -8 -23l-86 -130l86 -130c4.66699 -5.33301 7 -13 7 -23c0 -10.667 -4.5 -19.667 -13.5 -27s-19.167 -11 -30.5 -11c-13.333 0 -23.666 5.66699 -30.999 17l-67 108l-67 -108c-7.33301 -11.333 -18 -17 -32 -17
c-11.333 0 -21.333 3.83301 -30 11.5s-13 16.5 -13 26.5z" />
    <glyph glyph-name="NULL" horiz-adv-x="0" 
 />
    <glyph glyph-name="NULL" horiz-adv-x="0" 
 />
    <glyph glyph-name="uni000D" unicode="&#xd;" horiz-adv-x="0" 
 />
    <glyph glyph-name="space" unicode=" " horiz-adv-x="200" 
 />
    <glyph glyph-name="exclam" unicode="!" horiz-adv-x="210" 
d="M46 54c0 16.667 5.83301 30.834 17.5 42.501s25.834 17.5 42.501 17.5c16 0 29.833 -5.83301 41.5 -17.5s17.5 -25.834 17.5 -42.501c0 -16 -5.83301 -30 -17.5 -42s-25.5 -18 -41.5 -18c-16.667 0 -30.834 6 -42.501 18s-17.5 26 -17.5 42zM52 690
c0 15.333 5 27.168 15 35.501s22.667 12.5 38 12.5s28 -4.33301 38 -13s15 -20.334 15 -35.001c0 -48 -2.16699 -126.333 -6.5 -235s-6.5 -187 -6.5 -235c0 -10 -4.33301 -17.833 -13 -23.5s-17.667 -8.5 -27 -8.5c-27.333 0 -41 10.667 -41 32c0 48 -2 126.333 -6 235
s-6 187 -6 235z" />
    <glyph glyph-name="quotedbl" unicode="&#x22;" horiz-adv-x="291" 
d="M32 739c0 8 4.16797 14.833 12.501 20.5s17.833 8.5 28.5 8.5s20.5 -2.83301 29.5 -8.5s13.5 -12.5 13.5 -20.5l-10 -141c0 -8 -2.83301 -15 -8.5 -21s-13.834 -9 -24.501 -9c-20.667 0 -31 10 -31 30zM175.001 739c0 8 4.33105 14.833 12.998 20.5
s18.334 8.5 29.001 8.5s20.334 -2.83301 29.001 -8.5s13 -12.5 13 -20.5l-10 -141c0 -8 -2.83301 -15 -8.5 -21s-13.5 -9 -23.5 -9c-21.333 0 -32 10 -32 30z" />
    <glyph glyph-name="numbersign" unicode="#" horiz-adv-x="642" 
d="M24 271c0 11.333 2.82812 20.999 8.49512 28.999s12.834 12 21.501 12h102l23 137h-85c-21.333 0 -32 13 -32 39c0 11.333 2.83301 20.833 8.5 28.5s12.834 11.5 21.501 11.5h103l27 162c0.666992 6.66699 5.33398 12.167 14.001 16.5s18.334 6.5 29.001 6.5
c14 0 25.667 -3.5 35 -10.5s14 -17.5 14 -31.5l-24 -143h116l28 162c0.666992 6.66699 5.33398 12.167 14.001 16.5s18.334 6.5 29.001 6.5c13.333 0 24.666 -3.5 33.999 -10.5s14.333 -17.5 15 -31.5l-25 -143h85c8.66699 0 16.334 -3.66699 23.001 -11
s10 -16.666 10 -27.999s-3.16699 -20.833 -9.5 -28.5s-13.5 -11.5 -21.5 -11.5h-101l-24 -137h85c8.66699 0 16.5 -3.83301 23.5 -11.5s10.5 -17.167 10.5 -28.5s-3.33301 -20.833 -10 -28.5s-14 -11.5 -22 -11.5h-102l-30 -175c-1.33301 -7.33301 -6.33301 -13.5 -15 -18.5
s-17.667 -7.5 -27 -7.5c-14 0 -26 3.66699 -36 11s-15 17.333 -15 30l27 160h-115l-30 -174c-1.33301 -7.33301 -6.33301 -13.666 -15 -18.999s-17.334 -8 -26.001 -8c-14 0 -26 3.66699 -36 11s-15 17.333 -15 30l25 160h-84c-10 0 -17.833 3.66699 -23.5 11
s-8.5 16.666 -8.5 27.999zM251.995 311.999h115l24 137h-116z" />
    <glyph glyph-name="dollar" unicode="$" horiz-adv-x="515" 
d="M31 120c0 12.667 4.66992 25.332 14.0029 37.999s20 19 32 19c8 0 18.5 -5.83301 31.5 -17.5s30.667 -24.167 53 -37.5s48.166 -21 77.499 -23v235c-20 7.33301 -35.333 13.166 -46 17.499s-24.834 10.666 -42.501 18.999s-31.334 17 -41.001 26
s-19.834 19.833 -30.501 32.5s-18.334 27.5 -23.001 44.5s-7 35.833 -7 56.5c0 58 18.167 102 54.5 132s81.5 48 135.5 54v29c0 6 2.83301 11.333 8.5 16s12.5 7 20.5 7c7.33301 0 14.166 -2.33301 20.499 -7s9.5 -10 9.5 -16v-27
c40.667 -1.33301 78.167 -8.16602 112.5 -20.499s51.5 -29.5 51.5 -51.5c0 -12 -4 -24.5 -12 -37.5s-18.667 -19.5 -32 -19.5c-5.33301 0 -20 5.66699 -44 17s-49.333 18 -76 20v-203c26.667 -10 48.834 -19.5 66.501 -28.5s36.334 -21.5 56.001 -37.5
s34.5 -36.167 44.5 -60.5s15 -52.833 15 -85.5c0 -59.333 -16.333 -106.5 -49 -141.5s-77 -56.5 -133 -64.5v-34c0 -6 -3.16699 -11.333 -9.5 -16s-13.166 -7 -20.499 -7c-8 0 -14.833 2.33301 -20.5 7s-8.5 10 -8.5 16v31c-58 0.666992 -107.167 13.834 -147.5 39.501
s-60.5 51.834 -60.5 78.501zM149.003 539.998c0 -26 8 -45.833 24 -59.5s40 -26.5 72 -38.5v182c-64 -8 -96 -36 -96 -84zM292.003 100.998c58.667 10.667 88 43.667 88 99c0 29.333 -7.66699 52.333 -23 69s-37 31 -65 43v-211z" />
    <glyph glyph-name="percent" unicode="%" horiz-adv-x="774" 
d="M31 460v148.002c0 82 45 123 135 123c40.667 0 73.334 -9.83301 98.001 -29.5s37 -50.834 37 -93.501v-148c0 -42.667 -12.333 -73.834 -37 -93.501s-57.334 -29.5 -98.001 -29.5c-90 0 -135 41 -135 123zM104 460.002c0 -39.333 20.667 -59 62 -59c42 0 63 19.667 63 59
v148c0 39.333 -21 59 -63 59c-41.333 0 -62 -19.667 -62 -59v-148zM168 2.00195c0 5.33301 1.33105 10.332 3.99805 14.999l367 735c5.33301 12 15.333 18 30 18c10.667 0 20.334 -3.66699 29.001 -11s13 -16.333 13 -27c0 -5.33301 -1 -10.666 -3 -15.999l-367 -732
c-6 -12.667 -17.333 -19 -34 -19c-11.333 0 -20.666 3.83301 -27.999 11.5s-11 16.167 -11 25.5zM472.998 120.001v148.002c0 82 45 123 135 123c40.667 0 73.334 -9.83301 98.001 -29.5s37 -50.834 37 -93.501v-148c0 -42.667 -12.333 -73.834 -37 -93.501
s-57.334 -29.5 -98.001 -29.5c-90 0 -135 41 -135 123zM545.998 120.003c0 -39.333 20.667 -59 62 -59c42 0 63 19.667 63 59v148c0 39.333 -21 59 -63 59c-41.333 0 -62 -19.667 -62 -59v-148z" />
    <glyph glyph-name="ampersand" unicode="&#x26;" horiz-adv-x="629" 
d="M26 207c0 45.333 12.333 85.4971 37 120.497s55.334 62.167 92.001 81.5c-24 27.333 -42.333 53.333 -55 78s-19 52.667 -19 84c0 54.667 19 97.834 57 129.501s85.333 47.5 142 47.5c53.333 0 97.333 -12.333 132 -37s52 -48.667 52 -72
c0 -12.667 -5.16699 -24 -15.5 -34s-21.833 -15 -34.5 -15c-10 0 -20.167 6 -30.5 18s-23.666 24 -39.999 36s-36.833 18 -61.5 18c-30 0 -54 -8.5 -72 -25.5s-27 -40.5 -27 -70.5c0 -14.667 2.66699 -29.167 8 -43.5s14.166 -29.666 26.499 -45.999
s22.166 -28.5 29.499 -36.5l35 -39l177 -190c14 32.667 22.667 83.334 26 152.001c1.33301 12 5.33301 20.833 12 26.5s18.667 8.5 36 8.5s29 -4 35 -12s9 -21 9 -39c0 -72.667 -17.667 -140.334 -53 -203.001l85 -90c4.66699 -5.33301 7 -11.666 7 -18.999
c0 -10.667 -5 -20.5 -15 -29.5s-21.333 -13.5 -34 -13.5c-9.33301 0 -18.333 4.33301 -27 13l-69 72c-53.333 -58 -120.666 -87 -201.999 -87c-72.667 0 -131.334 21.167 -176.001 63.5s-67 93.5 -67 153.5zM133 215.997c0 -38 13.167 -69.668 39.5 -95.001
s62.833 -38 109.5 -38c54.667 0 96.667 19.667 126 59l-193 204c-54.667 -37.333 -82 -80.666 -82 -129.999z" />
    <glyph glyph-name="quotesingle" unicode="'" horiz-adv-x="148" 
d="M32 739c0 8 4.16797 14.833 12.501 20.5s17.833 8.5 28.5 8.5s20.5 -2.83301 29.5 -8.5s13.5 -12.5 13.5 -20.5l-10 -141c0 -8 -2.83301 -15 -8.5 -21s-13.834 -9 -24.501 -9c-20.667 0 -31 10 -31 30z" />
    <glyph glyph-name="parenleft" unicode="(" horiz-adv-x="325" 
d="M53 160v414c0 54.667 20.667 100.667 62 138s88.333 56 141 56c34.667 0 52 -15.333 52 -46c0 -14 -3.33301 -25.333 -10 -34s-15 -13 -25 -13c-34.667 0 -62.5 -10.167 -83.5 -30.5s-31.5 -43.833 -31.5 -70.5v-414c0 -32 11.333 -54.5 34 -67.5s49.667 -19.5 81 -19.5
c23.333 0 35 -15.667 35 -47c0 -30.667 -18.333 -46 -55 -46c-55.333 0 -102.5 15.5 -141.5 46.5s-58.5 75.5 -58.5 133.5z" />
    <glyph glyph-name="parenright" unicode=")" horiz-adv-x="326" 
d="M18 26c0 31.333 11.332 47 33.999 47c31.333 0 58.333 6.5 81 19.5s34 35.5 34 67.5v414c0 26.667 -10.5 50.167 -31.5 70.5s-48.833 30.5 -83.5 30.5c-10 0 -18.167 4.33301 -24.5 13s-9.5 20 -9.5 34c0 30.667 17 46 51 46c52.667 0 99.834 -18.667 141.501 -56
s62.5 -83.333 62.5 -138v-414c0 -58 -19.667 -102.5 -59 -133.5s-86.666 -46.5 -141.999 -46.5c-20.667 0 -34.834 4 -42.501 12s-11.5 19.333 -11.5 34z" />
    <glyph glyph-name="asterisk" unicode="*" horiz-adv-x="451" 
d="M25 579c0 10.667 3.66699 20.1641 11 28.4971s16.666 12.5 27.999 12.5c4 0 7.66699 -0.666992 11 -2l117 -40l-5 118c0.666992 11.333 4.66699 20 12 26s16.333 9 27 9s19.5 -3 26.5 -9s10.833 -14.667 11.5 -26l-4 -120l117 42c5.33301 1.33301 9 2 11 2
c10.667 0 19.667 -4.66699 27 -14s11 -19.666 11 -30.999c0 -17.333 -8.33301 -28 -25 -32l-115 -30l76 -106c4 -4.66699 6 -11.667 6 -21c0 -11.333 -4.5 -20.666 -13.5 -27.999s-19.167 -11 -30.5 -11c-12 0 -21 4.66699 -27 14l-71 106l-72 -107
c-5.33301 -8.66699 -13.666 -13 -24.999 -13c-10 0 -20 3.5 -30 10.5s-15 16.167 -15 27.5c0 8.66699 2.66699 16.334 8 23.001l74 101l-117 34c-16 4 -24 16 -24 36z" />
    <glyph glyph-name="plus" unicode="+" horiz-adv-x="433" 
d="M22 240c0 12.667 3.16797 23.333 9.50098 32s14.5 13 24.5 13h116v115c0 9.33301 4.5 17.5 13.5 24.5s19.5 10.5 31.5 10.5c12.667 0 23.167 -3.5 31.5 -10.5s12.5 -15.167 12.5 -24.5v-115h115c9.33301 0 17.5 -4.5 24.5 -13.5s10.5 -19.5 10.5 -31.5
c0 -12.667 -3.5 -23.167 -10.5 -31.5s-15.167 -12.5 -24.5 -12.5h-115v-116c0 -10 -4.16699 -18.167 -12.5 -24.5s-18.833 -9.5 -31.5 -9.5s-23.334 3.16699 -32.001 9.5s-13 14.5 -13 24.5v116h-116c-10 0 -18.167 4.16699 -24.5 12.5s-9.5 18.833 -9.5 31.5z" />
    <glyph glyph-name="comma" unicode="," horiz-adv-x="185" 
d="M33 54c0 16.667 5.66797 30.835 17.001 42.502s25.333 17.5 42 17.5c16 0 30 -5.83301 42 -17.5s18 -25.834 18 -42.501c0 -10.667 -16.333 -55 -49 -133c-4.66699 -10 -12.667 -15 -24 -15c-8.66699 0 -16.834 2.5 -24.501 7.5s-11.5 11.833 -11.5 20.5
c0 5.33301 1 9.66602 3 12.999l22 53c-23.333 10 -35 28 -35 54z" />
    <glyph glyph-name="hyphen" unicode="-" horiz-adv-x="412" 
d="M41 240c0 12.667 3.16699 23.333 9.5 32s14.5 13 24.5 13h260c9.33301 0 17.666 -4.5 24.999 -13.5s11 -19.5 11 -31.5c0 -12.667 -3.66699 -23.167 -11 -31.5s-15.666 -12.5 -24.999 -12.5h-260c-10 0 -18.167 4.16699 -24.5 12.5s-9.5 18.833 -9.5 31.5z" />
    <glyph glyph-name="period" unicode="." horiz-adv-x="184" 
d="M33 54c0 16.667 5.66699 30.833 17 42.5s25.666 17.5 42.999 17.5c16 0 29.833 -5.83301 41.5 -17.5s17.5 -25.834 17.5 -42.501c0 -16 -5.83301 -30 -17.5 -42s-25.5 -18 -41.5 -18c-17.333 0 -31.666 5.83301 -42.999 17.5s-17 25.834 -17 42.501z" />
    <glyph glyph-name="slash" unicode="/" horiz-adv-x="481" 
d="M19 2c0 5.33301 0.998047 10.333 2.99805 15l368 735c5.33301 12 15.333 18 30 18c10.667 0 20.334 -3.66699 29.001 -11s13 -16.333 13 -27c0 -6 -1.33301 -11.333 -4 -16l-367 -732c-6 -12.667 -17 -19 -33 -19c-11.333 0 -20.666 3.83301 -27.999 11.5
s-11 16.167 -11 25.5z" />
    <glyph glyph-name="zero" unicode="0" horiz-adv-x="551" 
d="M52 217v291c0 76.667 20.333 133 61 169s95 54 163 54s122.5 -18 163.5 -54s61.5 -92.333 61.5 -169v-291c0 -76.667 -20.5 -133 -61.5 -169s-95.5 -54 -163.5 -54s-122.333 18 -163 54s-61 92.333 -61 169zM158 217c0 -86 39.333 -128.998 118 -128.998
c38 0 67.333 10.667 88 32s31 53.666 31 96.999v291c0 43.333 -10.333 75.666 -31 96.999s-50 32 -88 32c-78.667 0 -118 -43 -118 -129v-291zM234 362.002c0 12.667 4 22.834 12 30.501s18.333 11.5 31 11.5s22.834 -3.83301 30.501 -11.5s11.5 -17.834 11.5 -30.501
s-3.83301 -23 -11.5 -31s-17.834 -12 -30.501 -12s-23 4 -31 12s-12 18.333 -12 31z" />
    <glyph glyph-name="one" unicode="1" horiz-adv-x="267" 
d="M7 580c0 17.333 7 31 21 41l104 100c7.33301 7.33301 16.333 11 27 11c12 0 22.833 -3.16699 32.5 -9.5s14.5 -14.833 14.5 -25.5v-662c0 -10.667 -5.33301 -19.167 -16 -25.5s-23 -9.5 -37 -9.5c-14.667 0 -27.167 3.16699 -37.5 9.5s-15.5 14.833 -15.5 25.5v556
l-35 -44c-6.66699 -6.66699 -14 -10 -22 -10c-10 0 -18.5 4.5 -25.5 13.5s-10.5 18.833 -10.5 29.5z" />
    <glyph glyph-name="two" unicode="2" horiz-adv-x="495" 
d="M30 35v97.002c0 30 11.167 59.333 33.5 88s49.833 54.667 82.5 78l96 70c32 23.333 59.167 49 81.5 77s33.5 56 33.5 84s-9.16699 52.5 -27.5 73.5s-45.166 31.5 -80.499 31.5c-30 0 -54.333 -8.33301 -73 -25s-28 -41.334 -28 -74.001c0 -10.667 -5.16699 -20 -15.5 -28
s-23.833 -12 -40.5 -12c-32 0 -48 19.667 -48 59c0 52 20.167 94.5 60.5 127.5s88.5 49.5 144.5 49.5c59.333 0 109.833 -18.5 151.5 -55.5s62.5 -84.833 62.5 -143.5c0 -40 -11.167 -77.5 -33.5 -112.5s-49.333 -64.667 -81 -89s-63.334 -47.333 -95.001 -69
s-58.667 -43.5 -81 -65.5s-33.5 -43.333 -33.5 -64v-38h294c9.33301 0 17.5 -4.5 24.5 -13.5s10.5 -19.833 10.5 -32.5s-3.5 -23.834 -10.5 -33.501s-15.167 -14.5 -24.5 -14.5h-356c-10.667 -0 -21.167 3.33301 -31.5 10s-15.5 15 -15.5 25z" />
    <glyph glyph-name="three" unicode="3" horiz-adv-x="509" 
d="M24 170c0 17.333 3.66699 29.168 11 35.501s20 9.5 38 9.5c21.333 0 35.833 -3.16699 43.5 -9.5s11.5 -16.5 11.5 -30.5c0 -24 10.167 -44.5 30.5 -61.5s49.5 -25.5 87.5 -25.5c41.333 0 71.833 9.83301 91.5 29.5s29.5 51.167 29.5 94.5v19
c0 72.667 -40.667 109 -122 109c-22.667 0 -34 14 -34 42c0 28.667 11.333 43 34 43c34 0 59.833 7.66699 77.5 23s26.5 44.333 26.5 87c0 68.667 -33.333 103 -100 103c-37.333 0 -64 -7.83301 -80 -23.5s-24 -35.167 -24 -58.5c0 -28.667 -16.667 -43 -50 -43
c-22.667 0 -37.5 3.33301 -44.5 10s-10.5 19.667 -10.5 39c0 18 3.33301 36 10 54s17.5 36 32.5 54s37 32.667 66 44s62.833 17 101.5 17c134 0 201 -59.333 201 -178c0 -40.667 -7.16699 -75.667 -21.5 -105s-33.833 -50 -58.5 -62c68 -26.667 102 -78.334 102 -155.001
v-19c0 -75.333 -21 -130.5 -63 -165.5s-97 -52.5 -165 -52.5c-72 0 -126.833 18 -164.5 54s-56.5 76.667 -56.5 122z" />
    <glyph glyph-name="four" unicode="4" horiz-adv-x="482" 
d="M3 203c0 7.33301 2 14.667 6 22l242 477c10 19.333 25.333 29 46 29c11.333 0 23 -4 35 -12s18 -17.667 18 -29c0 -4 -1.66699 -9.33301 -5 -16l-206 -411h147v138c0 23.333 17.667 35 53 35c14.667 0 27.167 -3 37.5 -9s15.5 -14.667 15.5 -26v-138h49
c11.333 0 20.166 -5 26.499 -15s9.5 -21.667 9.5 -35c0 -12 -3.66699 -23.167 -11 -33.5s-15.666 -15.5 -24.999 -15.5h-49v-129c0 -10.667 -5.33301 -19.167 -16 -25.5s-23 -9.5 -37 -9.5c-14.667 0 -27.167 3.16699 -37.5 9.5s-15.5 14.833 -15.5 25.5v129h-246
c-10.667 0 -19.5 3.5 -26.5 10.5s-10.5 16.5 -10.5 28.5z" />
    <glyph glyph-name="five" unicode="5" horiz-adv-x="497" 
d="M22 171c0 32.667 17.332 49.002 51.999 49.002c36 0 54 -14 54 -42s11.167 -50 33.5 -66s50.166 -24 83.499 -24c80 0 120 42 120 126v19c0 42 -10.333 73.5 -31 94.5s-50 31.5 -88 31.5h-145c-30 0 -45 13.667 -45 41c0 6.66699 0.666992 14.667 2 24l23 272
c2 23.333 10 35 24 35h297c10.667 0 18.834 -4.66699 24.501 -14s8.5 -20.333 8.5 -33s-2.83301 -23.667 -8.5 -33s-13.834 -14 -24.501 -14h-231l-14 -194h89c68.667 0 123.334 -16.833 164.001 -50.5s61 -86.834 61 -159.501v-19c0 -75.333 -20.5 -130.833 -61.5 -166.5
s-95.167 -53.5 -162.5 -53.5c-69.333 0 -124.166 17.167 -164.499 51.5s-60.5 76.166 -60.5 125.499z" />
    <glyph glyph-name="six" unicode="6" horiz-adv-x="536" 
d="M50 217l-0.00195312 291.001c0 76.667 20.833 133 62.5 169s97.167 54 166.5 54c70 0 124.167 -17.833 162.5 -53.5s57.5 -77.167 57.5 -124.5c0 -16.667 -4 -28.334 -12 -35.001s-20.667 -10 -38 -10c-36.667 0 -55 13.333 -55 40s-11.167 48.167 -33.5 64.5
s-50.166 24.5 -83.499 24.5c-81.333 0 -122 -43 -122 -129v-126c30.667 38 77.334 57 140.001 57c136 0 204 -68 204 -204v-18c0 -76.667 -20.333 -133 -61 -169s-95 -54 -163 -54s-122.5 18 -163.5 54s-61.5 92.333 -61.5 169zM154.998 211.001c0 -86 40 -129 120 -129
c78.667 0 118 43 118 129v17c0 84 -39.667 126 -119 126s-119 -39 -119 -117v-26z" />
    <glyph glyph-name="seven" unicode="7" horiz-adv-x="484" 
d="M21 543l-0.000976562 153c0 8.66699 5 16.667 15 24s20.667 11 32 11h355c10.667 0 21.167 -3.66699 31.5 -11s15.5 -15.333 15.5 -24v-103c0 -15.333 -6.33301 -35 -19 -59l-269 -521c-6 -10.667 -16.667 -16 -32 -16c-17.333 0 -32.666 5 -45.999 15s-20 22.333 -20 37
c0 7.33301 1.66699 14 5 20l275 506v62h-237v-94c0 -10 -5.5 -18.333 -16.5 -25s-23.5 -10 -37.5 -10s-26.167 3.33301 -36.5 10s-15.5 15 -15.5 25z" />
    <glyph glyph-name="eight" unicode="8" horiz-adv-x="521" 
d="M36 200v12c0 96.667 38.333 159 115 187c-62 24 -93 76 -93 156c0 60.667 18.167 105.167 54.5 133.5s85.833 42.5 148.5 42.5s112.167 -14.167 148.5 -42.5s54.5 -72.833 54.5 -133.5c0 -80.667 -31.333 -132.667 -94 -156c76.667 -28 115 -90.333 115 -187v-12
c0 -70.667 -20.333 -122.667 -61 -156s-95 -50 -163 -50s-122.5 16.667 -163.5 50s-61.5 85.333 -61.5 156zM142 211c0 -43.333 10.5 -75.667 31.5 -97s50.167 -32 87.5 -32c78.667 0 118 43 118 129v18c0 83.333 -39.333 125 -118 125c-79.333 0 -119 -41.667 -119 -125
v-18zM161 542.999c0 -67.333 33.333 -101 100 -101s100 33.667 100 101c0 66.667 -33.333 100 -100 100s-100 -33.333 -100 -100z" />
    <glyph glyph-name="nine" unicode="9" horiz-adv-x="536" 
d="M37 172c0 16.667 4 28.333 12 35s20.667 10 38 10c36.667 0 55 -13.333 55 -40s11.167 -48.167 33.5 -64.5s50.166 -24.5 83.499 -24.5c80.667 0 121 43 121 129v126c-30 -38 -76.333 -57 -139 -57c-136 0 -204 68 -204 204v18c0 76.667 20.333 133 61 169s95 54 163 54
s122.5 -18 163.5 -54s61.5 -92.333 61.5 -169v-291c0 -76.667 -20.833 -133 -62.5 -169s-97.5 -54 -167.5 -54c-69.333 0 -123.166 17.833 -161.499 53.5s-57.5 77.167 -57.5 124.5zM143 496.999c0 -84 39.667 -126 119 -126c78.667 0 118 39 118 117v26
c0 86 -39.667 129 -119 129c-78.667 0 -118 -43 -118 -129v-17z" />
    <glyph glyph-name="colon" unicode=":" horiz-adv-x="219" 
d="M50 54c0 16.667 5.66699 30.833 17 42.5s25.666 17.5 42.999 17.5c16 0 29.833 -5.83301 41.5 -17.5s17.5 -25.834 17.5 -42.501c0 -16 -5.83301 -30 -17.5 -42s-25.5 -18 -41.5 -18c-17.333 0 -31.666 5.83301 -42.999 17.5s-17 25.834 -17 42.501zM50 361.999
c0 16.667 5.66699 30.833 17 42.5s25.666 17.5 42.999 17.5c16 0 29.833 -5.83301 41.5 -17.5s17.5 -25.834 17.5 -42.501c0 -16 -5.83301 -30 -17.5 -42s-25.5 -18 -41.5 -18c-17.333 0 -31.666 5.83301 -42.999 17.5s-17 25.834 -17 42.501z" />
    <glyph glyph-name="semicolon" unicode=";" horiz-adv-x="219" 
d="M48 54c0 16.667 5.66797 30.835 17.001 42.502s25.333 17.5 42 17.5c16 0 30 -5.83301 42 -17.5s18 -25.834 18 -42.501c0 -10.667 -16.333 -55 -49 -133c-4.66699 -10 -12.667 -15 -24 -15c-8.66699 0 -16.834 2.5 -24.501 7.5s-11.5 11.833 -11.5 20.5
c0 5.33301 1 9.66602 3 12.999l22 53c-23.333 10 -35 28 -35 54zM52.001 362.001c0 16.667 5.66699 30.833 17 42.5s25.666 17.5 42.999 17.5c16 0 29.833 -5.83301 41.5 -17.5s17.5 -25.834 17.5 -42.501c0 -16 -5.83301 -30 -17.5 -42s-25.5 -18 -41.5 -18
c-17.333 0 -31.666 5.83301 -42.999 17.5s-17 25.834 -17 42.501z" />
    <glyph glyph-name="less" unicode="&#x3c;" horiz-adv-x="411" 
d="M21 277c0 17.333 7.33301 31.001 22 41.001l263 172c3.33301 2.66699 8.33301 4 15 4c11.333 0 22.166 -5 32.499 -15s15.5 -21.667 15.5 -35c0 -12.667 -5 -22.334 -15 -29.001l-210 -138l210 -138c10 -5.33301 15 -15 15 -29c0 -13.333 -5.16699 -24.833 -15.5 -34.5
s-21.166 -14.5 -32.499 -14.5c-6.66699 0 -11.667 1.33301 -15 4l-263 172c-14.667 10 -22 23.333 -22 40z" />
    <glyph glyph-name="equal" unicode="=" horiz-adv-x="442" 
d="M58 152c0 12.667 3.33301 23.333 10 32s15 13 25 13h255c9.33301 0 17.666 -4.5 24.999 -13.5s11 -19.5 11 -31.5c0 -12.667 -3.66699 -23.167 -11 -31.5s-15.666 -12.5 -24.999 -12.5h-255c-10.667 0 -19.167 4 -25.5 12s-9.5 18.667 -9.5 32zM58 354.999
c0 12.667 3.33301 23.333 10 32s15 13 25 13h255c9.33301 0 17.666 -4.5 24.999 -13.5s11 -19.5 11 -31.5c0 -12.667 -3.66699 -23.167 -11 -31.5s-15.666 -12.5 -24.999 -12.5h-255c-10.667 0 -19.167 4 -25.5 12s-9.5 18.667 -9.5 32z" />
    <glyph glyph-name="greater" unicode="&#x3e;" horiz-adv-x="410" 
d="M42 110c0 13.333 4.66699 22.999 14 28.999l211 138l-211 138c-9.33301 7.33301 -14 17 -14 29c0 13.333 5.16699 25 15.5 35s21.166 15 32.499 15c6 0 10.667 -1.33301 14 -4l263 -172c14.667 -10 22 -23.667 22 -41s-7.33301 -30.666 -22 -39.999l-263 -172
c-3.33301 -2.66699 -8 -4 -14 -4c-11.333 0 -22.166 4.83301 -32.499 14.5s-15.5 21.167 -15.5 34.5z" />
    <glyph glyph-name="question" unicode="?" horiz-adv-x="422" 
d="M22 636c0 23.333 16.335 46.165 49.002 68.498s74 33.5 124 33.5c62 0 110.833 -16.167 146.5 -48.5s53.5 -73.5 53.5 -123.5c0 -20.667 -3 -40.5 -9 -59.5s-14.667 -36.333 -26 -52s-21.5 -28.667 -30.5 -39s-20.333 -21.666 -34 -33.999s-21.834 -19.833 -24.501 -22.5
c-20 -18 -32.333 -36.333 -37 -55s-7 -47 -7 -85c0 -20.667 -14 -31 -42 -31c-14 0 -24 3.33301 -30 10s-9 18.667 -9 36c0 76 18 130.667 54 164c4 4 12.5 11.333 25.5 22s23 19.5 30 26.5s15.167 16.333 24.5 28s16.166 24.334 20.499 38.001s6.5 28.167 6.5 43.5
c0 32 -10.167 56.833 -30.5 74.5s-48.5 26.5 -84.5 26.5c-21.333 0 -39.5 -3.16699 -54.5 -9.5s-25.5 -13.5 -31.5 -21.5s-12.667 -15.167 -20 -21.5s-15 -9.5 -23 -9.5c-10 0 -19.333 3.66699 -28 11s-13 17.333 -13 30zM127.002 53.999c0 16.667 5.66699 30.834 17 42.501
s25.333 17.5 42 17.5c16 0 29.833 -5.83301 41.5 -17.5s17.5 -25.834 17.5 -42.501c0 -16 -5.83301 -30 -17.5 -42s-25.5 -18 -41.5 -18c-16.667 0 -30.667 6 -42 18s-17 26 -17 42z" />
    <glyph glyph-name="at" unicode="@" horiz-adv-x="729" 
d="M44 212c0 104.667 27.8311 189.668 83.498 255.001s138.5 98 248.5 98c102 0 181.167 -28.667 237.5 -86s84.5 -138 84.5 -242c0 -63.333 -11.333 -115.5 -34 -156.5s-57 -61.5 -103 -61.5c-26.667 0 -49.334 6.66699 -68.001 20s-30 30 -34 50
c-36.667 -42 -78 -63 -124 -63c-35.333 0 -65.166 9.33301 -89.499 28s-36.5 47 -36.5 85c0 44 17.167 74.833 51.5 92.5s83.5 26.5 147.5 26.5h37v17c0 50 -29.333 75 -88 75c-24.667 0 -46.5 -4.33301 -65.5 -13s-29.5 -13 -31.5 -13
c-7.33301 0 -13.666 4.83301 -18.999 14.5s-8 18.5 -8 26.5c0 16 14.333 29.833 43 41.5s59.667 17.5 93 17.5c45.333 0 82.333 -11.5 111 -34.5s43 -55.167 43 -96.5v-168c4.66699 -32.667 19.334 -49 44.001 -49c40.667 0 61 49 61 147c0 185.333 -84.333 278 -253 278
c-48 0 -89.5 -7.66699 -124.5 -23s-62 -36.833 -81 -64.5s-32.833 -58 -41.5 -91s-13 -69.5 -13 -109.5c0 -37.333 3.83301 -71.5 11.5 -102.5s20 -59.5 37 -85.5s40.833 -46.167 71.5 -60.5s67 -21.5 109 -21.5c33.333 0 64 4.5 92 13.5s43 13.5 45 13.5
c8 0 14.5 -3.5 19.5 -10.5s7.5 -13.833 7.5 -20.5c0 -17.333 -19.5 -31.666 -58.5 -42.999s-78.167 -17 -117.5 -17c-38 0 -74 6.83301 -108 20.5s-64.5 33.667 -91.5 60s-48.5 61.166 -64.5 104.499s-24 92.666 -24 147.999zM294.998 140.001
c0 -18 5.16895 -31.5 15.502 -40.5s24.166 -13.5 41.499 -13.5c26 0 48.5 8.5 67.5 25.5s28.5 35.5 28.5 55.5v41h-30c-40.667 0 -71.334 -5 -92.001 -15s-31 -27.667 -31 -53z" />
    <glyph glyph-name="A" unicode="A" horiz-adv-x="562" 
d="M14 44c0 4 0.333008 7 1 9l199 648c8 24 30.333 36 67 36c37.333 0 60 -12 68 -36l198 -648c1.33301 -4 2 -7 2 -9c0 -12 -7.16699 -22.333 -21.5 -31s-29.5 -13 -45.5 -13c-19.333 -0 -31.333 7.33301 -36 22l-41 142h-247l-41 -142c-4.66699 -14.667 -17 -22 -37 -22
c-16 -0 -31 4.33301 -45 13s-21 19 -21 31zM181 249h200l-100 343z" />
    <glyph glyph-name="B" unicode="B" horiz-adv-x="553" 
d="M66 34v661.999c0 10.667 4.66699 19.167 14 25.5s20.333 9.5 33 9.5h182c61.333 0 110.333 -12.667 147 -38s55 -70.333 55 -135c0 -82.667 -28.333 -136.667 -85 -162c34 -13.333 59.667 -32.5 77 -57.5s26 -61.5 26 -109.5v-19c0 -73.333 -18 -126.666 -54 -159.999
s-84.333 -50 -145 -50h-203c-14 -0 -25.333 3.33301 -34 10s-13 14.667 -13 24zM171 93.999l125 -0.000976562c75.333 0 113 41.333 113 124v16c0 42.667 -9.5 73.334 -28.5 92.001s-47.167 28 -84.5 28h-125v-260zM171 437.998h119c67.333 0 101 34.333 101 103
c0 64 -34.333 96 -103 96h-117v-199z" />
    <glyph glyph-name="C" unicode="C" horiz-adv-x="541" 
d="M59 217l0.00195312 291c0 76.667 20.5 133 61.5 169s94.5 54 160.5 54c68 0 122.833 -16.833 164.5 -50.5s62.5 -77.167 62.5 -130.5c0 -21.333 -4 -35.833 -12 -43.5s-21.667 -11.5 -41 -11.5c-34.667 0 -52.334 11.667 -53.001 35c-4 71.333 -43 107 -117 107
c-80 0 -120 -43 -120 -129v-291c0 -86 40.667 -129 122 -129c24 0 44 3.5 60 10.5s27.5 17.167 34.5 30.5s11.833 25 14.5 35s4.66699 22.333 6 37c2 23.333 19.333 35 52 35c19.333 0 33.166 -3.83301 41.499 -11.5s12.5 -22.167 12.5 -43.5
c0 -55.333 -21 -100.333 -63 -135s-97 -52 -165 -52c-66 0 -119.333 18 -160 54s-61 92.333 -61 169z" />
    <glyph glyph-name="D" unicode="D" horiz-adv-x="573" 
d="M66 34v663c0 9.33301 4.5 17.333 13.5 24s20.167 10 33.5 10h177c68 0 122.5 -18 163.5 -54s61.5 -92.333 61.5 -169v-285c0 -76.667 -20.5 -133 -61.5 -169s-95.5 -54 -163.5 -54h-177c-13.333 -0 -24.5 3.33301 -33.5 10s-13.5 14.667 -13.5 24zM172 94h118
c79.333 0 119 43 119 129v285c0 86 -39.667 129 -119 129h-118v-543z" />
    <glyph glyph-name="E" unicode="E" horiz-adv-x="523" 
d="M66 35v660.998c0 10.667 4.66699 19.167 14 25.5s20.333 9.5 33 9.5h356c11.333 0 20 -4.66699 26 -14s9 -20 9 -32c0 -13.333 -3.16699 -24.666 -9.5 -33.999s-14.833 -14 -25.5 -14h-297v-229h154c10.667 0 19.167 -4.16699 25.5 -12.5s9.5 -18.5 9.5 -30.5
c0 -10.667 -3 -20.167 -9 -28.5s-14.667 -12.5 -26 -12.5h-154v-230h297c10.667 0 19.167 -4.66699 25.5 -14s9.5 -20.666 9.5 -33.999c0 -12 -3 -22.667 -9 -32s-14.667 -14 -26 -14h-356c-12.667 0 -23.667 3.16699 -33 9.5s-14 14.833 -14 25.5z" />
    <glyph glyph-name="F" unicode="F" horiz-adv-x="502" 
d="M66 35v660.999c0 10.667 4.66699 19.167 14 25.5s20.333 9.5 33 9.5h351c11.333 0 19.833 -4.5 25.5 -13.5s8.5 -19.833 8.5 -32.5c0 -13.333 -3 -24.666 -9 -33.999s-14.333 -14 -25 -14h-292v-229h155c10.667 0 19 -4.16699 25 -12.5s9 -18.5 9 -30.5
c0 -10.667 -2.83301 -20.167 -8.5 -28.5s-14.167 -12.5 -25.5 -12.5h-155v-289c0 -11.333 -5.16699 -20 -15.5 -26s-22.833 -9 -37.5 -9c-14 0 -26.333 3 -37 9s-16 14.667 -16 26z" />
    <glyph glyph-name="G" unicode="G" horiz-adv-x="556" 
d="M59 217l0.00195312 290.999c0 76.667 20.333 133 61 169s94 54 160 54c67.333 0 122.166 -16.833 164.499 -50.5s63.5 -78.5 63.5 -134.5c0 -19.333 -4.16699 -32.666 -12.5 -39.999s-21.833 -11 -40.5 -11c-34.667 0 -52.334 11.667 -53.001 35
c-7.33301 71.333 -47 107 -119 107c-78.667 0 -118 -43 -118 -129v-291c0 -86 39.333 -129 118 -129c38 0 67.333 10.667 88 32s31 53.666 31 96.999v82h-101c-10.667 0 -19 4.16699 -25 12.5s-9 18.5 -9 30.5c0 10.667 3 20.334 9 29.001s14.333 13 25 13h172
c10.667 0 19.167 -3.5 25.5 -10.5s9.5 -15.5 9.5 -25.5v-131c0 -76.667 -20.5 -133 -61.5 -169s-95.5 -54 -163.5 -54s-122.333 18 -163 54s-61 92.333 -61 169z" />
    <glyph glyph-name="H" unicode="H" horiz-adv-x="593" 
d="M66 35v662c0 11.333 5.16699 19.833 15.5 25.5s22.833 8.5 37.5 8.5s27.167 -2.83301 37.5 -8.5s15.5 -14.167 15.5 -25.5v-276h249v276c0 11.333 5.16699 19.833 15.5 25.5s22.833 8.5 37.5 8.5s27.167 -2.83301 37.5 -8.5s15.5 -14.167 15.5 -25.5v-662
c0 -10.667 -5.16699 -19.167 -15.5 -25.5s-22.833 -9.5 -37.5 -9.5c-14 0 -26.333 3.16699 -37 9.5s-16 14.833 -16 25.5v302h-249v-302c0 -10.667 -5.16699 -19.167 -15.5 -25.5s-22.833 -9.5 -37.5 -9.5c-14 0 -26.333 3.16699 -37 9.5s-16 14.833 -16 25.5z" />
    <glyph glyph-name="I" unicode="I" horiz-adv-x="238" 
d="M66 35v662c0 11.333 5.16699 19.833 15.5 25.5s22.833 8.5 37.5 8.5s27.167 -2.83301 37.5 -8.5s15.5 -14.167 15.5 -25.5v-662c0 -10.667 -5.16699 -19.167 -15.5 -25.5s-22.833 -9.5 -37.5 -9.5c-14 0 -26.333 3.16699 -37 9.5s-16 14.833 -16 25.5z" />
    <glyph glyph-name="J" unicode="J" horiz-adv-x="530" 
d="M17 185c0 19.333 4.33301 32.668 13 40.001s22.334 11 41.001 11c34 0 51.333 -11.667 52 -35c1.33301 -32.667 11.666 -59.667 30.999 -81s48.333 -32 87 -32c80 0 120 43 120 129v420h-117c-10.667 0 -19.167 4.66699 -25.5 14s-9.5 20.666 -9.5 33.999
c0 12.667 3 23.5 9 32.5s14.667 13.5 26 13.5h176c12.667 0 23.667 -3.16699 33 -9.5s14 -14.833 14 -25.5v-479c0 -76.667 -20.333 -133 -61 -169s-94.334 -54 -161.001 -54c-67.333 0 -122.166 17.5 -164.499 52.5s-63.5 81.167 -63.5 138.5z" />
    <glyph glyph-name="K" unicode="K" horiz-adv-x="541" 
d="M66 35l0.000976562 662c0 11.333 5.16699 19.833 15.5 25.5s22.833 8.5 37.5 8.5s27.167 -2.83301 37.5 -8.5s15.5 -14.167 15.5 -25.5v-304l244 323c6.66699 10 16.667 15 30 15c14 0 27.667 -5.83301 41 -17.5s20 -24.167 20 -37.5c0 -8 -2.66699 -15 -8 -21l-192 -240
l228 -347c4 -6 6 -12.333 6 -19c0 -12.667 -6.5 -24.5 -19.5 -35.5s-27.167 -16.5 -42.5 -16.5c-16.667 0 -29.334 6.66699 -38.001 20l-204 309l-65 -82v-209c0 -10.667 -5.16699 -19.167 -15.5 -25.5s-22.833 -9.5 -37.5 -9.5c-14 0 -26.333 3.16699 -37 9.5
s-16 14.833 -16 25.5z" />
    <glyph glyph-name="L" unicode="L" horiz-adv-x="477" 
d="M66 35v662c0 11.333 5.16699 19.833 15.5 25.5s22.833 8.5 37.5 8.5s27.167 -2.83301 37.5 -8.5s15.5 -14.167 15.5 -25.5v-603h260c10 0 17.833 -4.66699 23.5 -14s8.5 -20.333 8.5 -33s-2.83301 -23.667 -8.5 -33s-13.5 -14 -23.5 -14h-319
c-12.667 0 -23.667 3.16699 -33 9.5s-14 14.833 -14 25.5z" />
    <glyph glyph-name="M" unicode="M" horiz-adv-x="687" 
d="M66 35l0.000976562 643c0 18 5 31.333 15 40s22.667 13 38 13c19.333 0 35.166 -4.16699 47.499 -12.5s24.5 -24.166 36.5 -47.499l140 -265l142 265c12 23.333 24 39.166 36 47.499s27.667 12.5 47 12.5c15.333 0 28 -4.33301 38 -13s15 -22 15 -40v-643
c0 -10.667 -5.16699 -19.167 -15.5 -25.5s-22.833 -9.5 -37.5 -9.5c-14 0 -26.333 3.16699 -37 9.5s-16 14.833 -16 25.5v480l-134 -248c-10 -16 -23 -24 -39 -24s-28 8 -36 24l-134 254v-486c0 -10.667 -5.16699 -19.167 -15.5 -25.5s-22.833 -9.5 -37.5 -9.5
c-14 0 -26.333 3.16699 -37 9.5s-16 14.833 -16 25.5z" />
    <glyph glyph-name="N" unicode="N" horiz-adv-x="593" 
d="M66 35v660.999c0 23.333 17.667 35 53 35c18.667 0 33.667 -4.16699 45 -12.5s23 -24.166 35 -47.499l222 -433v459c0 11.333 5.16699 19.833 15.5 25.5s22.833 8.5 37.5 8.5s27.167 -2.83301 37.5 -8.5s15.5 -14.167 15.5 -25.5v-662
c0 -10.667 -5.16699 -19.167 -15.5 -25.5s-22.833 -9.5 -37.5 -9.5c-28 0 -49 13 -63 39l-239 455v-459c0 -10.667 -5.16699 -19.167 -15.5 -25.5s-22.833 -9.5 -37.5 -9.5c-14 0 -26.333 3.16699 -37 9.5s-16 14.833 -16 25.5z" />
    <glyph glyph-name="O" unicode="O" horiz-adv-x="566" 
d="M59 217v291c0 76.667 20.333 133 61 169s95 54 163 54s122.5 -18 163.5 -54s61.5 -92.333 61.5 -169v-291c0 -76.667 -20.5 -133 -61.5 -169s-95.5 -54 -163.5 -54s-122.333 18 -163 54s-61 92.333 -61 169zM165 217c0 -86 39.333 -128.998 118 -128.998
c38 0 67.333 10.667 88 32s31 53.666 31 96.999v291c0 43.333 -10.333 75.666 -31 96.999s-50 32 -88 32c-78.667 0 -118 -43 -118 -129v-291z" />
    <glyph glyph-name="P" unicode="P" horiz-adv-x="545" 
d="M66 35l-0.000976562 662c0 9.33301 3.83301 17.333 11.5 24s17.5 10 29.5 10h195c66.667 0 119.834 -17.667 159.501 -53s59.5 -91 59.5 -167v-8c0 -76 -20.5 -131.833 -61.5 -167.5s-95.5 -53.5 -163.5 -53.5h-124v-247c0 -10.667 -5.16699 -19.167 -15.5 -25.5
s-22.833 -9.5 -37.5 -9.5c-14 0 -26.333 3.16699 -37 9.5s-16 14.833 -16 25.5zM171.999 366l124 0.000976562c38 0 67.333 10.833 88 32.5s31 54.167 31 97.5v12c0 43.333 -10.333 75.666 -31 96.999s-50 32 -88 32h-124v-271z" />
    <glyph glyph-name="Q" unicode="Q" horiz-adv-x="566" 
d="M59 217v290.999c0 77.333 20.333 133.833 61 169.5s95 53.5 163 53.5s122.5 -17.833 163.5 -53.5s61.5 -92.167 61.5 -169.5v-291c0 -70 -17 -123 -51 -159s-80 -56.667 -138 -62v-70c0 -10.667 -3.5 -19.167 -10.5 -25.5s-15.5 -9.5 -25.5 -9.5
c-9.33301 0 -17.5 3.16699 -24.5 9.5s-10.5 14.833 -10.5 25.5v70c-58 5.33301 -104 25.833 -138 61.5s-51 88.834 -51 159.501zM165 216.999c0 -70.667 27.667 -111.666 83 -122.999v61c0 22.667 11.667 34 35 34c10 0 18.5 -2.83301 25.5 -8.5s10.5 -14.167 10.5 -25.5
v-60c55.333 12 83 52.667 83 122v291c0 43.333 -10.333 75.666 -31 96.999s-50 32 -88 32c-78.667 0 -118 -43 -118 -129v-291z" />
    <glyph glyph-name="R" unicode="R" horiz-adv-x="559" 
d="M66 35l-0.000976562 661.999c0 9.33301 3.33301 17.333 10 24s15 10 25 10h190c153.333 0 230 -68 230 -204c0 -56.667 -12.667 -101.167 -38 -133.5s-59.666 -53.833 -102.999 -64.5l140 -263c2.66699 -4.66699 4 -9.66699 4 -15
c0 -13.333 -6.83301 -25.666 -20.5 -36.999s-28.167 -17 -43.5 -17c-17.333 0 -31.333 10.333 -42 31l-146 286h-101v-279c0 -10.667 -5.16699 -19.167 -15.5 -25.5s-22.833 -9.5 -37.5 -9.5c-14 0 -26.167 3.16699 -36.5 9.5s-15.5 14.833 -15.5 25.5zM170.999 398.999h120
c82.667 0 124 39.667 124 119s-41.333 119 -124 119h-120v-238z" />
    <glyph glyph-name="S" unicode="S" horiz-adv-x="512" 
d="M29 110c0 12.667 4.66895 25.3311 14.002 37.998s20 19 32 19c7.33301 0 16.166 -4.16699 26.499 -12.5s20.5 -17.333 30.5 -27s25.167 -18.667 45.5 -27s43.166 -12.5 68.499 -12.5c38 0 68.5 9 91.5 27s34.5 44.333 34.5 79c0 32 -11.167 58.667 -33.5 80
s-49.333 38.333 -81 51s-63.5 26.334 -95.5 41.001s-59.167 36.667 -81.5 66s-33.5 66 -33.5 110c0 35.333 6.83301 66 20.5 92s32.167 46 55.5 60s47.833 24.167 73.5 30.5s52.834 9.5 81.501 9.5c18 0 36.833 -1.16699 56.5 -3.5s39.167 -6.16602 58.5 -11.499
s35.333 -13 48 -23s19 -21.333 19 -34s-4 -25.334 -12 -38.001s-18.667 -19 -32 -19c-6.66699 0 -15.667 3.16699 -27 9.5s-26.5 12.666 -45.5 18.999s-40.833 9.5 -65.5 9.5c-38 0 -68.333 -7.5 -91 -22.5s-34 -37.833 -34 -68.5c0 -20 6 -37.167 18 -51.5
s27.5 -26.166 46.5 -35.499s40.167 -18.5 63.5 -27.5s46.5 -19.5 69.5 -31.5s44 -25.833 63 -41.5s34.5 -37.167 46.5 -64.5s18 -59 18 -95c0 -69.333 -20.833 -122.166 -62.5 -158.499s-96.834 -54.5 -165.501 -54.5c-61.333 0 -113.5 12.833 -156.5 38.5
s-64.5 52.167 -64.5 79.5z" />
    <glyph glyph-name="T" unicode="T" horiz-adv-x="513" 
d="M14 683c0 12.667 3 23.833 9 33.5s14.667 14.5 26 14.5h415c11.333 0 20 -4.66699 26 -14s9 -20.333 9 -33c0 -14 -3.16699 -25.833 -9.5 -35.5s-14.833 -14.5 -25.5 -14.5h-154v-599c0 -10.667 -5.33301 -19.167 -16 -25.5s-23 -9.5 -37 -9.5
c-14.667 0 -27.167 3.16699 -37.5 9.5s-15.5 14.833 -15.5 25.5v599h-155c-10.667 0 -19.167 4.83301 -25.5 14.5s-9.5 21.167 -9.5 34.5z" />
    <glyph glyph-name="U" unicode="U" horiz-adv-x="583" 
d="M63 217l0.000976562 479.999c0 11.333 5.16699 19.833 15.5 25.5s22.833 8.5 37.5 8.5s27.167 -2.83301 37.5 -8.5s15.5 -14.167 15.5 -25.5v-480c0 -43.333 10.667 -75.666 32 -96.999s51.333 -32 90 -32c82 0 123 43 123 129v480c0 11.333 5.16699 19.833 15.5 25.5
s22.833 8.5 37.5 8.5s27.167 -2.83301 37.5 -8.5s15.5 -14.167 15.5 -25.5v-480c0 -76.667 -20.833 -133 -62.5 -169s-97.167 -54 -166.5 -54c-68.667 0 -123.834 18 -165.501 54s-62.5 92.333 -62.5 169z" />
    <glyph glyph-name="V" unicode="V" horiz-adv-x="561" 
d="M13 687c0 12 7 22.332 21 30.999s29 13 45 13c20 0 32.333 -7.33301 37 -22l165 -570l164 570c4.66699 14.667 16.667 22 36 22c16 0 31.167 -4.33301 45.5 -13s21.5 -19 21.5 -31c0 -2 -0.666992 -5 -2 -9l-198 -648c-3.33301 -11.333 -11.333 -20.166 -24 -26.499
s-27 -9.5 -43 -9.5c-36.667 0 -59 12 -67 36l-200 648c-0.666992 2 -1 5 -1 9z" />
    <glyph glyph-name="W" unicode="W" horiz-adv-x="847" 
d="M14 688c0 12 7 22.167 21 30.5s29 12.5 45 12.5c20.667 0 33 -7.33301 37 -22l164 -570l90 358c4.66699 20.667 22.334 31 53.001 31c29.333 0 46.666 -10.333 51.999 -31l91 -358l163 570c4 14.667 16.333 22 37 22c16 0 31 -4.16699 45 -12.5s21 -18.5 21 -30.5
c0 -4.66699 -0.333008 -8 -1 -10l-198 -648c-4 -11.333 -12.5 -20.166 -25.5 -26.499s-27.167 -9.5 -42.5 -9.5s-29.5 3.16699 -42.5 9.5s-20.833 15.166 -23.5 26.499l-76 302l-76 -302c-2.66699 -11.333 -10.5 -20.166 -23.5 -26.499s-27.5 -9.5 -43.5 -9.5
s-30.333 3.16699 -43 9.5s-20.667 15.166 -24 26.499l-199 648c-0.666992 2 -1 5.33301 -1 10z" />
    <glyph glyph-name="X" unicode="X" horiz-adv-x="533" 
d="M18 49c0 6 2 13 6 21l173 296l-168 294c-5.33301 9.33301 -8 18 -8 26c0 13.333 7 24.666 21 33.999s29.333 14 46 14c16 0 29.333 -10 40 -30l138 -256l140 256c9.33301 20 22.666 30 39.999 30c16 0 31 -4.66699 45 -14s21 -20.666 21 -33.999
c0 -8 -2.66699 -16.667 -8 -26l-168 -294l173 -296c4.66699 -9.33301 7 -16.333 7 -21c0 -14 -7.5 -26.167 -22.5 -36.5s-30.5 -15.5 -46.5 -15.5c-14 0 -25 8 -33 24l-148 266l-146 -266c-9.33301 -16 -20.666 -24 -33.999 -24c-15.333 0 -30.5 5.16699 -45.5 15.5
s-22.5 22.5 -22.5 36.5z" />
    <glyph glyph-name="Y" unicode="Y" horiz-adv-x="558" 
d="M13 687c0 12 7.33301 22.333 22 31s29.667 13 45 13c14.667 0 26.334 -8 35.001 -24l165 -317l164 317c8 16 19.667 24 35 24s30.166 -4.33301 44.499 -13s21.5 -19 21.5 -31c0 -6 -1 -11 -3 -15l-207 -373c-1.33301 -4 -2 -7.66699 -2 -11v-253
c0 -10.667 -5.33301 -19.167 -16 -25.5s-23 -9.5 -37 -9.5c-14.667 0 -27.167 3.16699 -37.5 9.5s-15.5 14.833 -15.5 25.5v253c0 1.33301 -1 5 -3 11l-207 373c-2.66699 5.33301 -4 10.333 -4 15z" />
    <glyph glyph-name="Z" unicode="Z" horiz-adv-x="508" 
d="M18 31c0 12.667 3.66699 25 11 37l310 569h-271c-10.667 0 -19.167 4.5 -25.5 13.5s-9.5 20.167 -9.5 33.5c0 12.667 3 23.667 9 33s14.667 14 26 14h373c22.667 0 34 -10 34 -30c0 -12 -4 -25 -12 -39l-310 -568h303c10.667 0 19.167 -4.83301 25.5 -14.5
s9.5 -20.5 9.5 -32.5s-3.16699 -22.833 -9.5 -32.5s-14.833 -14.5 -25.5 -14.5h-405c-22 -0 -33 10.333 -33 31z" />
    <glyph glyph-name="bracketleft" unicode="[" horiz-adv-x="328" 
d="M60 14v718.998c0 10.667 4.83301 19.167 14.5 25.5s20.834 9.5 33.501 9.5h167c10.667 0 19.167 -4.66699 25.5 -14s9.5 -20 9.5 -32c0 -13.333 -3.33301 -24.666 -10 -33.999s-15 -14 -25 -14h-109v-601h109c10 0 18.333 -4.66699 25 -14s10 -20.666 10 -33.999
c0 -12 -3.16699 -22.667 -9.5 -32s-14.833 -14 -25.5 -14h-167c-12.667 0 -23.834 3.16699 -33.501 9.5s-14.5 14.833 -14.5 25.5z" />
    <glyph glyph-name="backslash" unicode="\" horiz-adv-x="362" 
d="M21 717c0 10 4.16797 18.834 12.501 26.501s18.166 11.5 29.499 11.5c15.333 0 26 -7.33301 32 -22l245 -685c0.666992 -2.66699 1 -6.33398 1 -11.001c0 -10 -3.83301 -18.833 -11.5 -26.5s-16.834 -11.5 -27.501 -11.5c-17.333 0 -28.666 8 -33.999 24l-244 682
c-2 4 -3 8 -3 12z" />
    <glyph glyph-name="bracketright" unicode="]" horiz-adv-x="327" 
d="M18 25c0 13.333 3.16699 24.668 9.5 34.001s14.5 14 24.5 14h109v601h-109c-10 0 -18.167 4.66699 -24.5 14s-9.5 20.666 -9.5 33.999c0 12 3 22.667 9 32s14.333 14 25 14h168c12.667 0 23.667 -3.16699 33 -9.5s14 -14.833 14 -25.5v-719
c0 -10.667 -4.66699 -19.167 -14 -25.5s-20.333 -9.5 -33 -9.5h-168c-10.667 0 -19 4.66699 -25 14s-9 20 -9 32z" />
    <glyph glyph-name="asciicircum" unicode="^" horiz-adv-x="279" 
d="M0 617c0 14 5.99805 24.333 17.998 31l104 56c6.66699 3.33301 12.334 5 17.001 5c6 0 11.667 -1.66699 17 -5l104 -55c12.667 -8 19 -19 19 -33c0 -8.66699 -2.5 -16.5 -7.5 -23.5s-11.167 -10.5 -18.5 -10.5c-1.33301 0 -3.33301 0.333008 -6 1
c-1.33301 1.33301 -2.66602 2 -3.99902 2l-104 56l-104 -56c-3.33301 -2 -6.33301 -3 -9 -3c-7.33301 0 -13.5 3.5 -18.5 10.5s-7.5 15.167 -7.5 24.5z" />
    <glyph glyph-name="underscore" unicode="_" horiz-adv-x="324" 
d="M-32 -45c0 12.667 3.16699 23.333 9.5 32s14.5 13 24.5 13h320c9.33301 0 17.666 -4.5 24.999 -13.5s11 -19.5 11 -31.5c0 -12.667 -3.66699 -23.167 -11 -31.5s-15.666 -12.5 -24.999 -12.5h-320c-10 0 -18.167 4.16699 -24.5 12.5s-9.5 18.833 -9.5 31.5z" />
    <glyph glyph-name="grave" unicode="`" horiz-adv-x="184" 
d="M0 668c0 10 3.33301 19.333 10 28s14.667 13 24 13c2 0 5.66699 -0.666992 11 -2l124 -63c10 -5.33301 15 -14 15 -26c0 -10 -3.33301 -19.333 -10 -28s-14.667 -13 -24 -13c-4.66699 0 -9 1 -13 3l-121 61c-10.667 4.66699 -16 13.667 -16 27z" />
    <glyph glyph-name="a" unicode="a" horiz-adv-x="460" 
d="M25 124c0 53.333 20 90.5 60 111.5s98 31.5 174 31.5h44v18c0 29.333 -8.16699 54.666 -24.5 75.999s-41.166 32 -74.499 32c-28.667 0 -53.834 -5 -75.501 -15s-33.5 -15 -35.5 -15c-11.333 0 -20.5 5.5 -27.5 16.5s-10.5 23.167 -10.5 36.5
c0 17.333 16.167 32.333 48.5 45s66.5 19 102.5 19c68.667 0 119.5 -18.5 152.5 -55.5s49.5 -83.167 49.5 -138.5v-251c0 -9.33301 -4.83301 -17.5 -14.5 -24.5s-21.834 -10.5 -36.501 -10.5c-13.333 0 -24.666 3.5 -33.999 10.5s-14 15.167 -14 24.5v35
c-44.667 -52 -95 -78 -151 -78c-38.667 0 -70.5 11.333 -95.5 34s-37.5 55.334 -37.5 98.001zM131 137c0 -21.333 6 -37.5 18 -48.5s27.667 -16.5 47 -16.5c25.333 0 49.5 10.667 72.5 32s34.5 44 34.5 68v37h-25c-30 0 -54.5 -1.33301 -73.5 -4s-36 -9.66699 -51 -21
s-22.5 -27 -22.5 -47z" />
    <glyph glyph-name="b" unicode="b" horiz-adv-x="506" 
d="M56 35l0.00292969 687.001c0 10 4.66699 18.167 14 24.5s21.666 9.5 36.999 9.5s28.166 -3.16699 38.499 -9.5s15.5 -14.5 15.5 -24.5v-318c11.333 21.333 28.333 39.333 51 54s48.667 22 78 22c49.333 0 91.5 -19.333 126.5 -58s52.5 -85 52.5 -139v-92
c0 -52 -17.667 -98.167 -53 -138.5s-76.333 -60.5 -123 -60.5c-30 0 -57.667 7.66699 -83 23s-43.666 33.666 -54.999 54.999v-35c0 -8.66699 -4.83301 -16.667 -14.5 -24s-20.834 -11 -33.501 -11c-14.667 0 -26.834 3.66699 -36.501 11s-14.5 15.333 -14.5 24z
M161.003 168.001c0 -14.667 10.499 -32.167 31.499 -52.5s44.5 -30.5 70.5 -30.5c27.333 0 51 10.833 71 32.5s30 46.167 30 73.5v92c0 26.667 -10.167 50.667 -30.5 72s-44.166 32 -71.499 32c-26 0 -49.333 -9.66699 -70 -29s-31 -44.333 -31 -75v-115z" />
    <glyph glyph-name="c" unicode="c" horiz-adv-x="426" 
d="M39 191v89.999c0 59.333 17.333 107.333 52 144s86.334 55 155.001 55c43.333 0 79.666 -7.5 108.999 -22.5s44 -31.833 44 -50.5c0 -11.333 -4.16699 -22.666 -12.5 -33.999s-18.166 -17 -29.499 -17c-3.33301 0 -15.166 5.16699 -35.499 15.5s-42.833 15.5 -67.5 15.5
c-73.333 0 -110 -35.333 -110 -106v-90c0 -70.667 37 -106 111 -106c25.333 0 48.166 5.5 68.499 16.5s32.5 16.5 36.5 16.5c13.333 0 24.166 -5.33301 32.499 -16s12.5 -22 12.5 -34c0 -18.667 -15.333 -36 -46 -52s-68 -24 -112 -24c-69.333 0 -121.333 18.167 -156 54.5
s-52 84.5 -52 144.5z" />
    <glyph glyph-name="d" unicode="d" horiz-adv-x="507" 
d="M37 191l0.00195312 91.999c0 54 17.5 100.333 52.5 139s77.167 58 126.5 58c29.333 0 55.333 -7.33301 78 -22s40 -32.667 52 -54v318c0 10 5 18.167 15 24.5s22.667 9.5 38 9.5s27.833 -3.16699 37.5 -9.5s14.5 -14.5 14.5 -24.5v-687c0 -8.66699 -5 -16.667 -15 -24
s-22.333 -11 -37 -11c-12.667 0 -23.834 3.66699 -33.501 11s-14.5 15.333 -14.5 24v35c-10.667 -21.333 -28.834 -39.666 -54.501 -54.999s-53.5 -23 -83.5 -23c-46.667 0 -87.667 20.167 -123 60.5s-53 86.5 -53 138.5zM142.002 190.999c0 -27.333 10 -51.833 30 -73.5
s43.667 -32.5 71 -32.5c26 0 49.667 10.167 71 30.5s32 37.833 32 52.5v115c0 30.667 -10.333 55.667 -31 75s-44.334 29 -71.001 29c-27.333 0 -51.166 -10.667 -71.499 -32s-30.5 -45.333 -30.5 -72v-92z" />
    <glyph glyph-name="e" unicode="e" horiz-adv-x="474" 
d="M37 191l0.00195312 95c0 52.667 20.333 98.167 61 136.5s89.667 57.5 147 57.5c54.667 0 101.5 -17.5 140.5 -52.5s58.5 -79.167 58.5 -132.5c0 -20 -2.33301 -36.167 -7 -48.5s-12 -21 -22 -26s-19.333 -8.16699 -28 -9.5s-20 -2 -34 -2h-211v-23
c0 -33.333 12 -59.833 36 -79.5s55.333 -29.5 94 -29.5c27.333 0 53.166 6.33301 77.499 19s39.166 19 44.499 19c11.333 0 21 -5.33301 29 -16s12 -21 12 -31c0 -16.667 -16 -33.5 -48 -50.5s-71.333 -25.5 -118 -25.5c-68 0 -123.667 18.333 -167 55s-65 84.667 -65 144z
M142.002 274l166 -0.000976562c14.667 0 24.5 2 29.5 6s7.5 12 7.5 24c0 26.667 -9.66699 49.334 -29 68.001s-43.333 28 -72 28c-28 0 -52 -8.83301 -72 -26.5s-30 -40.167 -30 -67.5v-32z" />
    <glyph glyph-name="f" unicode="f" horiz-adv-x="328" 
d="M56 34l0.000976562 531.002c0 53.333 17.333 98.5 52 135.5s76.334 55.5 125.001 55.5h46c12.667 0 22.667 -4.5 30 -13.5s11 -19.5 11 -31.5s-3.66699 -22.5 -11 -31.5s-17.333 -13.5 -30 -13.5h-26c-26.667 0 -48.667 -8.66699 -66 -26s-26 -39 -26 -65v-101h130
c8.66699 0 15.667 -3.83301 21 -11.5s8 -16.834 8 -27.501s-2.66699 -19.834 -8 -27.501s-12.333 -11.5 -21 -11.5h-130v-362c0 -10 -5.33301 -18.167 -16 -24.5s-23.334 -9.5 -38.001 -9.5s-26.834 3.16699 -36.501 9.5s-14.5 14.5 -14.5 24.5z" />
    <glyph glyph-name="g" unicode="g" horiz-adv-x="463" 
d="M19 -87c0 46.667 25.667 82.333 77 107c-31.333 13.333 -47 35.333 -47 66c0 29.333 16.667 54.666 50 75.999c-39.333 30.667 -59 72.667 -59 126v28c0 48 17.167 87.333 51.5 118s79.166 46 134.499 46c46.667 0 85.334 -11.333 116.001 -34c19.333 44.667 41 67 65 67
c12.667 0 23 -3.83301 31 -11.5s12 -15.834 12 -24.501c0 -10.667 -5.66699 -19 -17 -25c-21.333 -9.33301 -38 -22.666 -50 -39.999c21.333 -26.667 32 -58.667 32 -96v-28c0 -48 -17.667 -87.667 -53 -119s-80.666 -47 -135.999 -47c-26 0 -49 4 -69 12
c-12.667 -8.66699 -19 -18 -19 -28c0 -13.333 10.5 -23 31.5 -29s46.333 -10.667 76 -14s59.334 -8.16602 89.001 -14.499s55 -19.833 76 -40.5s31.5 -48 31.5 -82c0 -50 -19.833 -87.667 -59.5 -113s-89.834 -38 -150.501 -38s-111.334 12.5 -152.001 37.5
s-61 58.5 -61 100.5zM118 -76.001c0 -24 10.499 -43.166 31.499 -57.499s48.167 -21.5 81.5 -21.5c32.667 0 59 7 79 21s30 33 30 57c0 15.333 -4.66699 28.166 -14 38.499s-23.166 18 -41.499 23s-34 8.33301 -47 10s-30.5 3.16699 -52.5 4.5
c-44.667 -16.667 -67 -41.667 -67 -75zM141.999 289c0 -29.333 7.66699 -53.332 23 -71.999s36.333 -28 63 -28c26 0 46.667 9.16699 62 27.5s23 42.166 23 71.499v28c0 28 -7.66699 51.167 -23 69.5s-36.333 27.5 -63 27.5c-26 0 -46.667 -9.16699 -62 -27.5
s-23 -41.5 -23 -69.5v-27z" />
    <glyph glyph-name="h" unicode="h" horiz-adv-x="514" 
d="M56 35v687c0 10 4.83301 18.167 14.5 24.5s22.167 9.5 37.5 9.5c14.667 0 27.167 -3.16699 37.5 -9.5s15.5 -14.5 15.5 -24.5v-318c10.667 21.333 27.167 39.333 49.5 54s48.5 22 78.5 22c47.333 0 88.166 -19.333 122.499 -58s51.5 -85 51.5 -139v-248
c0 -10.667 -5.33301 -19.167 -16 -25.5s-23 -9.5 -37 -9.5c-13.333 0 -25.333 3.16699 -36 9.5s-16 14.833 -16 25.5v248c0 26.667 -10 50.667 -30 72s-43.667 32 -71 32c-25.333 0 -47.666 -9.5 -66.999 -28.5s-29 -44.167 -29 -75.5v-248
c0 -8.66699 -5.33301 -16.667 -16 -24s-23 -11 -37 -11c-14.667 0 -27 3.66699 -37 11s-15 15.333 -15 24z" />
    <glyph glyph-name="i" unicode="i" 
d="M46 648c0 15.333 6 28.333 18 39s26.333 16 43 16s31 -5.33301 43 -16s18 -23.667 18 -39c0 -14.667 -6 -27.5 -18 -38.5s-26.333 -16.5 -43 -16.5s-31 5.5 -43 16.5s-18 23.833 -18 38.5zM55 35v405c0 10 4.83301 18.167 14.5 24.5s22.167 9.5 37.5 9.5
s28 -3.16699 38 -9.5s15 -14.5 15 -24.5v-405c0 -8.66699 -5.16699 -16.667 -15.5 -24s-22.833 -11 -37.5 -11s-27 3.66699 -37 11s-15 15.333 -15 24z" />
    <glyph glyph-name="j" unicode="j" 
d="M-38 -181c0 13.333 4 24.334 12 33.001s17.667 13 29 13c21.333 0 35.333 8.16699 42 24.5s10 41.166 10 74.499v476c0 10 4.83301 18.167 14.5 24.5s22.167 9.5 37.5 9.5s28 -3.16699 38 -9.5s15 -14.5 15 -24.5v-476c0 -58 -12 -104 -36 -138s-59.667 -51 -107 -51
c-36.667 0 -55 14.667 -55 44zM46 648.001c0 15.333 6 28.333 18 39s26.333 16 43 16s31 -5.33301 43 -16s18 -23.667 18 -39c0 -14.667 -6 -27.5 -18 -38.5s-26.333 -16.5 -43 -16.5s-31 5.5 -43 16.5s-18 23.833 -18 38.5z" />
    <glyph glyph-name="k" unicode="k" horiz-adv-x="480" 
d="M56 35l0.00390625 687c0 10 4.66699 18.167 14 24.5s21.666 9.5 36.999 9.5s28.166 -3.16699 38.499 -9.5s15.5 -14.5 15.5 -24.5v-445l209 192c6 6 13.333 9 22 9c11.333 0 22.666 -5.33301 33.999 -16s17 -22 17 -34c0 -8.66699 -3 -16 -9 -22l-129 -115l157 -226
c4 -6 6 -12 6 -18c0 -12 -6.66699 -23.833 -20 -35.5s-26.333 -17.5 -39 -17.5c-11.333 0 -20.666 5 -27.999 15l-147 217l-73 -66v-125c0 -8.66699 -5.33301 -16.667 -16 -24s-23.334 -11 -38.001 -11s-26.834 3.66699 -36.501 11s-14.5 15.333 -14.5 24z" />
    <glyph glyph-name="l" unicode="l" horiz-adv-x="233" 
d="M64 35v687c0 10 4.83301 18.167 14.5 24.5s22.167 9.5 37.5 9.5c14.667 0 27.167 -3.16699 37.5 -9.5s15.5 -14.5 15.5 -24.5v-687c0 -8.66699 -5.33301 -16.667 -16 -24s-23 -11 -37 -11c-14.667 0 -27 3.66699 -37 11s-15 15.333 -15 24z" />
    <glyph glyph-name="m" unicode="m" horiz-adv-x="794" 
d="M55 35v404.999c0 10 4.83301 18.167 14.5 24.5s22.167 9.5 37.5 9.5c12.667 0 23.667 -3.16699 33 -9.5s14 -14.5 14 -24.5v-36c28.667 50.667 73 76 133 76c29.333 0 55.5 -9.16699 78.5 -27.5s40.5 -42.5 52.5 -72.5c16.667 32.667 38.5 57.5 65.5 74.5
s55.5 25.5 85.5 25.5c47.333 0 88.166 -17.833 122.499 -53.5s51.5 -83.5 51.5 -143.5v-248c0 -8.66699 -5.33301 -16.667 -16 -24s-23 -11 -37 -11c-13.333 0 -25.333 3.66699 -36 11s-16 15.333 -16 24v248c0 32.667 -9.33301 58.334 -28 77.001s-40.334 28 -65.001 28
s-46.5 -9.33301 -65.5 -28s-28.5 -43.667 -28.5 -75v-251c0 -11.333 -5.16699 -19.833 -15.5 -25.5s-22.833 -8.5 -37.5 -8.5c-13.333 -0 -25.333 2.83301 -36 8.5s-16 14.167 -16 25.5v250c0 30 -9.16699 54.667 -27.5 74s-40.166 29 -65.499 29
s-47.166 -9.33301 -65.499 -28s-27.5 -44 -27.5 -76v-248c0 -8.66699 -5.33301 -16.667 -16 -24s-23 -11 -37 -11c-14.667 0 -27 3.66699 -37 11s-15 15.333 -15 24z" />
    <glyph glyph-name="n" unicode="n" horiz-adv-x="513" 
d="M55 35l-0.000976562 405c0 10 4.83301 18.167 14.5 24.5s22.167 9.5 37.5 9.5c13.333 0 24.5 -3.16699 33.5 -9.5s13.5 -14.5 13.5 -24.5v-36c10.667 21.333 27.834 39.333 51.501 54s51.167 22 82.5 22c47.333 0 88.166 -19.333 122.499 -58s51.5 -85 51.5 -139v-248
c0 -10.667 -5.16699 -19.167 -15.5 -25.5s-22.833 -9.5 -37.5 -9.5c-13.333 0 -25.333 3.16699 -36 9.5s-16 14.833 -16 25.5v248c0 26.667 -10 50.667 -30 72s-43.667 32 -71 32c-25.333 0 -47.666 -9.5 -66.999 -28.5s-29 -44.167 -29 -75.5v-248
c0 -8.66699 -5.33301 -16.667 -16 -24s-23 -11 -37 -11c-14.667 0 -27 3.66699 -37 11s-15 15.333 -15 24z" />
    <glyph glyph-name="o" unicode="o" horiz-adv-x="487" 
d="M36 191v92c0 52.667 20.333 98.667 61 138s89.334 59 146.001 59c55.333 0 103.666 -19.5 144.999 -58.5s62 -85.167 62 -138.5v-92c0 -52 -20.833 -98.167 -62.5 -138.5s-89.834 -60.5 -144.501 -60.5c-55.333 0 -103.666 20 -144.999 60s-62 86.333 -62 139zM141 191
c0 -27.333 10 -51.833 30 -73.5s44 -32.5 72 -32.5c27.333 0 51.166 10.833 71.499 32.5s30.5 46.167 30.5 73.5v92c0 26.667 -10.167 50.667 -30.5 72s-44.166 32 -71.499 32c-28 0 -52 -10.667 -72 -32s-30 -45.333 -30 -72v-92z" />
    <glyph glyph-name="p" unicode="p" horiz-adv-x="506" 
d="M56 -190l0.00195312 630.001c0 10 4.83301 18.167 14.5 24.5s21.5 9.5 35.5 9.5s25.667 -3.16699 35 -9.5s14 -14.5 14 -24.5v-36c12 21.333 29.833 39.333 53.5 54s50.5 22 80.5 22c50 0 92.5 -19.333 127.5 -58s52.5 -85 52.5 -139v-92
c0 -52 -17.667 -98.167 -53 -138.5s-76.333 -60.5 -123 -60.5c-28.667 0 -55.167 7.66699 -79.5 23s-41.833 33.666 -52.5 54.999v-260c0 -9.33301 -5.33301 -17.5 -16 -24.5s-23.334 -10.5 -38.001 -10.5s-26.834 3.5 -36.501 10.5s-14.5 15.167 -14.5 24.5z
M161.002 168.001c0 -14.667 10.166 -32.167 30.499 -52.5s43.833 -30.5 70.5 -30.5s50.334 10.833 71.001 32.5s31 46.167 31 73.5v92c0 26.667 -10.333 50.667 -31 72s-45 32 -73 32c-26 0 -49 -9.5 -69 -28.5s-30 -44.167 -30 -75.5v-115z" />
    <glyph glyph-name="q" unicode="q" horiz-adv-x="507" 
d="M37 191l-0.000976562 91.999c0 54 17.5 100.333 52.5 139s77.5 58 127.5 58c30.667 0 57.667 -7.33301 81 -22s41 -32.667 53 -54v36c0 10 4.66699 18.167 14 24.5s21 9.5 35 9.5s26 -3.16699 36 -9.5s15 -14.5 15 -24.5v-630c0 -9.33301 -5 -17.5 -15 -24.5
s-22.333 -10.5 -37 -10.5s-27.167 3.5 -37.5 10.5s-15.5 15.167 -15.5 24.5v260c-11.333 -21.333 -29.166 -39.666 -53.499 -54.999s-50.833 -23 -79.5 -23c-46.667 0 -87.667 20.167 -123 60.5s-53 86.5 -53 138.5zM141.999 190.999
c0 -27.333 10.3311 -51.833 30.998 -73.5s44.334 -32.5 71.001 -32.5s50.334 10.167 71.001 30.5s31 37.833 31 52.5v115c0 30.667 -10.167 55.667 -30.5 75s-43.5 29 -69.5 29c-28 0 -52.333 -10.667 -73 -32s-31 -45.333 -31 -72v-92z" />
    <glyph glyph-name="r" unicode="r" horiz-adv-x="360" 
d="M55 35l0.00195312 405c0 10 4.83301 18.167 14.5 24.5s21.834 9.5 36.501 9.5c13.333 0 24.666 -3.16699 33.999 -9.5s14 -14.5 14 -24.5v-44c11.333 23.333 28.5 43.166 51.5 59.499s48.167 24.5 75.5 24.5h32c10.667 0 20 -4.5 28 -13.5s12 -19.833 12 -32.5
s-4 -23.667 -12 -33s-17.333 -14 -28 -14h-32c-32 0 -60.167 -13.667 -84.5 -41s-36.5 -62.666 -36.5 -105.999v-205c0 -8.66699 -5.33301 -16.667 -16 -24s-23.334 -11 -38.001 -11s-26.834 3.66699 -36.501 11s-14.5 15.333 -14.5 24z" />
    <glyph glyph-name="s" unicode="s" horiz-adv-x="404" 
d="M27 72c0 10 3.5 20.333 10.5 31s15.5 16 25.5 16c6 0 14.333 -3.83301 25 -11.5s25 -15.334 43 -23.001s39.667 -11.5 65 -11.5c56.667 0 85 18 85 54c0 19.333 -8.33301 34.5 -25 45.5s-36.834 19.667 -60.501 26s-47.167 13.5 -70.5 21.5s-43.333 21.667 -60 41
s-25 44.333 -25 75c0 39.333 14 73.166 42 101.499s71 42.5 129 42.5c38 0 72.5 -5.83301 103.5 -17.5s46.5 -25.5 46.5 -41.5c0 -9.33301 -3.83301 -20.166 -11.5 -32.499s-17.167 -18.5 -28.5 -18.5c-4 0 -17.667 4.83301 -41 14.5s-45.666 14.5 -66.999 14.5
c-26.667 0 -46.834 -6 -60.501 -18s-20.5 -25.333 -20.5 -40c0 -16 8.33301 -28.667 25 -38s37 -17 61 -23s47.833 -13.333 71.5 -22s43.834 -23.667 60.501 -45s25 -48.666 25 -81.999c0 -43.333 -15.333 -77.333 -46 -102s-74 -37 -130 -37
c-47.333 0 -87.833 8.33301 -121.5 25s-50.5 35 -50.5 55z" />
    <glyph glyph-name="t" unicode="t" horiz-adv-x="329" 
d="M54 156v501.004c0 9.33301 5.33301 17.333 16 24s22.667 10 36 10s25.5 -3.33301 36.5 -10s16.5 -14.667 16.5 -24v-183h122c8.66699 0 15.667 -3.83301 21 -11.5s8 -16.834 8 -27.501s-2.66699 -19.834 -8 -27.501s-12.333 -11.5 -21 -11.5h-122v-240
c0 -24 5.16699 -41 15.5 -51s28.5 -15 54.5 -15h35c14 0 25 -4.33301 33 -13s12 -19.334 12 -32.001s-4 -23.334 -12 -32.001s-19 -13 -33 -13h-35c-116.667 0 -175 52 -175 156z" />
    <glyph glyph-name="u" unicode="u" horiz-adv-x="515" 
d="M51 189v250c0 9.33301 5.33301 17.5 16 24.5s23 10.5 37 10.5s26.167 -3.5 36.5 -10.5s15.5 -15.167 15.5 -24.5v-250c0 -26.667 10.167 -50.667 30.5 -72s44.166 -32 71.499 -32c28 0 52 10.5 72 31.5s30 45.167 30 72.5v251c0 9.33301 5.16699 17.333 15.5 24
s22.833 10 37.5 10s26.834 -3.33301 36.501 -10s14.5 -14.667 14.5 -24v-251c0 -52.667 -20.333 -98.667 -61 -138s-89 -59 -145 -59s-104.5 19.667 -145.5 59s-61.5 85.333 -61.5 138z" />
    <glyph glyph-name="v" unicode="v" horiz-adv-x="459" 
d="M9 433c0 12 7.66602 22.499 22.999 31.499s30.666 13.5 45.999 13.5c16.667 0 27.334 -6.33301 32.001 -19l119 -316l119 314c5.33301 14 16 21 32 21c12.667 0 27.334 -4.66699 44.001 -14s25 -19.666 25 -30.999c0 -4.66699 -1.33301 -10.334 -4 -17.001l-168 -405
c-6 -14 -22 -21 -48 -21s-42 7 -48 21l-167 405c-3.33301 6.66699 -5 12.334 -5 17.001z" />
    <glyph glyph-name="w" unicode="w" horiz-adv-x="684" 
d="M10 434c0 12 7.33203 22.333 21.999 31s29.667 13 45 13c16.667 0 27.334 -6.33301 32.001 -19l111 -311l85 276c4.66699 15.333 17 23 37 23s32.333 -7.66699 37 -23l84 -278l112 313c4 12.667 14.333 19 31 19c14.667 0 29.5 -4.33301 44.5 -13
s22.5 -19.334 22.5 -32.001c0 -5.33301 -1.33301 -10.666 -4 -15.999l-155 -406c-5.33301 -14 -19.333 -21 -42 -21s-37 6.66699 -43 20l-87 258l-86 -255c-6 -15.333 -21 -23 -45 -23c-22 0 -36 7.66699 -42 23l-155 404c-2.66699 8 -4 13.667 -4 17z" />
    <glyph glyph-name="x" unicode="x" horiz-adv-x="444" 
d="M20 44c0 6.66699 2.33301 13 7 19l124 178l-118 168c-4.66699 6 -7 12 -7 18c0 12 7.83301 23.833 23.5 35.5s30.834 17.5 45.501 17.5c12 0 20.333 -4 25 -12l102 -160l102 159c5.33301 8.66699 14 13 26 13c13.333 0 28 -5.83301 44 -17.5s24 -23.5 24 -35.5
c0 -5.33301 -2.33301 -11.333 -7 -18l-119 -169l125 -177c4.66699 -6 7 -12.333 7 -19c0 -11.333 -7.66699 -22.833 -23 -34.5s-30 -17.5 -44 -17.5c-12.667 0 -21.667 4 -27 12l-108 165l-108 -165c-6 -8 -15.333 -12 -28 -12s-26.834 5.66699 -42.501 17
s-23.5 23 -23.5 35z" />
    <glyph glyph-name="y" unicode="y" horiz-adv-x="457" 
d="M10 -180c0 30 9.66602 45 28.999 45c30 0 59.667 14.333 89 43s47.333 69 54 121l-168 388c-2.66699 3.33301 -4 8 -4 14c0 12.667 7.66699 24.167 23 34.5s30.666 15.5 45.999 15.5c16.667 0 27.334 -6.33301 32.001 -19l126 -325l108 325c6 12.667 16 19 30 19
s29.167 -5.16699 45.5 -15.5s24.5 -22.5 24.5 -36.5c0 -6 -0.666992 -10 -2 -12l-148 -391l-17 -45l-18.5 -43c-8.33301 -19.333 -15.5 -34 -21.5 -44l-24 -37c-10 -15.333 -20 -26.833 -30 -34.5s-21.333 -15.667 -34 -24s-26.667 -14.333 -42 -18
s-31.666 -5.5 -48.999 -5.5c-32.667 0 -49 15 -49 45z" />
    <glyph glyph-name="z" unicode="z" horiz-adv-x="425" 
d="M23 38c0 11.333 6.00098 25.333 18.001 42l214 307h-190c-8.66699 0 -16.334 4.33301 -23.001 13s-10 19 -10 31s3 22.167 9 30.5s14 12.5 24 12.5h289c10 0 18.5 -3.16699 25.5 -9.5s10.5 -15.5 10.5 -27.5c0 -14 -5.33301 -28.333 -16 -43l-215 -307h212
c9.33301 0 17.333 -4.16699 24 -12.5s10 -18.833 10 -31.5c0 -12 -3.16699 -22.167 -9.5 -30.5s-14.5 -12.5 -24.5 -12.5h-311c-12 -0 -21.167 3.83301 -27.5 11.5s-9.5 16.5 -9.5 26.5z" />
    <glyph glyph-name="braceleft" unicode="{" horiz-adv-x="343" 
d="M25 386c0 12 3.16797 21.1689 9.50098 27.502s13.166 10 20.499 11s14.166 3.33301 20.499 7s9.5 9.5 9.5 17.5c0 6 -3 29.667 -9 71s-9 67.666 -9 78.999c0 44 20.667 83.167 62 117.5s87.666 51.5 138.999 51.5c20 0 34.667 -4.5 44 -13.5s14 -20.167 14 -33.5
c0 -11.333 -3.16699 -21.5 -9.5 -30.5s-14.833 -13.5 -25.5 -13.5c-28.667 0 -55.5 -8.5 -80.5 -25.5s-37.5 -39.167 -37.5 -66.5c0 -9.33301 3 -34.5 9 -75.5s9 -64.833 9 -71.5c0 -12 -4.16699 -23.333 -12.5 -34s-16.166 -17.334 -23.499 -20.001
c7.33301 -2 15.166 -8.16699 23.499 -18.5s12.5 -21.833 12.5 -34.5c0 -8 -3 -38 -9 -90s-9 -82.667 -9 -92c0 -19.333 7.5 -35.166 22.5 -47.499s30.667 -20.5 47 -24.5s32.5 -6 48.5 -6c12 0 20.833 -4.83301 26.5 -14.5s8.5 -19.834 8.5 -30.501
c0 -30.667 -19.667 -46 -59 -46c-52.667 0 -99.167 15 -139.5 45s-60.5 67.667 -60.5 113c0 12.667 3 44.667 9 96s9 80 9 86c0 8 -3.16699 14.167 -9.5 18.5s-13.166 7 -20.499 8s-14.166 4.66699 -20.499 11s-9.5 15.833 -9.5 28.5z" />
    <glyph glyph-name="bar" unicode="|" horiz-adv-x="226" 
d="M60 14v720c0 10 5 18.167 15 24.5s22.667 9.5 38 9.5c14.667 0 27.167 -3.16699 37.5 -9.5s15.5 -14.5 15.5 -24.5v-720c0 -9.33301 -5.33301 -17.5 -16 -24.5s-23 -10.5 -37 -10.5c-15.333 0 -28 3.5 -38 10.5s-15 15.167 -15 24.5z" />
    <glyph glyph-name="braceright" unicode="}" horiz-adv-x="343" 
d="M17 26c0 10.667 2.83398 20.832 8.50098 30.499s14.5 14.5 26.5 14.5c16 0 32.167 2 48.5 6s32 12.167 47 24.5s22.5 28.166 22.5 47.499c0 9.33301 -3 40 -9 92s-9 82 -9 90c0 12.667 4.16699 24.167 12.5 34.5s16.166 16.5 23.499 18.5
c-7.33301 2.66699 -15.166 9.33398 -23.499 20.001s-12.5 22 -12.5 34c0 6.66699 3 30.5 9 71.5s9 66.167 9 75.5c0 27.333 -12.5 49.5 -37.5 66.5s-51.833 25.5 -80.5 25.5c-10.667 0 -19.167 4.5 -25.5 13.5s-9.5 19.167 -9.5 30.5c0 13.333 4.66699 24.5 14 33.5
s24 13.5 44 13.5c51.333 0 97.666 -17.167 138.999 -51.5s62 -73.5 62 -117.5c0 -11.333 -3 -37.666 -9 -78.999s-9 -65 -9 -71c0 -8 3.16699 -13.833 9.5 -17.5s13.166 -6 20.499 -7s14.166 -4.66699 20.499 -11s9.5 -15.5 9.5 -27.5
c0 -12.667 -3.16699 -22.167 -9.5 -28.5s-13.166 -10 -20.499 -11s-14.166 -3.66699 -20.499 -8s-9.5 -10.5 -9.5 -18.5c0 -6 3 -34.667 9 -86s9 -83.333 9 -96c0 -45.333 -20.167 -83 -60.5 -113s-86.833 -45 -139.5 -45c-39.333 0 -59 15.333 -59 46z" />
    <glyph glyph-name="asciitilde" unicode="~" horiz-adv-x="408" 
d="M39 245c0 22.667 9.66699 39.001 29 49.001s38.666 15 57.999 15c18.667 0 41.834 -5.16699 69.501 -15.5s50.5 -15.5 68.5 -15.5c16 0 31.667 4.16699 47 12.5s25.333 12.5 30 12.5c9.33301 0 16.333 -4 21 -12s7 -15.333 7 -22c0 -24 -9.33301 -40.667 -28 -50
s-37.667 -14 -57 -14c-21.333 0 -45.666 5.16699 -72.999 15.5s-49.333 15.5 -66 15.5c-16 0 -31.833 -4.5 -47.5 -13.5s-25.834 -13.5 -30.501 -13.5c-9.33301 0 -16.333 4.16699 -21 12.5s-7 16.166 -7 23.499z" />
    <glyph glyph-name="uni00A0" unicode="&#xa0;" horiz-adv-x="200" 
 />
    <glyph glyph-name="exclamdown" unicode="&#xa1;" horiz-adv-x="210" 
d="M45 678c0 16 5.83301 30 17.5 42s25.5 18 41.5 18c16.667 0 30.834 -6 42.501 -18s17.5 -26 17.5 -42c0 -16.667 -5.83301 -30.834 -17.5 -42.501s-25.834 -17.5 -42.501 -17.5c-16 0 -29.833 5.83301 -41.5 17.5s-17.5 25.834 -17.5 42.501zM52 42
c0 48.667 2.16699 127.165 6.5 235.498s6.5 186.5 6.5 234.5c0 10 4.16699 17.833 12.5 23.5s17.5 8.5 27.5 8.5c11.333 0 21 -2.66699 29 -8s12 -13.333 12 -24c0 -48 2 -126.167 6 -234.5s6 -186.833 6 -235.5c0 -15.333 -5 -27.166 -15 -35.499s-22.667 -12.5 -38 -12.5
s-28 4.33301 -38 13s-15 20.334 -15 35.001z" />
    <glyph glyph-name="cent" unicode="&#xa2;" horiz-adv-x="423" 
d="M27 359v18.998c0 54 14.333 98.833 43 134.5s71.667 56.834 129 63.501v88c0 8.66699 3.16699 16 9.5 22s14.166 9 23.499 9c8.66699 0 16.334 -3 23.001 -9s10 -13.333 10 -22v-89c35.333 -3.33301 65 -11.666 89 -24.999s36 -28.333 36 -45
c0 -11.333 -4.16699 -22.333 -12.5 -33s-18.5 -16 -30.5 -16c-3.33301 0 -13 4.5 -29 13.5s-33.667 14.5 -53 16.5v-234c18.667 2 36 7.83301 52 17.5s26 14.5 30 14.5c13.333 0 24.333 -5.16699 33 -15.5s13 -21.5 13 -33.5c0 -16 -12.667 -31.167 -38 -45.5
s-55.333 -23.5 -90 -27.5v-91c0 -8 -3.33301 -15.333 -10 -22s-14.334 -10 -23.001 -10c-9.33301 0 -17.166 3.33301 -23.499 10s-9.5 14 -9.5 22v91c-57.333 6 -100.333 26.833 -129 62.5s-43 80.5 -43 134.5zM120 358.998c0 -59.333 26.333 -95 79 -107v234
c-52.667 -12.667 -79 -48.667 -79 -108v-19z" />
    <glyph glyph-name="sterling" unicode="&#xa3;" horiz-adv-x="521" 
d="M22 47c0 12.667 2.99805 23.666 8.99805 32.999s14.333 14 25 14h56l37 272h-63c-9.33301 0 -16.5 3.83301 -21.5 11.5s-7.5 17.167 -7.5 28.5c0 10 2.66699 19 8 27s12.333 12 21 12h75l17 119c8.66699 58 36.334 106.5 83.001 145.5s99.334 58.5 158.001 58.5h30
c11.333 0 20.333 -4.66699 27 -14s10 -20.333 10 -33c0 -12 -3.33301 -22.667 -10 -32s-15.667 -14 -27 -14h-35c-36 0 -65.667 -10.667 -89 -32s-37.333 -47.666 -42 -78.999l-17 -119h130c8.66699 0 15.667 -4 21 -12s8 -17 8 -27c0 -10.667 -2.5 -20 -7.5 -28
s-12.167 -12 -21.5 -12h-142l-38 -272h237c10.667 0 18.834 -4.66699 24.501 -14s8.5 -20.333 8.5 -33s-2.83301 -23.667 -8.5 -33s-13.834 -14 -24.501 -14h-397c-10.667 0 -19 4.66699 -25 14s-9 20.333 -9 33z" />
    <glyph glyph-name="currency" unicode="&#xa4;" horiz-adv-x="461" 
d="M53 327c0 4.66699 1.99902 8.99805 5.99902 12.998l29 28c-22.667 30.667 -34 65.334 -34 104.001s11.333 73.334 34 104.001l-26 25c-4 4 -6 8.33301 -6 13c0 6.66699 2.5 12.5 7.5 17.5s10.833 7.5 17.5 7.5c5.33301 0 10 -1.66699 14 -5l24 -24
c32 28 69.333 42 112 42c39.333 0 75.666 -13 108.999 -39l26 24c3.33301 3.33301 8 5 14 5c6.66699 0 12.5 -2.66699 17.5 -8s7.5 -11 7.5 -17c0 -4.66699 -2 -9 -6 -13l-27 -26c24.667 -31.333 37 -66.333 37 -105c0 -39.333 -12.333 -75 -37 -107l27 -26
c4 -4 6 -8.33301 6 -13c0 -6 -2.5 -11.667 -7.5 -17s-10.833 -8 -17.5 -8c-5.33301 0 -9.66602 1.66699 -12.999 5l-27 24c-32.667 -27.333 -69 -41 -109 -41c-42 0 -79.333 14.333 -112 43l-28 -26c-3.33301 -3.33301 -7.66602 -5 -12.999 -5
c-6.66699 0 -12.5 2.66699 -17.5 8s-7.5 11 -7.5 17zM115.999 471.998c0 -31.333 11.333 -58.999 34 -82.999s49.667 -36 81 -36s58.5 12 81.5 36s34.5 51.333 34.5 82s-11.333 58 -34 82s-50 36 -82 36c-31.333 0 -58.333 -11.833 -81 -35.5s-34 -50.834 -34 -81.501z" />
    <glyph glyph-name="yen" unicode="&#xa5;" horiz-adv-x="541" 
d="M22 691c0 10.667 6.83105 20.6689 20.498 30.002s27.5 14 41.5 14c12.667 0 23.334 -8.33301 32.001 -25l153 -291l156 291c8.66699 16.667 19.334 25 32.001 25c14 0 27.667 -4.66699 41 -14s20 -19.333 20 -30c0 -5.33301 -1 -10 -3 -14l-170 -290h79
c9.33301 0 17.666 -3.83301 24.999 -11.5s11 -16.834 11 -27.501s-3.66699 -19.667 -11 -27s-15.666 -11 -24.999 -11h-103v-68h103c9.33301 0 17.666 -3.83301 24.999 -11.5s11 -16.5 11 -26.5c0 -11.333 -3.66699 -20.5 -11 -27.5s-15.666 -10.5 -24.999 -10.5h-103v-131
c0 -10.667 -5.16699 -19.167 -15.5 -25.5s-22.5 -9.5 -36.5 -9.5s-26.333 3.16699 -37 9.5s-16 14.833 -16 25.5v131h-99c-10.667 0 -19.167 3.33301 -25.5 10s-9.5 15.667 -9.5 27s3.16699 20.666 9.5 27.999s14.833 11 25.5 11h99v68h-99
c-10.667 0 -19.167 3.33301 -25.5 10s-9.5 15.667 -9.5 27s3.16699 20.833 9.5 28.5s14.833 11.5 25.5 11.5h75l-166 290c-2.66699 3.33301 -4 8 -4 14z" />
    <glyph glyph-name="brokenbar" unicode="&#xa6;" horiz-adv-x="225" 
d="M60 14v258c0 10 5 18.333 15 25s22.333 10 37 10s27.167 -3.33301 37.5 -10s15.5 -15 15.5 -25v-258c0 -9.33301 -5.33301 -17.5 -16 -24.5s-23 -10.5 -37 -10.5c-14.667 0 -27 3.5 -37 10.5s-15 15.167 -15 24.5zM60 475v259c0 10 4.83301 18.167 14.5 24.5
s22.167 9.5 37.5 9.5c14.667 0 27.167 -3.16699 37.5 -9.5s15.5 -14.5 15.5 -24.5v-259c0 -8.66699 -5.33301 -16.667 -16 -24s-23 -11 -37 -11c-14.667 0 -27 3.66699 -37 11s-15 15.333 -15 24z" />
    <glyph glyph-name="section" unicode="&#xa7;" horiz-adv-x="472" 
d="M43 99c0 28.667 15.332 42.998 45.999 42.998c30 0 45 -10.333 45 -31c0 -23.333 6.66699 -44.166 20 -62.499s37.333 -27.5 72 -27.5c32 0 56.333 8 73 24s25 38 25 66c0 24.667 -9.33301 45 -28 61s-41.5 29 -68.5 39s-54 21.667 -81 35s-49.833 34.166 -68.5 62.499
s-28 64.166 -28 107.499v114c0 38.667 5.83301 71.834 17.5 99.501s27.334 48.5 47.001 62.5s39.5 24 59.5 30s41 9 63 9c55.333 0 98.166 -16 128.499 -48s45.5 -70.667 45.5 -116c0 -29.333 -13.667 -44 -41 -44c-30.667 0 -46 12.667 -46 38
c0 21.333 -6.33301 40.5 -19 57.5s-34 25.5 -64 25.5c-28 0 -50.5 -8 -67.5 -24s-25.5 -39.333 -25.5 -70c0 -24.667 9.66699 -45 29 -61s42.833 -29 70.5 -39s55.334 -21.667 83.001 -35s51.167 -34.166 70.5 -62.499s29 -64.166 29 -107.499v-113
c0 -70 -19.167 -120.833 -57.5 -152.5s-84.833 -47.5 -139.5 -47.5c-58 0 -104.167 16.667 -138.5 50s-51.5 72.333 -51.5 117zM138.999 397.998c0 -27.333 8 -50 24 -68s34.167 -30.5 54.5 -37.5s43.166 -15.833 68.499 -26.5s44 -22 56 -34v24c0 27.333 -8 50 -24 68
s-34.167 30.5 -54.5 37.5s-43.166 15.833 -68.499 26.5s-44 22 -56 34v-24z" />
    <glyph glyph-name="dieresis" unicode="&#xa8;" horiz-adv-x="230" 
d="M0 630c0 12.667 4.5 23.5 13.5 32.5s19.833 13.5 32.5 13.5s23.167 -4.5 31.5 -13.5s12.5 -19.833 12.5 -32.5s-4.33301 -23.667 -13 -33s-19 -14 -31 -14c-12.667 0 -23.5 4.66699 -32.5 14s-13.5 20.333 -13.5 33zM140 630c0 12.667 4.33301 23.5 13 32.5
s19.334 13.5 32.001 13.5s23.334 -4.5 32.001 -13.5s13 -19.833 13 -32.5s-4.33301 -23.667 -13 -33s-19.334 -14 -32.001 -14s-23.334 4.66699 -32.001 14s-13 20.333 -13 33z" />
    <glyph glyph-name="copyright" unicode="&#xa9;" horiz-adv-x="702" 
d="M44 358c0 53.333 9.5 101.5 28.5 144.5s43.833 77.333 74.5 103s63.834 45.334 99.501 59.001s71.5 20.5 107.5 20.5s71.667 -6.83301 107 -20.5s67.833 -33.334 97.5 -59.001s53.667 -59.667 72 -102s27.5 -89.5 27.5 -141.5c0 -53.333 -9.5 -101.5 -28.5 -144.5
s-43.833 -77.333 -74.5 -103s-63.834 -45.334 -99.501 -59.001s-71.5 -20.5 -107.5 -20.5s-71.667 6.83301 -107 20.5s-67.833 33.334 -97.5 59.001s-53.667 59.667 -72 102s-27.5 89.5 -27.5 141.5zM99 358c0 -78.667 22.833 -143 68.5 -193s105.834 -75 180.501 -75
c75.333 0 136.666 25.167 183.999 75.5s71 115.833 71 196.5c0 78.667 -22.833 143 -68.5 193s-105.834 75 -180.501 75c-75.333 0 -136.666 -25.167 -183.999 -75.5s-71 -115.833 -71 -196.5zM238 294l0.000976562 145.998c0 42.667 10.5 74 31.5 94s48.5 30 82.5 30
c34.667 0 62.834 -9.33301 84.501 -28s32.5 -43.334 32.5 -74.001c0 -12.667 -2.33301 -21.167 -7 -25.5s-12.667 -6.5 -24 -6.5c-20.667 0 -31.334 7 -32.001 21c-2 38 -19.333 57 -52 57c-36 0 -54 -22.667 -54 -68v-146c0 -45.333 18.333 -68 55 -68
c10.667 0 19.667 1.83301 27 5.5s12.5 9.33398 15.5 17.001s5 13.834 6 18.501s1.83301 11.334 2.5 20.001c0.666992 14 11 21 31 21c11.333 0 19.5 -2.33301 24.5 -7s7.5 -13.334 7.5 -26.001c0 -31.333 -10.833 -56.666 -32.5 -75.999s-49.834 -29 -84.501 -29
c-34 0 -61.5 10 -82.5 30s-31.5 51.333 -31.5 94z" />
    <glyph glyph-name="ordfeminine" unicode="&#xaa;" horiz-adv-x="326" 
d="M29 519c0 34.667 13.1699 59 39.5029 73s64.166 21 113.499 21h28v11c0 18.667 -5 34.667 -15 48s-25.667 20 -47 20c-19.333 0 -36 -3.33301 -50 -10s-22 -10 -24 -10c-8 0 -14.333 3.83301 -19 11.5s-7 16.167 -7 25.5c0 11.333 11 21.5 33 30.5s44.667 13.5 68 13.5
c46 0 79.833 -12.333 101.5 -37s32.5 -55.334 32.5 -92.001v-162c0 -6.66699 -3.33301 -12.5 -10 -17.5s-15.334 -7.5 -26.001 -7.5c-8.66699 0 -16.167 2.5 -22.5 7.5s-9.5 10.833 -9.5 17.5v21c-24.667 -27.333 -51 -43.333 -79 -48c-6 -1.33301 -15.667 -2 -29 -2
c-22.667 1.33301 -41.334 9.33301 -56.001 24s-22 35.334 -22 62.001zM103.003 528c0 -26.667 13.333 -40 40 -40c16 0 31.167 6.66699 45.5 20s21.5 28 21.5 44v21h-23c-56 0 -84 -15 -84 -45z" />
    <glyph glyph-name="guillemotleft" unicode="&#xab;" horiz-adv-x="465" 
d="M28 276c0 7.33301 6 21.334 18 42.001l79 148c5.33301 9.33301 16 14 32 14s30.5 -5.66699 43.5 -17s19.5 -23 19.5 -35c0 -4 -1 -8 -3 -12l-74 -139l74 -139c2 -2.66699 3 -6.33398 3 -11.001c0 -12 -6.5 -23.833 -19.5 -35.5s-27.833 -17.5 -44.5 -17.5
c-16 0 -26.333 5 -31 15l-79 147c-12 20.667 -18 34 -18 40zM234 276.001c0 6 6.33203 20.001 18.999 42.001l79 148c4 9.33301 14.333 14 31 14c16 0 30.667 -5.83301 44 -17.5s20 -23.167 20 -34.5c0 -4 -1 -8 -3 -12l-74 -139l74 -139c2 -2.66699 3 -6.33398 3 -11.001
c0 -12 -6.66699 -23.833 -20 -35.5s-28.333 -17.5 -45 -17.5c-14.667 0 -24.667 5 -30 15l-79 147l-7 12c-3.33301 4.66699 -5.66602 8.16699 -6.99902 10.5s-2.5 5 -3.5 8s-1.5 6.16699 -1.5 9.5z" />
    <glyph glyph-name="logicalnot" unicode="&#xac;" horiz-adv-x="491" 
d="M38 240c0 12.667 3.16797 23.333 9.50098 32s14.5 13 24.5 13h328c9.33301 0 17.666 -4.5 24.999 -13.5s11 -19.5 11 -31.5v-142c0 -9.33301 -5.16699 -17.5 -15.5 -24.5s-22.833 -10.5 -37.5 -10.5s-27 3.5 -37 10.5s-15 15.167 -15 24.5v98h-259
c-10 0 -18.167 4.16699 -24.5 12.5s-9.5 18.833 -9.5 31.5z" />
    <glyph glyph-name="uni00AD" unicode="&#xad;" horiz-adv-x="472" 
d="M41 240c0 12.667 3.16699 23.333 9.5 32s14.5 13 24.5 13h320c9.33301 0 17.666 -4.5 24.999 -13.5s11 -19.5 11 -31.5c0 -12.667 -3.66699 -23.167 -11 -31.5s-15.666 -12.5 -24.999 -12.5h-320c-10 0 -18.167 4.16699 -24.5 12.5s-9.5 18.833 -9.5 31.5z" />
    <glyph glyph-name="registered" unicode="&#xae;" horiz-adv-x="702" 
d="M44 358c0 53.333 9.5 101.5 28.5 144.5s43.833 77.333 74.5 103s63.834 45.334 99.501 59.001s71.5 20.5 107.5 20.5s71.667 -6.83301 107 -20.5s67.833 -33.334 97.5 -59.001s53.667 -59.667 72 -102s27.5 -89.5 27.5 -141.5c0 -53.333 -9.5 -101.5 -28.5 -144.5
s-43.833 -77.333 -74.5 -103s-63.834 -45.334 -99.501 -59.001s-71.5 -20.5 -107.5 -20.5s-71.667 6.83301 -107 20.5s-67.833 33.334 -97.5 59.001s-53.667 59.667 -72 102s-27.5 89.5 -27.5 141.5zM99 358c0 -78.667 22.833 -143 68.5 -193s105.834 -75 180.501 -75
c75.333 0 136.666 25.167 183.999 75.5s71 115.833 71 196.5c0 78.667 -22.833 143 -68.5 193s-105.834 75 -180.501 75c-75.333 0 -136.666 -25.167 -183.999 -75.5s-71 -115.833 -71 -196.5zM249 198v335.998c0 5.33301 1.83301 10 5.5 14s8.5 6 14.5 6h93
c76 0 114 -35.667 114 -107c0 -55.333 -22 -89.666 -66 -102.999l63 -130c0.666992 -1.33301 1 -3.66602 1 -6.99902c0 -8 -3.33301 -15.167 -10 -21.5s-14 -9.5 -22 -9.5s-15 5.66699 -21 17l-67 141h-46v-136c0 -14 -9.66699 -21 -29 -21c-20 0 -30 7 -30 21zM308 384.998
h54c36.667 0 55 18.667 55 56c0 40 -18.333 60 -55 60h-54v-116z" />
    <glyph glyph-name="macron" unicode="&#xaf;" horiz-adv-x="278" 
d="M0 655c0 10.667 3.16699 19.5 9.5 26.5s14.5 10.5 24.5 10.5h209c9.33301 0 17.5 -3.66699 24.5 -11s10.5 -16 10.5 -26s-3.5 -18.333 -10.5 -25s-15.167 -10 -24.5 -10h-209c-10 0 -18.167 3.16699 -24.5 9.5s-9.5 14.833 -9.5 25.5z" />
    <glyph glyph-name="degree" unicode="&#xb0;" horiz-adv-x="407" 
d="M26 588c0 48 17.499 90.001 52.499 126.001s76.5 54 124.5 54c47.333 0 88.833 -17.667 124.5 -53s53.5 -77.333 53.5 -126s-17.833 -91.334 -53.5 -128.001s-77.167 -55 -124.5 -55s-88.666 18.333 -123.999 55s-53 79 -53 127zM87.999 588.001
c0 -31.333 11.333 -58.999 34 -82.999s49.667 -36 81 -36s58.5 12 81.5 36s34.5 51.333 34.5 82s-11.333 58 -34 82s-50 36 -82 36c-31.333 0 -58.333 -11.833 -81 -35.5s-34 -50.834 -34 -81.501z" />
    <glyph glyph-name="plusminus" unicode="&#xb1;" horiz-adv-x="469" 
d="M40 85c0 12.667 3.16699 23.333 9.5 32s14.5 13 24.5 13h320c9.33301 0 17.5 -4.5 24.5 -13.5s10.5 -19.5 10.5 -31.5c0 -12.667 -3.5 -23.167 -10.5 -31.5s-15.167 -12.5 -24.5 -12.5h-320c-10 0 -18.167 4.16699 -24.5 12.5s-9.5 18.833 -9.5 31.5zM40 361.999
c0 13.333 3.16797 24.168 9.50098 32.501s14.5 12.5 24.5 12.5h116v110c0 8.66699 4.5 16.667 13.5 24s19.5 11 31.5 11c12.667 0 23.167 -3.66699 31.5 -11s12.5 -15.333 12.5 -24v-110h115c9.33301 0 17.5 -4.33301 24.5 -13s10.5 -19.334 10.5 -32.001
s-3.5 -23 -10.5 -31s-15.167 -12 -24.5 -12h-115v-111c0 -10 -4.16699 -18.167 -12.5 -24.5s-18.833 -9.5 -31.5 -9.5s-23.334 3.16699 -32.001 9.5s-13 14.5 -13 24.5v111h-116c-10 0 -18.167 4 -24.5 12s-9.5 18.333 -9.5 31z" />
    <glyph glyph-name="uni00B2" unicode="&#xb2;" horiz-adv-x="317" 
d="M28 363l-0.00195312 51.9971c0 18.667 9.83301 37.667 29.5 57s41.167 35.833 64.5 49.5s44.833 29.334 64.5 47.001s29.5 34.834 29.5 51.501c0 12 -4.66699 22.5 -14 31.5s-23.333 13.5 -42 13.5c-35.333 0 -53 -15 -53 -45c0 -6.66699 -3.66699 -12.834 -11 -18.501
s-16.666 -8.5 -27.999 -8.5c-21.333 0 -32 12.667 -32 38c0 30 12.167 54.167 36.5 72.5s53.166 27.5 86.499 27.5c35.333 0 65.833 -10 91.5 -30s38.5 -46.333 38.5 -79c0 -25.333 -9.66699 -49.166 -29 -71.499s-40.666 -40 -63.999 -53s-44.666 -26.667 -63.999 -41
s-29 -27.166 -29 -38.499v-14h164c6 0 11.333 -3.16699 16 -9.5s7 -13.833 7 -22.5c0 -8 -2.33301 -15.333 -7 -22s-10 -10 -16 -10h-207c-7.33301 0 -14.5 2.16699 -21.5 6.5s-10.5 9.83301 -10.5 16.5z" />
    <glyph glyph-name="uni00B3" unicode="&#xb3;" horiz-adv-x="324" 
d="M24 435c0 10.667 2.50098 17.998 7.50098 21.998s13.833 6 26.5 6c14.667 0 24.5 -2 29.5 -6s7.5 -10.333 7.5 -19c0 -24.667 21 -37 63 -37c22.667 0 39.167 4.33301 49.5 13s15.5 22.667 15.5 42v10c0 32.667 -22 49 -66 49c-15.333 0 -23 9.33301 -23 28
s7.66699 28.334 23 29.001c18 0.666992 31.667 4.33398 41 11.001s14 20 14 40c0 30.667 -17.667 46 -53 46c-36 0 -54 -11.667 -54 -35c0 -18 -11.333 -27 -34 -27c-16 0 -26.333 2 -31 6s-7 12 -7 24c0 24 10 45.667 30 65s52 29 96 29c81.333 0 122 -32 122 -96
c0 -45.333 -15.333 -75 -46 -89c40 -14 60 -40.667 60 -80v-10c0 -41.333 -12.667 -71.5 -38 -90.5s-59 -28.5 -101 -28.5c-42.667 0 -75.334 10 -98.001 30s-34 42.667 -34 68z" />
    <glyph glyph-name="acute" unicode="&#xb4;" horiz-adv-x="184" 
d="M0 618c0 12 5 20.667 15 26l124 63c5.33301 1.33301 9 2 11 2c9.33301 0 17.333 -4.33301 24 -13s10 -18 10 -28c0 -13.333 -5.33301 -22.333 -16 -27l-121 -61c-4 -2 -8 -3 -12 -3c-9.33301 0 -17.5 4.33301 -24.5 13s-10.5 18 -10.5 28z" />
    <glyph glyph-name="uni00B5" unicode="&#xb5;" horiz-adv-x="508" 
d="M62 -190v629c0 9.33301 5.33301 17.5 16 24.5s23 10.5 37 10.5s26.167 -3.5 36.5 -10.5s15.5 -15.167 15.5 -24.5v-260c0 -21.333 10.667 -42.333 32 -63s45 -31 71 -31s48.833 10.667 68.5 32s29.5 45.333 29.5 72v250c0 10 5.33301 18.333 16 25s23 10 37 10
c14.667 0 27 -3.33301 37 -10s15 -15 15 -25v-250c0 -53.333 -20 -99.5 -60 -138.5s-88 -58.5 -144 -58.5c-44.667 0 -82.334 16 -113.001 48v-230c0 -9.33301 -4.16699 -17.5 -12.5 -24.5s-18.166 -10.5 -29.499 -10.5c-14.667 0 -27 3.5 -37 10.5s-15 15.167 -15 24.5z
" />
    <glyph glyph-name="paragraph" unicode="&#xb6;" horiz-adv-x="541" 
d="M25 513v12.001c0 71.333 17.833 123.5 53.5 156.5s83.167 49.5 142.5 49.5h218c9.33301 0 17.5 -3.16699 24.5 -9.5s10.5 -14.833 10.5 -25.5v-662c0 -11.333 -3.5 -19.833 -10.5 -25.5s-15.167 -8.5 -24.5 -8.5c-10 0 -18.5 2.83301 -25.5 8.5s-10.5 14.167 -10.5 25.5
v644h-81v-643c0 -10.667 -3.5 -19.167 -10.5 -25.5s-15.167 -9.5 -24.5 -9.5c-10 0 -18.5 3.16699 -25.5 9.5s-10.5 14.833 -10.5 25.5v271h-30c-59.333 0 -106.833 16.667 -142.5 50s-53.5 85.666 -53.5 156.999z" />
    <glyph glyph-name="periodcentered" unicode="&#xb7;" horiz-adv-x="197" 
d="M36 300c0 15.333 6 28.5 18 39.5s27 16.5 45 16.5c16.667 0 31.167 -5.5 43.5 -16.5s18.5 -24.167 18.5 -39.5s-6.16699 -28.666 -18.5 -39.999s-26.833 -17 -43.5 -17c-18 0 -33 5.66699 -45 17s-18 24.666 -18 39.999z" />
    <glyph glyph-name="cedilla" unicode="&#xb8;" horiz-adv-x="181" 
d="M0 -186c0 5.33301 1.83203 11.999 5.49902 19.999s8.5 12 14.5 12c1.33301 0 8 -2.33301 20 -7s24.333 -7 37 -7c33.333 0 50 12 50 36c0 22 -18 34.667 -54 38l-48 5l26 98h51l-18 -64c32 -0.666992 56.167 -8.16699 72.5 -22.5s24.5 -31.833 24.5 -52.5
c0 -21.333 -8.16699 -40.666 -24.5 -57.999s-41.166 -26 -74.499 -26c-18.667 0 -37 2.5 -55 7.5s-27 11.833 -27 20.5z" />
    <glyph glyph-name="uni00B9" unicode="&#xb9;" horiz-adv-x="184" 
d="M11 654c0 12 4.33398 20.667 13.001 26l68 47c4.66699 3.33301 10 5 16 5c8 0 15.333 -2.16699 22 -6.5s10 -9.83301 10 -16.5v-346c0 -15.333 -12 -23 -36 -23c-24.667 0 -37 7.66699 -37 23v282l-19 -15c-4.66699 -2.66699 -9 -4 -13 -4
c-6.66699 0 -12.334 2.83301 -17.001 8.5s-7 12.167 -7 19.5z" />
    <glyph glyph-name="ordmasculine" unicode="&#xba;" horiz-adv-x="339" 
d="M32 563l0.00195312 59c0 35.333 13.333 66 40 92s59 39 97 39c37.333 0 69.666 -12.833 96.999 -38.5s41 -56.5 41 -92.5v-59c0 -34.667 -13.833 -65.167 -41.5 -91.5s-59.834 -39.5 -96.501 -39.5s-68.667 13.167 -96 39.5s-41 56.833 -41 91.5zM105.002 563
c0 -17.333 6.33301 -32.666 19 -45.999s27.667 -20 45 -20s32.333 6.66699 45 20s19 28.666 19 45.999v59c0 16.667 -6.33301 31.667 -19 45s-27.667 20 -45 20s-32.333 -6.66699 -45 -20s-19 -28.333 -19 -45v-59z" />
    <glyph glyph-name="guillemotright" unicode="&#xbb;" horiz-adv-x="465" 
d="M38 127c0 4.66699 1 8.33301 3 11l74 139l-74 139c-2 4 -3 8 -3 12c0 12 6.5 23.667 19.5 35s27.5 17 43.5 17s26.667 -4.66699 32 -14l79 -148c12 -20.667 18 -34.667 18 -42c0 -6 -6 -19.333 -18 -40l-79 -147c-4.66699 -10 -15 -15 -31 -15
c-16.667 0 -31.5 5.83301 -44.5 17.5s-19.5 23.5 -19.5 35.5zM244 126.999c0 4.66699 0.999023 8.33301 2.99902 11l75 139l-75 139c-2 4 -3 8 -3 12c0 11.333 6.66699 22.833 20 34.5s28 17.5 44 17.5s26.667 -4.66699 32 -14l79 -148c12 -22.667 18 -36.667 18 -42
c0 -4 -0.666992 -7.66699 -2 -11s-3.66602 -8.33301 -6.99902 -15l-9 -14l-79 -147c-6 -10 -16.333 -15 -31 -15c-16.667 0 -31.667 5.83301 -45 17.5s-20 23.5 -20 35.5z" />
    <glyph glyph-name="onequarter" unicode="&#xbc;" horiz-adv-x="641" 
d="M27 654c0 12 4.33398 20.667 13.001 26l68 47c4.66699 3.33301 10 5 16 5c8 0 15.333 -2.16699 22 -6.5s10 -9.83301 10 -16.5v-346c0 -15.333 -12 -23 -36 -23c-24.667 0 -37 7.66699 -37 23v282l-19 -15c-4.66699 -2.66699 -9 -4 -13 -4
c-6.66699 0 -12.334 2.83301 -17.001 8.5s-7 12.167 -7 19.5zM74.001 2c0 5.33301 1.33105 10.332 3.99805 14.999l367 735c5.33301 12 15.333 18 30 18c10.667 0 20.334 -3.66699 29.001 -11s13 -16.333 13 -27c0 -5.33301 -1 -10.666 -3 -15.999l-367 -732
c-6 -12.667 -17.333 -19 -34 -19c-11.333 0 -20.666 3.83301 -27.999 11.5s-11 16.167 -11 25.5zM330.999 109.999c0 4.66699 1.33398 9.33203 4.00098 13.999l139 248c6.66699 12.667 17 19 31 19c7.33301 0 15.166 -2.66699 23.499 -8s12.5 -11.666 12.5 -18.999
c0 -4 -1 -7.33301 -3 -10l-114 -202h73v52c0 15.333 12 23 36 23c24.667 0 37 -7.66699 37 -23v-52h27c15.333 0 23 -11.333 23 -34c0 -8 -2.33301 -15.5 -7 -22.5s-10 -10.5 -16 -10.5h-27v-62c0 -15.333 -12.333 -23 -37 -23c-24 0 -36 7.66699 -36 23v62h-141
c-16.667 0 -25 8.33301 -25 25z" />
    <glyph glyph-name="onehalf" unicode="&#xbd;" horiz-adv-x="638" 
d="M24 654c0 12 4.33398 20.667 13.001 26l68 47c4.66699 3.33301 10 5 16 5c8 0 15.333 -2.16699 22 -6.5s10 -9.83301 10 -16.5v-346c0 -15.333 -12 -23 -36 -23c-24.667 0 -37 7.66699 -37 23v282l-19 -15c-4.66699 -2.66699 -9 -4 -13 -4
c-6.66699 0 -12.334 2.83301 -17.001 8.5s-7 12.167 -7 19.5zM55.001 2c0 5.33301 1.33105 10.332 3.99805 14.999l367 735c5.33301 12 15.333 18 30 18c10.667 0 20.334 -3.66699 29.001 -11s13 -16.333 13 -27c0 -5.33301 -1 -10.666 -3 -15.999l-367 -732
c-6.66699 -12.667 -18 -19 -34 -19c-11.333 0 -20.666 3.83301 -27.999 11.5s-11 16.167 -11 25.5zM347.999 22.999l-0.00195312 51.9971c0 18.667 9.83301 37.667 29.5 57s41.167 35.833 64.5 49.5s44.833 29.334 64.5 47.001s29.5 34.834 29.5 51.501
c0 12 -4.66699 22.5 -14 31.5s-23.333 13.5 -42 13.5c-35.333 0 -53 -15 -53 -45c0 -6.66699 -3.66699 -12.834 -11 -18.501s-16.666 -8.5 -27.999 -8.5c-21.333 0 -32 12.667 -32 38c0 30 12.167 54.167 36.5 72.5s53.166 27.5 86.499 27.5c35.333 0 65.833 -10 91.5 -30
s38.5 -46.333 38.5 -79c0 -25.333 -9.66699 -49.166 -29 -71.499s-40.666 -40 -63.999 -53s-44.666 -26.667 -63.999 -41s-29 -27.166 -29 -38.499v-14h164c6 0 11.333 -3.16699 16 -9.5s7 -13.833 7 -22.5c0 -8 -2.33301 -15.333 -7 -22s-10 -10 -16 -10h-207
c-7.33301 0 -14.5 2.16699 -21.5 6.5s-10.5 9.83301 -10.5 16.5z" />
    <glyph glyph-name="threequarters" unicode="&#xbe;" horiz-adv-x="774" 
d="M29 435c0 10.667 2.50098 17.998 7.50098 21.998s13.833 6 26.5 6c14.667 0 24.5 -2 29.5 -6s7.5 -10.333 7.5 -19c0 -24.667 21 -37 63 -37c22.667 0 39.167 4.33301 49.5 13s15.5 22.667 15.5 42v10c0 32.667 -22 49 -66 49c-15.333 0 -23 9.33301 -23 28
s7.66699 28.334 23 29.001c18 0.666992 31.667 4.33398 41 11.001s14 20 14 40c0 30.667 -17.667 46 -53 46c-36 0 -54 -11.667 -54 -35c0 -18 -11.333 -27 -34 -27c-16 0 -26.333 2 -31 6s-7 12 -7 24c0 24 10 45.667 30 65s52 29 96 29c81.333 0 122 -32 122 -96
c0 -45.333 -15.333 -75 -46 -89c40 -14 60 -40.667 60 -80v-10c0 -41.333 -12.667 -71.5 -38 -90.5s-59 -28.5 -101 -28.5c-42.667 0 -75.334 10 -98.001 30s-34 42.667 -34 68zM201.001 1.99805c0 5.33301 1.33105 10.332 3.99805 14.999l367 735
c5.33301 12 15.333 18 30 18c10.667 0 20.334 -3.66699 29.001 -11s13 -16.333 13 -27c0 -5.33301 -1 -10.666 -3 -15.999l-367 -732c-6.66699 -12.667 -18 -19 -34 -19c-11.333 0 -20.666 3.83301 -27.999 11.5s-11 16.167 -11 25.5zM463.999 109.997
c0 4.66699 1.33398 9.33203 4.00098 13.999l139 248c6.66699 12.667 17 19 31 19c7.33301 0 15.166 -2.66699 23.499 -8s12.5 -11.666 12.5 -18.999c0 -4 -1 -7.33301 -3 -10l-114 -202h73v52c0 15.333 12 23 36 23c24.667 0 37 -7.66699 37 -23v-52h27
c15.333 0 23 -11.333 23 -34c0 -8 -2.33301 -15.5 -7 -22.5s-10 -10.5 -16 -10.5h-27v-62c0 -15.333 -12.333 -23 -37 -23c-24 0 -36 7.66699 -36 23v62h-141c-16.667 0 -25 8.33301 -25 25z" />
    <glyph glyph-name="questiondown" unicode="&#xbf;" horiz-adv-x="421" 
d="M27 166c0 20.667 3 40.5 9 59.5s14.667 36.333 26 52s21.5 28.667 30.5 39s20.333 21.666 34 33.999s21.834 19.833 24.501 22.5c20 18 32.333 36.333 37 55s7 47 7 85c0 20.667 13.667 31 41 31c14 0 24 -3.33301 30 -10s9 -18.667 9 -36
c0 -45.333 -4.83301 -79.833 -14.5 -103.5s-22.834 -43.834 -39.501 -60.501c-4.66699 -4.66699 -15 -14 -31 -28s-28.333 -25.667 -37 -35s-17.167 -22.666 -25.5 -39.999s-12.5 -35.666 -12.5 -54.999c0 -32 10.167 -56.833 30.5 -74.5s48.5 -26.5 84.5 -26.5
c21.333 0 39.333 3.16699 54 9.5s25 13.5 31 21.5s12.667 15.167 20 21.5s15 9.5 23 9.5c10 0 19.333 -3.66699 28 -11s13 -17.333 13 -30c0 -24 -16.167 -47 -48.5 -69s-73.833 -33 -124.5 -33c-61.333 0 -109.833 16.167 -145.5 48.5s-53.5 73.5 -53.5 123.5zM176 678
c0 16 5.83301 30 17.5 42s25.5 18 41.5 18c16.667 0 30.834 -6 42.501 -18s17.5 -26 17.5 -42c0 -16.667 -5.83301 -30.834 -17.5 -42.501s-25.834 -17.5 -42.501 -17.5c-16 0 -29.833 5.83301 -41.5 17.5s-17.5 25.834 -17.5 42.501z" />
    <glyph glyph-name="Agrave" unicode="&#xc0;" horiz-adv-x="562" 
d="M14 44c0 4 0.333008 7 1 9l199 648c8 24 30.333 36 67 36c37.333 0 60 -12 68 -36l198 -648c1.33301 -4 2 -7 2 -9c0 -12 -7.16699 -22.333 -21.5 -31s-29.5 -13 -45.5 -13c-19.333 -0 -31.333 7.33301 -36 22l-41 142h-247l-41 -142c-4.66699 -14.667 -17 -22 -37 -22
c-16 -0 -31 4.33301 -45 13s-21 19 -21 31zM178 915c0 10 3.33301 19.333 10 28s14.667 13 24 13c2 0 5.66699 -0.666992 11 -2l124 -63c10 -5.33301 15 -14 15 -26c0 -10 -3.33301 -19.333 -10 -28s-14.667 -13 -24 -13c-4.66699 0 -9 1 -13 3l-121 61
c-10.667 4.66699 -16 13.667 -16 27zM181 249h200l-100 343z" />
    <glyph glyph-name="Aacute" unicode="&#xc1;" horiz-adv-x="562" 
d="M14 44c0 4 0.333008 7 1 9l199 648c8 24 30.333 36 67 36c37.333 0 60 -12 68 -36l198 -648c1.33301 -4 2 -7 2 -9c0 -12 -7.16699 -22.333 -21.5 -31s-29.5 -13 -45.5 -13c-19.333 -0 -31.333 7.33301 -36 22l-41 142h-247l-41 -142c-4.66699 -14.667 -17 -22 -37 -22
c-16 -0 -31 4.33301 -45 13s-21 19 -21 31zM181 249h200l-100 343zM210 865c0 12 5 20.667 15 26l124 63c5.33301 1.33301 9 2 11 2c9.33301 0 17.333 -4.33301 24 -13s10 -18 10 -28c0 -13.333 -5.33301 -22.333 -16 -27l-121 -61c-4 -2 -8 -3 -12 -3
c-9.33301 0 -17.5 4.33301 -24.5 13s-10.5 18 -10.5 28z" />
    <glyph glyph-name="Acircumflex" unicode="&#xc2;" horiz-adv-x="562" 
d="M14 44c0 4 0.333008 7 1 9l199 648c8 24 30.333 36 67 36c37.333 0 60 -12 68 -36l198 -648c1.33301 -4 2 -7 2 -9c0 -12 -7.16699 -22.333 -21.5 -31s-29.5 -13 -45.5 -13c-19.333 -0 -31.333 7.33301 -36 22l-41 142h-247l-41 -142c-4.66699 -14.667 -17 -22 -37 -22
c-16 -0 -31 4.33301 -45 13s-21 19 -21 31zM141 864c0 14 5.99805 24.333 17.998 31l104 56c6.66699 3.33301 12.334 5 17.001 5c6 0 11.667 -1.66699 17 -5l104 -55c12.667 -8 19 -19 19 -33c0 -8.66699 -2.5 -16.5 -7.5 -23.5s-11.167 -10.5 -18.5 -10.5
c-1.33301 0 -3.33301 0.333008 -6 1c-1.33301 1.33301 -2.66602 2 -3.99902 2l-104 56l-104 -56c-2.66699 -2 -5.66699 -3 -9 -3c-7.33301 0 -13.5 3.5 -18.5 10.5s-7.5 15.167 -7.5 24.5zM180.998 249h200l-100 343z" />
    <glyph glyph-name="Atilde" unicode="&#xc3;" horiz-adv-x="562" 
d="M14 44c0 4 0.333008 7 1 9l199 648c8 24 30.333 36 67 36c37.333 0 60 -12 68 -36l198 -648c1.33301 -4 2 -7 2 -9c0 -12 -7.16699 -22.333 -21.5 -31s-29.5 -13 -45.5 -13c-19.333 -0 -31.333 7.33301 -36 22l-41 142h-247l-41 -142c-4.66699 -14.667 -17 -22 -37 -22
c-16 -0 -31 4.33301 -45 13s-21 19 -21 31zM116 883c0 22.667 9.66699 39.001 29 49.001s38.666 15 57.999 15c18.667 0 41.834 -5.16699 69.501 -15.5s50.5 -15.5 68.5 -15.5c16 0 31.667 4.16699 47 12.5s25.333 12.5 30 12.5c9.33301 0 16.333 -4 21 -12s7 -15.333 7 -22
c0 -24 -9.33301 -40.667 -28 -50s-37.667 -14 -57 -14c-21.333 0 -45.666 5.16699 -72.999 15.5s-49.333 15.5 -66 15.5c-16 0 -31.833 -4.5 -47.5 -13.5s-25.834 -13.5 -30.501 -13.5c-9.33301 0 -16.333 4.16699 -21 12.5s-7 16.166 -7 23.499zM181 249.001h200l-100 343z
" />
    <glyph glyph-name="Adieresis" unicode="&#xc4;" horiz-adv-x="562" 
d="M14 44c0 4 0.333008 7 1 9l199 648c8 24 30.333 36 67 36c37.333 0 60 -12 68 -36l198 -648c1.33301 -4 2 -7 2 -9c0 -12 -7.16699 -22.333 -21.5 -31s-29.5 -13 -45.5 -13c-19.333 -0 -31.333 7.33301 -36 22l-41 142h-247l-41 -142c-4.66699 -14.667 -17 -22 -37 -22
c-16 -0 -31 4.33301 -45 13s-21 19 -21 31zM166 877c0 12.667 4.5 23.5 13.5 32.5s19.833 13.5 32.5 13.5s23.167 -4.5 31.5 -13.5s12.5 -19.833 12.5 -32.5s-4.33301 -23.667 -13 -33s-19 -14 -31 -14c-12.667 0 -23.5 4.66699 -32.5 14s-13.5 20.333 -13.5 33zM181 249
h200l-100 343zM306 877c0 12.667 4.33301 23.5 13 32.5s19.334 13.5 32.001 13.5s23.334 -4.5 32.001 -13.5s13 -19.833 13 -32.5s-4.33301 -23.667 -13 -33s-19.334 -14 -32.001 -14s-23.334 4.66699 -32.001 14s-13 20.333 -13 33z" />
    <glyph glyph-name="Aring" unicode="&#xc5;" horiz-adv-x="562" 
d="M14 44c0 4 0.333008 7 1 9l199 648c8 24 30.333 36 67 36c37.333 0 60 -12 68 -36l198 -648c1.33301 -4 2 -7 2 -9c0 -12 -7.16699 -22.333 -21.5 -31s-29.5 -13 -45.5 -13c-19.333 -0 -31.333 7.33301 -36 22l-41 142h-247l-41 -142c-4.66699 -14.667 -17 -22 -37 -22
c-16 -0 -31 4.33301 -45 13s-21 19 -21 31zM181 249h200l-100 343zM185 919c0 25.333 9.33301 47.833 28 67.5s41 29.5 67 29.5c25.333 0 47.833 -9.83301 67.5 -29.5s29.5 -42.167 29.5 -67.5c0 -26 -9.83301 -49 -29.5 -69s-42.167 -30 -67.5 -30c-26 0 -48.333 10 -67 30
s-28 43 -28 69zM229 918c0 -13.333 5.16699 -25.667 15.5 -37s22.5 -17 36.5 -17c13.333 0 25 5.5 35 16.5s15 23.5 15 37.5c0 12.667 -5 24.167 -15 34.5s-21.667 15.5 -35 15.5c-14 0 -26.167 -5.16699 -36.5 -15.5s-15.5 -21.833 -15.5 -34.5z" />
    <glyph glyph-name="AE" unicode="&#xc6;" horiz-adv-x="761" 
d="M63 40v467.998c0 76.667 20.167 133 60.5 169s93.5 54 159.5 54h423c11.333 0 20 -4.66699 26 -14s9 -20 9 -32c0 -13.333 -3.16699 -24.666 -9.5 -33.999s-14.833 -14 -25.5 -14h-230v-229h129c10.667 0 19.167 -4.16699 25.5 -12.5s9.5 -18.5 9.5 -30.5
c0 -10.667 -3 -20.167 -9 -28.5s-14.667 -12.5 -26 -12.5h-129v-230h230c10.667 0 19.167 -4.66699 25.5 -14s9.5 -20.666 9.5 -33.999c0 -12 -3 -22.667 -9 -32s-14.667 -14 -26 -14h-289c-12.667 0 -23.667 3.16699 -33 9.5s-14 14.833 -14 25.5v289h-207v-284
c0 -13.333 -3.5 -23.333 -10.5 -30s-21.167 -10 -42.5 -10c-31.333 -0 -47 13.333 -47 40zM163 407.998h207v229h-87c-80 0 -120 -43 -120 -129v-100z" />
    <glyph glyph-name="Ccedilla" unicode="&#xc7;" horiz-adv-x="540" 
d="M58 217l0.00195312 290.999c0 76.667 20.5 133 61.5 169s94.5 54 160.5 54c68 0 122.833 -16.833 164.5 -50.5s62.5 -77.167 62.5 -130.5c0 -21.333 -4 -35.833 -12 -43.5s-21.667 -11.5 -41 -11.5c-34.667 0 -52.334 11.667 -53.001 35c-4 71.333 -43 107 -117 107
c-80 0 -120 -43 -120 -129v-291c0 -86 40.667 -129 122 -129c24 0 44 3.5 60 10.5s27.5 17.167 34.5 30.5s11.833 25 14.5 35s4.66699 22.333 6 37c2 23.333 19.333 35 52 35c19.333 0 33.166 -3.83301 41.499 -11.5s12.5 -22.167 12.5 -43.5
c0 -50 -17.333 -91.833 -52 -125.5s-81.334 -53.5 -140.001 -59.5l-14 -51c32 -0.666992 56.167 -8.16699 72.5 -22.5s24.5 -31.833 24.5 -52.5c0 -21.333 -8.16699 -40.666 -24.5 -57.999s-41.166 -26 -74.499 -26c-18.667 0 -37 2.5 -55 7.5s-27 11.833 -27 20.5
c0 5.33301 1.83301 12 5.5 20s8.5 12 14.5 12c1.33301 0 8 -2.33301 20 -7s24.333 -7 37 -7c33.333 0 50 12 50 36c0 22 -18 34.667 -54 38l-48 5l22 84c-62 2.66699 -111.833 22 -149.5 58s-56.5 90.667 -56.5 164z" />
    <glyph glyph-name="Egrave" unicode="&#xc8;" horiz-adv-x="523" 
d="M66 35v660.998c0 10.667 4.66699 19.167 14 25.5s20.333 9.5 33 9.5h356c11.333 0 20 -4.66699 26 -14s9 -20 9 -32c0 -13.333 -3.16699 -24.666 -9.5 -33.999s-14.833 -14 -25.5 -14h-297v-229h154c10.667 0 19.167 -4.16699 25.5 -12.5s9.5 -18.5 9.5 -30.5
c0 -10.667 -3 -20.167 -9 -28.5s-14.667 -12.5 -26 -12.5h-154v-230h297c10.667 0 19.167 -4.66699 25.5 -14s9.5 -20.666 9.5 -33.999c0 -12 -3 -22.667 -9 -32s-14.667 -14 -26 -14h-356c-12.667 0 -23.667 3.16699 -33 9.5s-14 14.833 -14 25.5zM189 914.998
c0 10 3.33301 19.333 10 28s14.667 13 24 13c2 0 5.66699 -0.666992 11 -2l124 -63c10 -5.33301 15 -14 15 -26c0 -10 -3.33301 -19.333 -10 -28s-14.667 -13 -24 -13c-4.66699 0 -9 1 -13 3l-121 61c-10.667 4.66699 -16 13.667 -16 27z" />
    <glyph glyph-name="Eacute" unicode="&#xc9;" horiz-adv-x="523" 
d="M66 35v660.998c0 10.667 4.66699 19.167 14 25.5s20.333 9.5 33 9.5h356c11.333 0 20 -4.66699 26 -14s9 -20 9 -32c0 -13.333 -3.16699 -24.666 -9.5 -33.999s-14.833 -14 -25.5 -14h-297v-229h154c10.667 0 19.167 -4.16699 25.5 -12.5s9.5 -18.5 9.5 -30.5
c0 -10.667 -3 -20.167 -9 -28.5s-14.667 -12.5 -26 -12.5h-154v-230h297c10.667 0 19.167 -4.66699 25.5 -14s9.5 -20.666 9.5 -33.999c0 -12 -3 -22.667 -9 -32s-14.667 -14 -26 -14h-356c-12.667 0 -23.667 3.16699 -33 9.5s-14 14.833 -14 25.5zM207 864.998
c0 12 5 20.667 15 26l124 63c5.33301 1.33301 9 2 11 2c9.33301 0 17.333 -4.33301 24 -13s10 -18 10 -28c0 -13.333 -5.33301 -22.333 -16 -27l-121 -61c-4 -2 -8 -3 -12 -3c-9.33301 0 -17.5 4.33301 -24.5 13s-10.5 18 -10.5 28z" />
    <glyph glyph-name="Ecircumflex" unicode="&#xca;" horiz-adv-x="523" 
d="M66 35v660.998c0 10.667 4.66699 19.167 14 25.5s20.333 9.5 33 9.5h356c11.333 0 20 -4.66699 26 -14s9 -20 9 -32c0 -13.333 -3.16699 -24.666 -9.5 -33.999s-14.833 -14 -25.5 -14h-297v-229h154c10.667 0 19.167 -4.16699 25.5 -12.5s9.5 -18.5 9.5 -30.5
c0 -10.667 -3 -20.167 -9 -28.5s-14.667 -12.5 -26 -12.5h-154v-230h297c10.667 0 19.167 -4.66699 25.5 -14s9.5 -20.666 9.5 -33.999c0 -12 -3 -22.667 -9 -32s-14.667 -14 -26 -14h-356c-12.667 0 -23.667 3.16699 -33 9.5s-14 14.833 -14 25.5zM151 863.998
c0 14 5.99805 24.333 17.998 31l104 56c6.66699 3.33301 12.334 5 17.001 5c6 0 11.667 -1.66699 17 -5l104 -55c12.667 -8 19 -19 19 -33c0 -8.66699 -2.5 -16.5 -7.5 -23.5s-11.167 -10.5 -18.5 -10.5c-1.33301 0 -3.33301 0.333008 -6 1
c-1.33301 1.33301 -2.66602 2 -3.99902 2l-104 56l-104 -56c-2.66699 -2 -5.66699 -3 -9 -3c-7.33301 0 -13.5 3.5 -18.5 10.5s-7.5 15.167 -7.5 24.5z" />
    <glyph glyph-name="Edieresis" unicode="&#xcb;" horiz-adv-x="523" 
d="M66 35v660.998c0 10.667 4.66699 19.167 14 25.5s20.333 9.5 33 9.5h356c11.333 0 20 -4.66699 26 -14s9 -20 9 -32c0 -13.333 -3.16699 -24.666 -9.5 -33.999s-14.833 -14 -25.5 -14h-297v-229h154c10.667 0 19.167 -4.16699 25.5 -12.5s9.5 -18.5 9.5 -30.5
c0 -10.667 -3 -20.167 -9 -28.5s-14.667 -12.5 -26 -12.5h-154v-230h297c10.667 0 19.167 -4.66699 25.5 -14s9.5 -20.666 9.5 -33.999c0 -12 -3 -22.667 -9 -32s-14.667 -14 -26 -14h-356c-12.667 0 -23.667 3.16699 -33 9.5s-14 14.833 -14 25.5zM171 876.998
c0 12.667 4.5 23.5 13.5 32.5s19.833 13.5 32.5 13.5s23.167 -4.5 31.5 -13.5s12.5 -19.833 12.5 -32.5s-4.33301 -23.667 -13 -33s-19 -14 -31 -14c-12.667 0 -23.5 4.66699 -32.5 14s-13.5 20.333 -13.5 33zM311 876.998c0 12.667 4.33301 23.5 13 32.5
s19.334 13.5 32.001 13.5s23.334 -4.5 32.001 -13.5s13 -19.833 13 -32.5s-4.33301 -23.667 -13 -33s-19.334 -14 -32.001 -14s-23.334 4.66699 -32.001 14s-13 20.333 -13 33z" />
    <glyph glyph-name="Igrave" unicode="&#xcc;" horiz-adv-x="238" 
d="M22 915c0 10 3.33301 19.333 10 28s14.667 13 24 13c2 0 5.66699 -0.666992 11 -2l124 -63c10 -5.33301 15 -14 15 -26c0 -10 -3.33301 -19.333 -10 -28s-14.667 -13 -24 -13c-4.66699 0 -9 1 -13 3l-121 61c-10.667 4.66699 -16 13.667 -16 27zM66 35v662
c0 11.333 5.16699 19.833 15.5 25.5s22.833 8.5 37.5 8.5s27.167 -2.83301 37.5 -8.5s15.5 -14.167 15.5 -25.5v-662c0 -10.667 -5.16699 -19.167 -15.5 -25.5s-22.833 -9.5 -37.5 -9.5c-14 0 -26.333 3.16699 -37 9.5s-16 14.833 -16 25.5z" />
    <glyph glyph-name="Iacute" unicode="&#xcd;" horiz-adv-x="238" 
d="M32 865c0 12 5 20.667 15 26l124 63c5.33301 1.33301 9 2 11 2c9.33301 0 17.333 -4.33301 24 -13s10 -18 10 -28c0 -13.333 -5.33301 -22.333 -16 -27l-121 -61c-4 -2 -8 -3 -12 -3c-9.33301 0 -17.5 4.33301 -24.5 13s-10.5 18 -10.5 28zM66 35v662
c0 11.333 5.16699 19.833 15.5 25.5s22.833 8.5 37.5 8.5s27.167 -2.83301 37.5 -8.5s15.5 -14.167 15.5 -25.5v-662c0 -10.667 -5.16699 -19.167 -15.5 -25.5s-22.833 -9.5 -37.5 -9.5c-14 0 -26.333 3.16699 -37 9.5s-16 14.833 -16 25.5z" />
    <glyph glyph-name="Icircumflex" unicode="&#xce;" horiz-adv-x="238" 
d="M-19 864c0 14 5.99805 24.333 17.998 31l104 56c6.66699 3.33301 12.334 5 17.001 5c6 0 11.667 -1.66699 17 -5l104 -55c12.667 -8 19 -19 19 -33c0 -8.66699 -2.5 -16.5 -7.5 -23.5s-11.167 -10.5 -18.5 -10.5c-1.33301 0 -3.33301 0.333008 -6 1
c-1.33301 1.33301 -2.66602 2 -3.99902 2l-104 56l-104 -56c-2.66699 -2 -5.66699 -3 -9 -3c-7.33301 0 -13.5 3.5 -18.5 10.5s-7.5 15.167 -7.5 24.5zM65.998 35v662c0 11.333 5.16699 19.833 15.5 25.5s22.833 8.5 37.5 8.5s27.167 -2.83301 37.5 -8.5
s15.5 -14.167 15.5 -25.5v-662c0 -10.667 -5.16699 -19.167 -15.5 -25.5s-22.833 -9.5 -37.5 -9.5c-14 0 -26.333 3.16699 -37 9.5s-16 14.833 -16 25.5z" />
    <glyph glyph-name="Idieresis" unicode="&#xcf;" horiz-adv-x="238" 
d="M5 877c0 12.667 4.5 23.5 13.5 32.5s19.833 13.5 32.5 13.5s23.167 -4.5 31.5 -13.5s12.5 -19.833 12.5 -32.5s-4.33301 -23.667 -13 -33s-19 -14 -31 -14c-12.667 0 -23.5 4.66699 -32.5 14s-13.5 20.333 -13.5 33zM66 35v662c0 11.333 5.16699 19.833 15.5 25.5
s22.833 8.5 37.5 8.5s27.167 -2.83301 37.5 -8.5s15.5 -14.167 15.5 -25.5v-662c0 -10.667 -5.16699 -19.167 -15.5 -25.5s-22.833 -9.5 -37.5 -9.5c-14 0 -26.333 3.16699 -37 9.5s-16 14.833 -16 25.5zM145 877c0 12.667 4.33301 23.5 13 32.5s19.334 13.5 32.001 13.5
s23.334 -4.5 32.001 -13.5s13 -19.833 13 -32.5s-4.33301 -23.667 -13 -33s-19.334 -14 -32.001 -14s-23.334 4.66699 -32.001 14s-13 20.333 -13 33z" />
    <glyph glyph-name="Eth" unicode="&#xd0;" horiz-adv-x="581" 
d="M-4 383c0 10.667 2.66699 19.832 8 27.499s12.333 11.5 21 11.5h49v275c0 9.33301 4.5 17.333 13.5 24s20.167 10 33.5 10h177c68 0 122.5 -18 163.5 -54s61.5 -92.333 61.5 -169v-285c0 -76.667 -20.5 -133 -61.5 -169s-95.5 -54 -163.5 -54h-177
c-13.333 0 -24.5 3.33301 -33.5 10s-13.5 14.667 -13.5 24v310h-49c-8.66699 0 -15.667 3.83301 -21 11.5s-8 16.834 -8 27.501zM180 93.998l118 0.00195312c79.333 0 119 43 119 129v285c0 86 -39.667 129 -119 129h-118v-215h91c9.33301 0 16.666 -3.83301 21.999 -11.5
s8 -16.834 8 -27.501s-2.66699 -19.834 -8 -27.501s-12.666 -11.5 -21.999 -11.5h-91v-250z" />
    <glyph glyph-name="Ntilde" unicode="&#xd1;" horiz-adv-x="593" 
d="M66 35v660.999c0 23.333 17.667 35 53 35c18.667 0 33.667 -4.16699 45 -12.5s23 -24.166 35 -47.499l222 -433v459c0 11.333 5.16699 19.833 15.5 25.5s22.833 8.5 37.5 8.5s27.167 -2.83301 37.5 -8.5s15.5 -14.167 15.5 -25.5v-662
c0 -10.667 -5.16699 -19.167 -15.5 -25.5s-22.833 -9.5 -37.5 -9.5c-28 0 -49 13 -63 39l-239 455v-459c0 -10.667 -5.16699 -19.167 -15.5 -25.5s-22.833 -9.5 -37.5 -9.5c-14 0 -26.333 3.16699 -37 9.5s-16 14.833 -16 25.5zM126 882.999
c0 22.667 9.66699 39.001 29 49.001s38.666 15 57.999 15c18.667 0 41.834 -5.16699 69.501 -15.5s50.5 -15.5 68.5 -15.5c16 0 31.667 4.16699 47 12.5s25.333 12.5 30 12.5c9.33301 0 16.333 -4 21 -12s7 -15.333 7 -22c0 -24 -9.33301 -40.667 -28 -50
s-37.667 -14 -57 -14c-21.333 0 -45.666 5.16699 -72.999 15.5s-49.333 15.5 -66 15.5c-16 0 -31.833 -4.5 -47.5 -13.5s-25.834 -13.5 -30.501 -13.5c-9.33301 0 -16.333 4.16699 -21 12.5s-7 16.166 -7 23.499z" />
    <glyph glyph-name="Ograve" unicode="&#xd2;" horiz-adv-x="566" 
d="M59 217v291c0 76.667 20.333 133 61 169s95 54 163 54s122.5 -18 163.5 -54s61.5 -92.333 61.5 -169v-291c0 -76.667 -20.5 -133 -61.5 -169s-95.5 -54 -163.5 -54s-122.333 18 -163 54s-61 92.333 -61 169zM165 217c0 -86 39.333 -128.998 118 -128.998
c38 0 67.333 10.667 88 32s31 53.666 31 96.999v291c0 43.333 -10.333 75.666 -31 96.999s-50 32 -88 32c-78.667 0 -118 -43 -118 -129v-291zM182 915.002c0 10 3.33301 19.333 10 28s14.667 13 24 13c2 0 5.66699 -0.666992 11 -2l124 -63c10 -5.33301 15 -14 15 -26
c0 -10 -3.33301 -19.333 -10 -28s-14.667 -13 -24 -13c-4.66699 0 -9 1 -13 3l-121 61c-10.667 4.66699 -16 13.667 -16 27z" />
    <glyph glyph-name="Oacute" unicode="&#xd3;" horiz-adv-x="566" 
d="M59 217v291c0 76.667 20.333 133 61 169s95 54 163 54s122.5 -18 163.5 -54s61.5 -92.333 61.5 -169v-291c0 -76.667 -20.5 -133 -61.5 -169s-95.5 -54 -163.5 -54s-122.333 18 -163 54s-61 92.333 -61 169zM165 217c0 -86 39.333 -128.998 118 -128.998
c38 0 67.333 10.667 88 32s31 53.666 31 96.999v291c0 43.333 -10.333 75.666 -31 96.999s-50 32 -88 32c-78.667 0 -118 -43 -118 -129v-291zM217 865.002c0 12 5 20.667 15 26l124 63c5.33301 1.33301 9 2 11 2c9.33301 0 17.333 -4.33301 24 -13s10 -18 10 -28
c0 -13.333 -5.33301 -22.333 -16 -27l-121 -61c-4 -2 -8 -3 -12 -3c-9.33301 0 -17.5 4.33301 -24.5 13s-10.5 18 -10.5 28z" />
    <glyph glyph-name="Ocircumflex" unicode="&#xd4;" horiz-adv-x="566" 
d="M59 217v291c0 76.667 20.333 133 61 169s95 54 163 54s122.5 -18 163.5 -54s61.5 -92.333 61.5 -169v-291c0 -76.667 -20.5 -133 -61.5 -169s-95.5 -54 -163.5 -54s-122.333 18 -163 54s-61 92.333 -61 169zM143 864c0 14 5.99805 24.333 17.998 31l104 56
c6.66699 3.33301 12.334 5 17.001 5c6 0 11.667 -1.66699 17 -5l104 -55c12.667 -8 19 -19 19 -33c0 -8.66699 -2.5 -16.5 -7.5 -23.5s-11.167 -10.5 -18.5 -10.5c-1.33301 0 -3.33301 0.333008 -6 1c-1.33301 1.33301 -2.66602 2 -3.99902 2l-104 56l-104 -56
c-2.66699 -2 -5.66699 -3 -9 -3c-7.33301 0 -13.5 3.5 -18.5 10.5s-7.5 15.167 -7.5 24.5zM164.998 217c0 -86 39.333 -128.998 118 -128.998c38 0 67.333 10.667 88 32s31 53.666 31 96.999v291c0 43.333 -10.333 75.666 -31 96.999s-50 32 -88 32
c-78.667 0 -118 -43 -118 -129v-291z" />
    <glyph glyph-name="Otilde" unicode="&#xd5;" horiz-adv-x="566" 
d="M59 217v291c0 76.667 20.333 133 61 169s95 54 163 54s122.5 -18 163.5 -54s61.5 -92.333 61.5 -169v-291c0 -76.667 -20.5 -133 -61.5 -169s-95.5 -54 -163.5 -54s-122.333 18 -163 54s-61 92.333 -61 169zM118 883c0 22.667 9.66699 39.001 29 49.001
s38.666 15 57.999 15c18.667 0 41.834 -5.16699 69.501 -15.5s50.5 -15.5 68.5 -15.5c16 0 31.667 4.16699 47 12.5s25.333 12.5 30 12.5c9.33301 0 16.333 -4 21 -12s7 -15.333 7 -22c0 -24 -9.33301 -40.667 -28 -50s-37.667 -14 -57 -14
c-21.333 0 -45.666 5.16699 -72.999 15.5s-49.333 15.5 -66 15.5c-16 0 -31.833 -4.5 -47.5 -13.5s-25.834 -13.5 -30.501 -13.5c-9.33301 0 -16.333 4.16699 -21 12.5s-7 16.166 -7 23.499zM165 217.001c0 -86 39.333 -128.998 118 -128.998c38 0 67.333 10.667 88 32
s31 53.666 31 96.999v291c0 43.333 -10.333 75.666 -31 96.999s-50 32 -88 32c-78.667 0 -118 -43 -118 -129v-291z" />
    <glyph glyph-name="Odieresis" unicode="&#xd6;" horiz-adv-x="566" 
d="M59 217v291c0 76.667 20.333 133 61 169s95 54 163 54s122.5 -18 163.5 -54s61.5 -92.333 61.5 -169v-291c0 -76.667 -20.5 -133 -61.5 -169s-95.5 -54 -163.5 -54s-122.333 18 -163 54s-61 92.333 -61 169zM165 217c0 -86 39.333 -128.998 118 -128.998
c38 0 67.333 10.667 88 32s31 53.666 31 96.999v291c0 43.333 -10.333 75.666 -31 96.999s-50 32 -88 32c-78.667 0 -118 -43 -118 -129v-291zM169 877.002c0 12.667 4.5 23.5 13.5 32.5s19.833 13.5 32.5 13.5s23.167 -4.5 31.5 -13.5s12.5 -19.833 12.5 -32.5
s-4.33301 -23.667 -13 -33s-19 -14 -31 -14c-12.667 0 -23.5 4.66699 -32.5 14s-13.5 20.333 -13.5 33zM309 877.002c0 12.667 4.33301 23.5 13 32.5s19.334 13.5 32.001 13.5s23.334 -4.5 32.001 -13.5s13 -19.833 13 -32.5s-4.33301 -23.667 -13 -33
s-19.334 -14 -32.001 -14s-23.334 4.66699 -32.001 14s-13 20.333 -13 33z" />
    <glyph glyph-name="multiply" unicode="&#xd7;" horiz-adv-x="403" 
d="M48 171c0 7.33301 3 14.6689 9 22.002l88 82l-87 81c-6 6 -9 13.667 -9 23c0 12 5 23.167 15 33.5s21.333 15.5 34 15.5c8.66699 0 16 -3 22 -9l81 -82l82 82c6 6 13.333 9 22 9c12.667 0 24 -5.16699 34 -15.5s15 -21.5 15 -33.5
c0 -8.66699 -2.66699 -16.334 -8 -23.001l-88 -81l88 -82c6.66699 -6.66699 10 -14.334 10 -23.001c0 -11.333 -5.33301 -22.333 -16 -33s-22 -16 -34 -16c-8.66699 0 -16 3 -22 9l-83 83l-82 -83c-6 -6 -13.333 -9 -22 -9c-11.333 0 -22.333 5.33301 -33 16s-16 22 -16 34z
" />
    <glyph glyph-name="Oslash" unicode="&#xd8;" horiz-adv-x="566" 
d="M59 217l-0.00195312 291.001c0 76.667 20.333 133 61 169s95 54 163 54c50 0 92.333 -9.66699 127 -29l25 50c5.33301 12 15.333 18 30 18c10.667 0 20.334 -3.66699 29.001 -11s13 -16.333 13 -27c0 -6 -1.33301 -11.333 -4 -16l-33 -66c25.333 -36.667 38 -84 38 -142
v-291c0 -76.667 -20.5 -133 -61.5 -169s-95.5 -54 -163.5 -54c-50 0 -92.667 9.33301 -128 28l-19 -38c-6.66699 -12.667 -17.667 -19 -33 -19c-11.333 0 -20.666 3.83301 -27.999 11.5s-11 16.167 -11 25.5c0 5.33301 1 10.333 3 15l29 58
c-24.667 37.333 -37 84.666 -37 141.999zM164.998 212.001l199 399c-20.667 17.333 -47.667 26 -81 26c-78.667 0 -118 -43 -118 -129v-296zM200.998 114.001c19.333 -17.333 46.667 -25.999 82 -25.999c38 0 67.333 10.667 88 32s31 53.666 31 96.999v297z" />
    <glyph glyph-name="Ugrave" unicode="&#xd9;" horiz-adv-x="583" 
d="M63 217l0.000976562 479.999c0 11.333 5.16699 19.833 15.5 25.5s22.833 8.5 37.5 8.5s27.167 -2.83301 37.5 -8.5s15.5 -14.167 15.5 -25.5v-480c0 -43.333 10.667 -75.666 32 -96.999s51.333 -32 90 -32c82 0 123 43 123 129v480c0 11.333 5.16699 19.833 15.5 25.5
s22.833 8.5 37.5 8.5s27.167 -2.83301 37.5 -8.5s15.5 -14.167 15.5 -25.5v-480c0 -76.667 -20.833 -133 -62.5 -169s-97.167 -54 -166.5 -54c-68.667 0 -123.834 18 -165.501 54s-62.5 92.333 -62.5 169zM186.001 914.999c0 10 3.33301 19.333 10 28s14.667 13 24 13
c2 0 5.66699 -0.666992 11 -2l124 -63c10 -5.33301 15 -14 15 -26c0 -10 -3.33301 -19.333 -10 -28s-14.667 -13 -24 -13c-4.66699 0 -9 1 -13 3l-121 61c-10.667 4.66699 -16 13.667 -16 27z" />
    <glyph glyph-name="Uacute" unicode="&#xda;" horiz-adv-x="583" 
d="M63 217l0.000976562 479.999c0 11.333 5.16699 19.833 15.5 25.5s22.833 8.5 37.5 8.5s27.167 -2.83301 37.5 -8.5s15.5 -14.167 15.5 -25.5v-480c0 -43.333 10.667 -75.666 32 -96.999s51.333 -32 90 -32c82 0 123 43 123 129v480c0 11.333 5.16699 19.833 15.5 25.5
s22.833 8.5 37.5 8.5s27.167 -2.83301 37.5 -8.5s15.5 -14.167 15.5 -25.5v-480c0 -76.667 -20.833 -133 -62.5 -169s-97.167 -54 -166.5 -54c-68.667 0 -123.834 18 -165.501 54s-62.5 92.333 -62.5 169zM216.001 864.999c0 12 5 20.667 15 26l124 63
c5.33301 1.33301 9 2 11 2c9.33301 0 17.333 -4.33301 24 -13s10 -18 10 -28c0 -13.333 -5.33301 -22.333 -16 -27l-121 -61c-4 -2 -8 -3 -12 -3c-9.33301 0 -17.5 4.33301 -24.5 13s-10.5 18 -10.5 28z" />
    <glyph glyph-name="Ucircumflex" unicode="&#xdb;" horiz-adv-x="583" 
d="M63 217l0.000976562 479.999c0 11.333 5.16699 19.833 15.5 25.5s22.833 8.5 37.5 8.5s27.167 -2.83301 37.5 -8.5s15.5 -14.167 15.5 -25.5v-480c0 -43.333 10.667 -75.666 32 -96.999s51.333 -32 90 -32c82 0 123 43 123 129v480c0 11.333 5.16699 19.833 15.5 25.5
s22.833 8.5 37.5 8.5s27.167 -2.83301 37.5 -8.5s15.5 -14.167 15.5 -25.5v-480c0 -76.667 -20.833 -133 -62.5 -169s-97.167 -54 -166.5 -54c-68.667 0 -123.834 18 -165.501 54s-62.5 92.333 -62.5 169zM148.001 863.999c0 14 5.99805 24.333 17.998 31l104 56
c6.66699 3.33301 12.334 5 17.001 5c6 0 11.667 -1.66699 17 -5l104 -55c12.667 -8 19 -19 19 -33c0 -8.66699 -2.5 -16.5 -7.5 -23.5s-11.167 -10.5 -18.5 -10.5c-1.33301 0 -3.33301 0.333008 -6 1c-1.33301 1.33301 -2.66602 2 -3.99902 2l-104 56l-104 -56
c-3.33301 -2 -6.33301 -3 -9 -3c-7.33301 0 -13.5 3.5 -18.5 10.5s-7.5 15.167 -7.5 24.5z" />
    <glyph glyph-name="Udieresis" unicode="&#xdc;" horiz-adv-x="583" 
d="M63 217l0.000976562 479.999c0 11.333 5.16699 19.833 15.5 25.5s22.833 8.5 37.5 8.5s27.167 -2.83301 37.5 -8.5s15.5 -14.167 15.5 -25.5v-480c0 -43.333 10.667 -75.666 32 -96.999s51.333 -32 90 -32c82 0 123 43 123 129v480c0 11.333 5.16699 19.833 15.5 25.5
s22.833 8.5 37.5 8.5s27.167 -2.83301 37.5 -8.5s15.5 -14.167 15.5 -25.5v-480c0 -76.667 -20.833 -133 -62.5 -169s-97.167 -54 -166.5 -54c-68.667 0 -123.834 18 -165.501 54s-62.5 92.333 -62.5 169zM176.001 876.999c0 12.667 4.5 23.5 13.5 32.5
s19.833 13.5 32.5 13.5s23.167 -4.5 31.5 -13.5s12.5 -19.833 12.5 -32.5s-4.33301 -23.667 -13 -33s-19 -14 -31 -14c-12.667 0 -23.5 4.66699 -32.5 14s-13.5 20.333 -13.5 33zM316.001 876.999c0 12.667 4.33301 23.5 13 32.5s19.334 13.5 32.001 13.5
s23.334 -4.5 32.001 -13.5s13 -19.833 13 -32.5s-4.33301 -23.667 -13 -33s-19.334 -14 -32.001 -14s-23.334 4.66699 -32.001 14s-13 20.333 -13 33z" />
    <glyph glyph-name="Yacute" unicode="&#xdd;" horiz-adv-x="558" 
d="M13 687c0 12 7.33301 22.333 22 31s29.667 13 45 13c14.667 0 26.334 -8 35.001 -24l165 -317l164 317c8 16 19.667 24 35 24s30.166 -4.33301 44.499 -13s21.5 -19 21.5 -31c0 -6 -1 -11 -3 -15l-207 -373c-1.33301 -4 -2 -7.66699 -2 -11v-253
c0 -10.667 -5.33301 -19.167 -16 -25.5s-23 -9.5 -37 -9.5c-14.667 0 -27.167 3.16699 -37.5 9.5s-15.5 14.833 -15.5 25.5v253c0 1.33301 -1 5 -3 11l-207 373c-2.66699 5.33301 -4 10.333 -4 15zM199 865c0 12 5 20.667 15 26l124 63c5.33301 1.33301 9 2 11 2
c9.33301 0 17.333 -4.33301 24 -13s10 -18 10 -28c0 -13.333 -5.33301 -22.333 -16 -27l-121 -61c-4 -2 -8 -3 -12 -3c-9.33301 0 -17.5 4.33301 -24.5 13s-10.5 18 -10.5 28z" />
    <glyph glyph-name="Thorn" unicode="&#xde;" horiz-adv-x="511" 
d="M66 35v672.001c0 10 4.83301 18.167 14.5 24.5s21.834 9.5 36.501 9.5c16 0 29 -3.16699 39 -9.5s15 -14.833 15 -25.5v-161c12 22 29.5 40.167 52.5 54.5s49.833 21.5 80.5 21.5c48.667 0 90.167 -17.333 124.5 -52s51.5 -78.334 51.5 -131.001v-121
c0 -51.333 -17.333 -95 -52 -131s-74.334 -54 -119.001 -54c-30 0 -58 7.66699 -84 23s-44 34 -54 56v-176c0 -8.66699 -5.16699 -16.667 -15.5 -24s-22.833 -11 -37.5 -11s-27 3.66699 -37 11s-15 15.333 -15 24zM171 310.001c0 -18.667 10.332 -37.332 30.999 -55.999
s45.334 -28 74.001 -28c26 0 49 8.5 69 25.5s30 38.833 30 65.5v121c0 26 -10 47.5 -30 64.5s-43.667 25.5 -71 25.5c-28 0 -52.167 -8.33301 -72.5 -25s-30.5 -38.334 -30.5 -65.001v-128z" />
    <glyph glyph-name="germandbls" unicode="&#xdf;" horiz-adv-x="581" 
d="M4 435c0 10.667 2.50195 19.8359 7.50195 27.5029s12.167 11.5 21.5 11.5h62v99c0 56.667 15.167 103.334 45.5 140.001s76.833 55 139.5 55c55.333 0 100.166 -15.5 134.499 -46.5s51.5 -76.5 51.5 -136.5c0 -36 -6.16699 -69.333 -18.5 -100
s-29.166 -51.334 -50.499 -62.001c38 -7.33301 72.833 -30 104.5 -68s47.5 -82.667 47.5 -134v-15c0 -71.333 -20 -126.833 -60 -166.5s-88.667 -59.5 -146 -59.5c-68 0 -102 18 -102 54c0 12 2.5 23.333 7.5 34s11.5 16 19.5 16c2.66699 0 11.667 -2.5 27 -7.5
s30.333 -7.5 45 -7.5c33.333 0 59.5 11.167 78.5 33.5s28.5 54.166 28.5 95.499v15c0 43.333 -11.5 78.166 -34.5 104.499s-55.833 43.166 -98.5 50.499c-13.333 2 -22.833 5.83301 -28.5 11.5s-8.5 16.167 -8.5 31.5c0 10 1.83301 17.833 5.5 23.5s7.5 9.33398 11.5 11.001
s11 3.5 21 5.5c42 6 63 42.333 63 109c0 76.667 -30.333 115 -91 115c-58 0 -87 -34 -87 -102v-539c0 -10 -5.33301 -18.167 -16 -24.5s-23.334 -9.5 -38.001 -9.5s-26.834 3.16699 -36.501 9.5s-14.5 14.5 -14.5 24.5v362h-62c-9.33301 0 -16.5 3.66699 -21.5 11
s-7.5 16.666 -7.5 27.999z" />
    <glyph glyph-name="agrave" unicode="&#xe0;" horiz-adv-x="460" 
d="M25 124c0 53.333 20 90.5 60 111.5s98 31.5 174 31.5h44v18c0 29.333 -8.16699 54.666 -24.5 75.999s-41.166 32 -74.499 32c-28.667 0 -53.834 -5 -75.501 -15s-33.5 -15 -35.5 -15c-11.333 0 -20.5 5.5 -27.5 16.5s-10.5 23.167 -10.5 36.5
c0 17.333 16.167 32.333 48.5 45s66.5 19 102.5 19c68.667 0 119.5 -18.5 152.5 -55.5s49.5 -83.167 49.5 -138.5v-251c0 -9.33301 -4.83301 -17.5 -14.5 -24.5s-21.834 -10.5 -36.501 -10.5c-13.333 0 -24.666 3.5 -33.999 10.5s-14 15.167 -14 24.5v35
c-44.667 -52 -95 -78 -151 -78c-38.667 0 -70.5 11.333 -95.5 34s-37.5 55.334 -37.5 98.001zM127 668c0 10 3.33301 19.333 10 28s14.667 13 24 13c2 0 5.66699 -0.666992 11 -2l124 -63c10 -5.33301 15 -14 15 -26c0 -10 -3.33301 -19.333 -10 -28s-14.667 -13 -24 -13
c-4.66699 0 -9 1 -13 3l-121 61c-10.667 4.66699 -16 13.667 -16 27zM131 137c0 -21.333 6 -37.5 18 -48.5s27.667 -16.5 47 -16.5c25.333 0 49.5 10.667 72.5 32s34.5 44 34.5 68v37h-25c-30 0 -54.5 -1.33301 -73.5 -4s-36 -9.66699 -51 -21s-22.5 -27 -22.5 -47z" />
    <glyph glyph-name="aacute" unicode="&#xe1;" horiz-adv-x="460" 
d="M25 124c0 53.333 20 90.5 60 111.5s98 31.5 174 31.5h44v18c0 29.333 -8.16699 54.666 -24.5 75.999s-41.166 32 -74.499 32c-28.667 0 -53.834 -5 -75.501 -15s-33.5 -15 -35.5 -15c-11.333 0 -20.5 5.5 -27.5 16.5s-10.5 23.167 -10.5 36.5
c0 17.333 16.167 32.333 48.5 45s66.5 19 102.5 19c68.667 0 119.5 -18.5 152.5 -55.5s49.5 -83.167 49.5 -138.5v-251c0 -9.33301 -4.83301 -17.5 -14.5 -24.5s-21.834 -10.5 -36.501 -10.5c-13.333 0 -24.666 3.5 -33.999 10.5s-14 15.167 -14 24.5v35
c-44.667 -52 -95 -78 -151 -78c-38.667 0 -70.5 11.333 -95.5 34s-37.5 55.334 -37.5 98.001zM131 137c0 -21.333 6 -37.5 18 -48.5s27.667 -16.5 47 -16.5c25.333 0 49.5 10.667 72.5 32s34.5 44 34.5 68v37h-25c-30 0 -54.5 -1.33301 -73.5 -4s-36 -9.66699 -51 -21
s-22.5 -27 -22.5 -47zM139 618c0 12 5 20.667 15 26l124 63c5.33301 1.33301 9 2 11 2c9.33301 0 17.333 -4.33301 24 -13s10 -18 10 -28c0 -13.333 -5.33301 -22.333 -16 -27l-121 -61c-4 -2 -8 -3 -12 -3c-9.33301 0 -17.5 4.33301 -24.5 13s-10.5 18 -10.5 28z" />
    <glyph glyph-name="acircumflex" unicode="&#xe2;" horiz-adv-x="460" 
d="M25 124c0 53.333 20 90.5 60 111.5s98 31.5 174 31.5h44v18c0 29.333 -8.16699 54.666 -24.5 75.999s-41.166 32 -74.499 32c-28.667 0 -53.834 -5 -75.501 -15s-33.5 -15 -35.5 -15c-11.333 0 -20.5 5.5 -27.5 16.5s-10.5 23.167 -10.5 36.5
c0 17.333 16.167 32.333 48.5 45s66.5 19 102.5 19c68.667 0 119.5 -18.5 152.5 -55.5s49.5 -83.167 49.5 -138.5v-251c0 -9.33301 -4.83301 -17.5 -14.5 -24.5s-21.834 -10.5 -36.501 -10.5c-13.333 0 -24.666 3.5 -33.999 10.5s-14 15.167 -14 24.5v35
c-44.667 -52 -95 -78 -151 -78c-38.667 0 -70.5 11.333 -95.5 34s-37.5 55.334 -37.5 98.001zM76 617c0 14 5.99805 24.333 17.998 31l104 56c6.66699 3.33301 12.334 5 17.001 5c6 0 11.667 -1.66699 17 -5l104 -55c12.667 -8 19 -19 19 -33
c0 -8.66699 -2.5 -16.5 -7.5 -23.5s-11.167 -10.5 -18.5 -10.5c-1.33301 0 -3.33301 0.333008 -6 1c-1.33301 1.33301 -2.66602 2 -3.99902 2l-104 56l-104 -56c-3.33301 -2 -6.33301 -3 -9 -3c-7.33301 0 -13.5 3.5 -18.5 10.5s-7.5 15.167 -7.5 24.5zM130.998 137
c0 -21.333 6 -37.5 18 -48.5s27.667 -16.5 47 -16.5c25.333 0 49.5 10.667 72.5 32s34.5 44 34.5 68v37h-25c-30 0 -54.5 -1.33301 -73.5 -4s-36 -9.66699 -51 -21s-22.5 -27 -22.5 -47z" />
    <glyph glyph-name="atilde" unicode="&#xe3;" horiz-adv-x="460" 
d="M25 124c0 53.333 20 90.5 60 111.5s98 31.5 174 31.5h44v18c0 29.333 -8.16699 54.666 -24.5 75.999s-41.166 32 -74.499 32c-28.667 0 -53.834 -5 -75.501 -15s-33.5 -15 -35.5 -15c-11.333 0 -20.5 5.5 -27.5 16.5s-10.5 23.167 -10.5 36.5
c0 17.333 16.167 32.333 48.5 45s66.5 19 102.5 19c68.667 0 119.5 -18.5 152.5 -55.5s49.5 -83.167 49.5 -138.5v-251c0 -9.33301 -4.83301 -17.5 -14.5 -24.5s-21.834 -10.5 -36.501 -10.5c-13.333 0 -24.666 3.5 -33.999 10.5s-14 15.167 -14 24.5v35
c-44.667 -52 -95 -78 -151 -78c-38.667 0 -70.5 11.333 -95.5 34s-37.5 55.334 -37.5 98.001zM54 636c0 22.667 9.66699 39.001 29 49.001s38.666 15 57.999 15c18.667 0 41.834 -5.16699 69.501 -15.5s50.5 -15.5 68.5 -15.5c16 0 31.667 4.16699 47 12.5
s25.333 12.5 30 12.5c9.33301 0 16.333 -4 21 -12s7 -15.333 7 -22c0 -24 -9.33301 -40.667 -28 -50s-37.667 -14 -57 -14c-21.333 0 -45.666 5.16699 -72.999 15.5s-49.333 15.5 -66 15.5c-16 0 -31.833 -4.5 -47.5 -13.5s-25.834 -13.5 -30.501 -13.5
c-9.33301 0 -16.333 4.16699 -21 12.5s-7 16.166 -7 23.499zM131 137.001c0 -21.333 6 -37.5 18 -48.5s27.667 -16.5 47 -16.5c25.333 0 49.5 10.667 72.5 32s34.5 44 34.5 68v37h-25c-30 0 -54.5 -1.33301 -73.5 -4s-36 -9.66699 -51 -21s-22.5 -27 -22.5 -47z" />
    <glyph glyph-name="adieresis" unicode="&#xe4;" horiz-adv-x="460" 
d="M25 124c0 53.333 20 90.5 60 111.5s98 31.5 174 31.5h44v18c0 29.333 -8.16699 54.666 -24.5 75.999s-41.166 32 -74.499 32c-28.667 0 -53.834 -5 -75.501 -15s-33.5 -15 -35.5 -15c-11.333 0 -20.5 5.5 -27.5 16.5s-10.5 23.167 -10.5 36.5
c0 17.333 16.167 32.333 48.5 45s66.5 19 102.5 19c68.667 0 119.5 -18.5 152.5 -55.5s49.5 -83.167 49.5 -138.5v-251c0 -9.33301 -4.83301 -17.5 -14.5 -24.5s-21.834 -10.5 -36.501 -10.5c-13.333 0 -24.666 3.5 -33.999 10.5s-14 15.167 -14 24.5v35
c-44.667 -52 -95 -78 -151 -78c-38.667 0 -70.5 11.333 -95.5 34s-37.5 55.334 -37.5 98.001zM103 630c0 12.667 4.5 23.5 13.5 32.5s19.833 13.5 32.5 13.5s23.167 -4.5 31.5 -13.5s12.5 -19.833 12.5 -32.5s-4.33301 -23.667 -13 -33s-19 -14 -31 -14
c-12.667 0 -23.5 4.66699 -32.5 14s-13.5 20.333 -13.5 33zM131 137c0 -21.333 6 -37.5 18 -48.5s27.667 -16.5 47 -16.5c25.333 0 49.5 10.667 72.5 32s34.5 44 34.5 68v37h-25c-30 0 -54.5 -1.33301 -73.5 -4s-36 -9.66699 -51 -21s-22.5 -27 -22.5 -47zM243 630
c0 12.667 4.33301 23.5 13 32.5s19.334 13.5 32.001 13.5s23.334 -4.5 32.001 -13.5s13 -19.833 13 -32.5s-4.33301 -23.667 -13 -33s-19.334 -14 -32.001 -14s-23.334 4.66699 -32.001 14s-13 20.333 -13 33z" />
    <glyph glyph-name="aring" unicode="&#xe5;" horiz-adv-x="460" 
d="M25 124c0 53.333 20 90.5 60 111.5s98 31.5 174 31.5h44v18c0 29.333 -8.16699 54.666 -24.5 75.999s-41.166 32 -74.499 32c-28.667 0 -53.834 -5 -75.501 -15s-33.5 -15 -35.5 -15c-11.333 0 -20.5 5.5 -27.5 16.5s-10.5 23.167 -10.5 36.5
c0 17.333 16.167 32.333 48.5 45s66.5 19 102.5 19c68.667 0 119.5 -18.5 152.5 -55.5s49.5 -83.167 49.5 -138.5v-251c0 -9.33301 -4.83301 -17.5 -14.5 -24.5s-21.834 -10.5 -36.501 -10.5c-13.333 0 -24.666 3.5 -33.999 10.5s-14 15.167 -14 24.5v35
c-44.667 -52 -95 -78 -151 -78c-38.667 0 -70.5 11.333 -95.5 34s-37.5 55.334 -37.5 98.001zM124 672c0 25.333 9.33301 47.833 28 67.5s41 29.5 67 29.5c25.333 0 47.833 -9.83301 67.5 -29.5s29.5 -42.167 29.5 -67.5c0 -26 -9.83301 -49 -29.5 -69
s-42.167 -30 -67.5 -30c-26 0 -48.333 10 -67 30s-28 43 -28 69zM131 137c0 -21.333 6 -37.5 18 -48.5s27.667 -16.5 47 -16.5c25.333 0 49.5 10.667 72.5 32s34.5 44 34.5 68v37h-25c-30 0 -54.5 -1.33301 -73.5 -4s-36 -9.66699 -51 -21s-22.5 -27 -22.5 -47zM168 671
c0 -13.333 5.16699 -25.667 15.5 -37s22.5 -17 36.5 -17c13.333 0 25 5.5 35 16.5s15 23.5 15 37.5c0 12.667 -5 24.167 -15 34.5s-21.667 15.5 -35 15.5c-14 0 -26.167 -5.16699 -36.5 -15.5s-15.5 -21.833 -15.5 -34.5z" />
    <glyph glyph-name="ae" unicode="&#xe6;" horiz-adv-x="740" 
d="M25 124c0 53.333 19.8359 90.5 59.5029 111.5s97.5 31.5 173.5 31.5h44v18c0 30 -8 55.667 -24 77s-41.333 32 -76 32c-28 0 -52.833 -5.16699 -74.5 -15.5s-33.834 -15.5 -36.501 -15.5c-10.667 0 -19.5 5.66699 -26.5 17s-10.5 23.666 -10.5 36.999
c0 16.667 16.167 31.5 48.5 44.5s66.5 19.5 102.5 19.5c70 0 121.667 -28 155 -84c39.333 55.333 89.666 83 150.999 83c53.333 0 99.833 -17 139.5 -51s59.5 -80.667 59.5 -140c0 -33.333 -7.16699 -55 -21.5 -65s-37.5 -15 -69.5 -15h-210v-23
c0 -33.333 11.833 -59.833 35.5 -79.5s54.5 -29.5 92.5 -29.5c26.667 0 52.5 6.33301 77.5 19s40.167 19 45.5 19c11.333 0 21 -5.16699 29 -15.5s12 -20.833 12 -31.5c0 -18 -17.333 -35.167 -52 -51.5s-74.334 -24.5 -119.001 -24.5c-38.667 0 -74 8.5 -106 25.5
s-57.667 41.167 -77 72.5c-22 -31.333 -48.5 -55.5 -79.5 -72.5s-62.167 -25.5 -93.5 -25.5c-42.667 0 -78.167 11.333 -106.5 34s-42.5 55.334 -42.5 98.001zM131.003 136c0 -20.667 6 -36.5 18 -47.5s27.667 -16.5 47 -16.5c26 0 50.167 10.667 72.5 32s33.5 44 33.5 68
v37h-25c-46.667 0 -82.667 -4.83301 -108 -14.5s-38 -29.167 -38 -58.5zM409.003 274l165 0.000976562c14.667 0 24.5 2 29.5 6s7.5 11.667 7.5 23c0 27.333 -9.66699 50.333 -29 69s-43.333 28 -72 28c-28 0 -51.833 -8.83301 -71.5 -26.5s-29.5 -39.834 -29.5 -66.501v-33
z" />
    <glyph glyph-name="ccedilla" unicode="&#xe7;" horiz-adv-x="425" 
d="M38 191l-0.000976562 89.9971c0 59.333 17.333 107.333 52 144s86.334 55 155.001 55c43.333 0 79.666 -7.5 108.999 -22.5s44 -31.833 44 -50.5c0 -11.333 -4.16699 -22.666 -12.5 -33.999s-18.166 -17 -29.499 -17c-3.33301 0 -15.166 5.16699 -35.499 15.5
s-42.833 15.5 -67.5 15.5c-73.333 0 -110 -35.333 -110 -106v-90c0 -70.667 37 -106 111 -106c25.333 0 48.166 5.5 68.499 16.5s32.5 16.5 36.5 16.5c13.333 0 24.166 -5.33301 32.499 -16s12.5 -22 12.5 -34c0 -16.667 -13 -32.667 -39 -48s-58.333 -24.333 -97 -27
l-13 -48c32 -0.666992 56.167 -8.16699 72.5 -22.5s24.5 -31.833 24.5 -52.5c0 -21.333 -8.16699 -40.666 -24.5 -57.999s-41.166 -26 -74.499 -26c-18.667 0 -37 2.5 -55 7.5s-27 11.833 -27 20.5c0 5.33301 1.83301 12 5.5 20s8.5 12 14.5 12c1.33301 0 8 -2.33301 20 -7
s24.333 -7 37 -7c33.333 0 50 12 50 36c0 22 -18 34.667 -54 38l-48 5l22 82c-60 4.66699 -105 24.834 -135 60.501s-45 81.5 -45 137.5z" />
    <glyph glyph-name="egrave" unicode="&#xe8;" horiz-adv-x="474" 
d="M37 191l0.00195312 95c0 52.667 20.333 98.167 61 136.5s89.667 57.5 147 57.5c54.667 0 101.5 -17.5 140.5 -52.5s58.5 -79.167 58.5 -132.5c0 -20 -2.33301 -36.167 -7 -48.5s-12 -21 -22 -26s-19.333 -8.16699 -28 -9.5s-20 -2 -34 -2h-211v-23
c0 -33.333 12 -59.833 36 -79.5s55.333 -29.5 94 -29.5c27.333 0 53.166 6.33301 77.499 19s39.166 19 44.499 19c11.333 0 21 -5.33301 29 -16s12 -21 12 -31c0 -16.667 -16 -33.5 -48 -50.5s-71.333 -25.5 -118 -25.5c-68 0 -123.667 18.333 -167 55s-65 84.667 -65 144z
M142.002 274l166 -0.000976562c14.667 0 24.5 2 29.5 6s7.5 12 7.5 24c0 26.667 -9.66699 49.334 -29 68.001s-43.333 28 -72 28c-28 0 -52 -8.83301 -72 -26.5s-30 -40.167 -30 -67.5v-32zM142.002 667.999c0 10 3.33301 19.333 10 28s14.667 13 24 13
c2 0 5.66699 -0.666992 11 -2l124 -63c10 -5.33301 15 -14 15 -26c0 -10 -3.33301 -19.333 -10 -28s-14.667 -13 -24 -13c-4.66699 0 -9 1 -13 3l-121 61c-10.667 4.66699 -16 13.667 -16 27z" />
    <glyph glyph-name="eacute" unicode="&#xe9;" horiz-adv-x="474" 
d="M37 191l0.00195312 95c0 52.667 20.333 98.167 61 136.5s89.667 57.5 147 57.5c54.667 0 101.5 -17.5 140.5 -52.5s58.5 -79.167 58.5 -132.5c0 -20 -2.33301 -36.167 -7 -48.5s-12 -21 -22 -26s-19.333 -8.16699 -28 -9.5s-20 -2 -34 -2h-211v-23
c0 -33.333 12 -59.833 36 -79.5s55.333 -29.5 94 -29.5c27.333 0 53.166 6.33301 77.499 19s39.166 19 44.499 19c11.333 0 21 -5.33301 29 -16s12 -21 12 -31c0 -16.667 -16 -33.5 -48 -50.5s-71.333 -25.5 -118 -25.5c-68 0 -123.667 18.333 -167 55s-65 84.667 -65 144z
M142.002 274l166 -0.000976562c14.667 0 24.5 2 29.5 6s7.5 12 7.5 24c0 26.667 -9.66699 49.334 -29 68.001s-43.333 28 -72 28c-28 0 -52 -8.83301 -72 -26.5s-30 -40.167 -30 -67.5v-32zM154.002 617.999c0 12 5 20.667 15 26l124 63c5.33301 1.33301 9 2 11 2
c9.33301 0 17.333 -4.33301 24 -13s10 -18 10 -28c0 -13.333 -5.33301 -22.333 -16 -27l-121 -61c-4 -2 -8 -3 -12 -3c-9.33301 0 -17.5 4.33301 -24.5 13s-10.5 18 -10.5 28z" />
    <glyph glyph-name="ecircumflex" unicode="&#xea;" horiz-adv-x="474" 
d="M37 191l0.00195312 95c0 52.667 20.333 98.167 61 136.5s89.667 57.5 147 57.5c54.667 0 101.5 -17.5 140.5 -52.5s58.5 -79.167 58.5 -132.5c0 -20 -2.33301 -36.167 -7 -48.5s-12 -21 -22 -26s-19.333 -8.16699 -28 -9.5s-20 -2 -34 -2h-211v-23
c0 -33.333 12 -59.833 36 -79.5s55.333 -29.5 94 -29.5c27.333 0 53.166 6.33301 77.499 19s39.166 19 44.499 19c11.333 0 21 -5.33301 29 -16s12 -21 12 -31c0 -16.667 -16 -33.5 -48 -50.5s-71.333 -25.5 -118 -25.5c-68 0 -123.667 18.333 -167 55s-65 84.667 -65 144z
M104.002 617c0 14 5.99805 24.333 17.998 31l104 56c6.66699 3.33301 12.334 5 17.001 5c6 0 11.667 -1.66699 17 -5l104 -55c12.667 -8 19 -19 19 -33c0 -8.66699 -2.5 -16.5 -7.5 -23.5s-11.167 -10.5 -18.5 -10.5c-1.33301 0 -3.33301 0.333008 -6 1
c-1.33301 1.33301 -2.66602 2 -3.99902 2l-104 56l-104 -56c-3.33301 -2 -6.33301 -3 -9 -3c-7.33301 0 -13.5 3.5 -18.5 10.5s-7.5 15.167 -7.5 24.5zM142 274l166 -0.000976562c14.667 0 24.5 2 29.5 6s7.5 12 7.5 24c0 26.667 -9.66699 49.334 -29 68.001
s-43.333 28 -72 28c-28 0 -52 -8.83301 -72 -26.5s-30 -40.167 -30 -67.5v-32z" />
    <glyph glyph-name="edieresis" unicode="&#xeb;" horiz-adv-x="474" 
d="M37 191l0.00195312 95c0 52.667 20.333 98.167 61 136.5s89.667 57.5 147 57.5c54.667 0 101.5 -17.5 140.5 -52.5s58.5 -79.167 58.5 -132.5c0 -20 -2.33301 -36.167 -7 -48.5s-12 -21 -22 -26s-19.333 -8.16699 -28 -9.5s-20 -2 -34 -2h-211v-23
c0 -33.333 12 -59.833 36 -79.5s55.333 -29.5 94 -29.5c27.333 0 53.166 6.33301 77.499 19s39.166 19 44.499 19c11.333 0 21 -5.33301 29 -16s12 -21 12 -31c0 -16.667 -16 -33.5 -48 -50.5s-71.333 -25.5 -118 -25.5c-68 0 -123.667 18.333 -167 55s-65 84.667 -65 144z
M128.002 630c0 12.667 4.5 23.5 13.5 32.5s19.833 13.5 32.5 13.5s23.167 -4.5 31.5 -13.5s12.5 -19.833 12.5 -32.5s-4.33301 -23.667 -13 -33s-19 -14 -31 -14c-12.667 0 -23.5 4.66699 -32.5 14s-13.5 20.333 -13.5 33zM142.002 274l166 -0.000976562
c14.667 0 24.5 2 29.5 6s7.5 12 7.5 24c0 26.667 -9.66699 49.334 -29 68.001s-43.333 28 -72 28c-28 0 -52 -8.83301 -72 -26.5s-30 -40.167 -30 -67.5v-32zM268.002 629.999c0 12.667 4.33301 23.5 13 32.5s19.334 13.5 32.001 13.5s23.334 -4.5 32.001 -13.5
s13 -19.833 13 -32.5s-4.33301 -23.667 -13 -33s-19.334 -14 -32.001 -14s-23.334 4.66699 -32.001 14s-13 20.333 -13 33z" />
    <glyph glyph-name="igrave" unicode="&#xec;" 
d="M4 668c0 10 3.33301 19.333 10 28s14.667 13 24 13c2 0 5.66699 -0.666992 11 -2l124 -63c10 -5.33301 15 -14 15 -26c0 -10 -3.33301 -19.333 -10 -28s-14.667 -13 -24 -13c-4.66699 0 -9 1 -13 3l-121 61c-10.667 4.66699 -16 13.667 -16 27zM55 35v405
c0 10 4.83301 18.167 14.5 24.5s22.167 9.5 37.5 9.5s28 -3.16699 38 -9.5s15 -14.5 15 -24.5v-405c0 -8.66699 -5.16699 -16.667 -15.5 -24s-22.833 -11 -37.5 -11s-27 3.66699 -37 11s-15 15.333 -15 24z" />
    <glyph glyph-name="iacute" unicode="&#xed;" 
d="M28 618c0 12 5 20.667 15 26l124 63c5.33301 1.33301 9 2 11 2c9.33301 0 17.333 -4.33301 24 -13s10 -18 10 -28c0 -13.333 -5.33301 -22.333 -16 -27l-121 -61c-4 -2 -8 -3 -12 -3c-9.33301 0 -17.5 4.33301 -24.5 13s-10.5 18 -10.5 28zM55 35v405
c0 10 4.83301 18.167 14.5 24.5s22.167 9.5 37.5 9.5s28 -3.16699 38 -9.5s15 -14.5 15 -24.5v-405c0 -8.66699 -5.16699 -16.667 -15.5 -24s-22.833 -11 -37.5 -11s-27 3.66699 -37 11s-15 15.333 -15 24z" />
    <glyph glyph-name="icircumflex" unicode="&#xee;" 
d="M-31 617c0 14 5.99805 24.333 17.998 31l104 56c6.66699 3.33301 12.334 5 17.001 5c6 0 11.667 -1.66699 17 -5l104 -55c12.667 -8 19 -19 19 -33c0 -8.66699 -2.5 -16.5 -7.5 -23.5s-11.167 -10.5 -18.5 -10.5c-1.33301 0 -3.33301 0.333008 -6 1
c-1.33301 1.33301 -2.66602 2 -3.99902 2l-104 56l-104 -56c-2.66699 -2 -5.66699 -3 -9 -3c-7.33301 0 -13.5 3.5 -18.5 10.5s-7.5 15.167 -7.5 24.5zM54.998 35v405c0 10 4.83301 18.167 14.5 24.5s22.167 9.5 37.5 9.5s28 -3.16699 38 -9.5s15 -14.5 15 -24.5v-405
c0 -8.66699 -5.16699 -16.667 -15.5 -24s-22.833 -11 -37.5 -11s-27 3.66699 -37 11s-15 15.333 -15 24z" />
    <glyph glyph-name="idieresis" unicode="&#xef;" 
d="M-5 630c0 12.667 4.5 23.5 13.5 32.5s19.833 13.5 32.5 13.5s23.167 -4.5 31.5 -13.5s12.5 -19.833 12.5 -32.5s-4.33301 -23.667 -13 -33s-19 -14 -31 -14c-12.667 0 -23.5 4.66699 -32.5 14s-13.5 20.333 -13.5 33zM55 35v405c0 10 4.83301 18.167 14.5 24.5
s22.167 9.5 37.5 9.5s28 -3.16699 38 -9.5s15 -14.5 15 -24.5v-405c0 -8.66699 -5.16699 -16.667 -15.5 -24s-22.833 -11 -37.5 -11s-27 3.66699 -37 11s-15 15.333 -15 24zM135 630c0 12.667 4.33301 23.5 13 32.5s19.334 13.5 32.001 13.5s23.334 -4.5 32.001 -13.5
s13 -19.833 13 -32.5s-4.33301 -23.667 -13 -33s-19.334 -14 -32.001 -14s-23.334 4.66699 -32.001 14s-13 20.333 -13 33z" />
    <glyph glyph-name="eth" unicode="&#xf0;" horiz-adv-x="502" 
d="M37 191l-0.00292969 92.002c0 54 17.333 100.333 52 139s76.334 58 125.001 58c29.333 0 56.5 -7.5 81.5 -22.5s42.167 -34.167 51.5 -57.5c-4 67.333 -22.333 126.666 -55 177.999l-64 -38c-3.33301 -2.66699 -7.33301 -4 -12 -4c-9.33301 0 -18 4.83301 -26 14.5
s-12 19.5 -12 29.5s4.33301 17.333 13 22l57 34c-18 19.333 -38.667 30 -62 32c-15.333 10 -23 22.333 -23 37c0 12.667 4.33301 24.5 13 35.5s22.334 16.5 41.001 16.5c43.333 0 84 -22 122 -66l62 36c4 2 8 3 12 3c9.33301 0 18 -4.5 26 -13.5s12 -18.5 12 -28.5
c0 -8.66699 -4.33301 -16.334 -13 -23.001l-59 -35c48.667 -83.333 73 -176 73 -278v-161c0 -52.667 -20.667 -99 -62 -139s-89.666 -60 -144.999 -60c-56 0 -104.667 20 -146 60s-62 86.333 -62 139zM141.997 191.002c0 -27.333 10.168 -51.833 30.501 -73.5
s44.5 -32.5 72.5 -32.5c27.333 0 51.166 10.833 71.499 32.5s30.5 46.167 30.5 73.5v94c0 28 -10.5 52 -31.5 72s-45.167 30 -72.5 30c-28 0 -51.833 -10.667 -71.5 -32s-29.5 -45.333 -29.5 -72v-92z" />
    <glyph glyph-name="ntilde" unicode="&#xf1;" horiz-adv-x="513" 
d="M55 35l-0.000976562 405c0 10 4.83301 18.167 14.5 24.5s22.167 9.5 37.5 9.5c13.333 0 24.5 -3.16699 33.5 -9.5s13.5 -14.5 13.5 -24.5v-36c10.667 21.333 27.834 39.333 51.501 54s51.167 22 82.5 22c47.333 0 88.166 -19.333 122.499 -58s51.5 -85 51.5 -139v-248
c0 -10.667 -5.16699 -19.167 -15.5 -25.5s-22.833 -9.5 -37.5 -9.5c-13.333 0 -25.333 3.16699 -36 9.5s-16 14.833 -16 25.5v248c0 26.667 -10 50.667 -30 72s-43.667 32 -71 32c-25.333 0 -47.666 -9.5 -66.999 -28.5s-29 -44.167 -29 -75.5v-248
c0 -8.66699 -5.33301 -16.667 -16 -24s-23 -11 -37 -11c-14.667 0 -27 3.66699 -37 11s-15 15.333 -15 24zM89.999 636c0 22.667 9.66699 39.001 29 49.001s38.666 15 57.999 15c18.667 0 41.834 -5.16699 69.501 -15.5s50.5 -15.5 68.5 -15.5c16 0 31.667 4.16699 47 12.5
s25.333 12.5 30 12.5c9.33301 0 16.333 -4 21 -12s7 -15.333 7 -22c0 -24 -9.33301 -40.667 -28 -50s-37.667 -14 -57 -14c-21.333 0 -45.666 5.16699 -72.999 15.5s-49.333 15.5 -66 15.5c-16 0 -31.833 -4.5 -47.5 -13.5s-25.834 -13.5 -30.501 -13.5
c-9.33301 0 -16.333 4.16699 -21 12.5s-7 16.166 -7 23.499z" />
    <glyph glyph-name="ograve" unicode="&#xf2;" horiz-adv-x="487" 
d="M36 191v92c0 52.667 20.333 98.667 61 138s89.334 59 146.001 59c55.333 0 103.666 -19.5 144.999 -58.5s62 -85.167 62 -138.5v-92c0 -52 -20.833 -98.167 -62.5 -138.5s-89.834 -60.5 -144.501 -60.5c-55.333 0 -103.666 20 -144.999 60s-62 86.333 -62 139zM141 191
c0 -27.333 10 -51.833 30 -73.5s44 -32.5 72 -32.5c27.333 0 51.166 10.833 71.499 32.5s30.5 46.167 30.5 73.5v92c0 26.667 -10.167 50.667 -30.5 72s-44.166 32 -71.499 32c-28 0 -52 -10.667 -72 -32s-30 -45.333 -30 -72v-92zM142 668c0 10 3.33301 19.333 10 28
s14.667 13 24 13c2 0 5.66699 -0.666992 11 -2l124 -63c10 -5.33301 15 -14 15 -26c0 -10 -3.33301 -19.333 -10 -28s-14.667 -13 -24 -13c-4.66699 0 -9 1 -13 3l-121 61c-10.667 4.66699 -16 13.667 -16 27z" />
    <glyph glyph-name="oacute" unicode="&#xf3;" horiz-adv-x="487" 
d="M36 191v92c0 52.667 20.333 98.667 61 138s89.334 59 146.001 59c55.333 0 103.666 -19.5 144.999 -58.5s62 -85.167 62 -138.5v-92c0 -52 -20.833 -98.167 -62.5 -138.5s-89.834 -60.5 -144.501 -60.5c-55.333 0 -103.666 20 -144.999 60s-62 86.333 -62 139zM141 191
c0 -27.333 10 -51.833 30 -73.5s44 -32.5 72 -32.5c27.333 0 51.166 10.833 71.499 32.5s30.5 46.167 30.5 73.5v92c0 26.667 -10.167 50.667 -30.5 72s-44.166 32 -71.499 32c-28 0 -52 -10.667 -72 -32s-30 -45.333 -30 -72v-92zM153 618c0 12 5 20.667 15 26l124 63
c5.33301 1.33301 9 2 11 2c9.33301 0 17.333 -4.33301 24 -13s10 -18 10 -28c0 -13.333 -5.33301 -22.333 -16 -27l-121 -61c-4 -2 -8 -3 -12 -3c-9.33301 0 -17.5 4.33301 -24.5 13s-10.5 18 -10.5 28z" />
    <glyph glyph-name="ocircumflex" unicode="&#xf4;" horiz-adv-x="487" 
d="M36 191v92c0 52.667 20.333 98.667 61 138s89.334 59 146.001 59c55.333 0 103.666 -19.5 144.999 -58.5s62 -85.167 62 -138.5v-92c0 -52 -20.833 -98.167 -62.5 -138.5s-89.834 -60.5 -144.501 -60.5c-55.333 0 -103.666 20 -144.999 60s-62 86.333 -62 139zM103 617
c0 14 5.99805 24.333 17.998 31l104 56c6.66699 3.33301 12.334 5 17.001 5c6 0 11.667 -1.66699 17 -5l104 -55c12.667 -8 19 -19 19 -33c0 -8.66699 -2.5 -16.5 -7.5 -23.5s-11.167 -10.5 -18.5 -10.5c-1.33301 0 -3.33301 0.333008 -6 1
c-1.33301 1.33301 -2.66602 2 -3.99902 2l-104 56l-104 -56c-2.66699 -2 -5.66699 -3 -9 -3c-7.33301 0 -13.5 3.5 -18.5 10.5s-7.5 15.167 -7.5 24.5zM140.998 191c0 -27.333 10 -51.833 30 -73.5s44 -32.5 72 -32.5c27.333 0 51.166 10.833 71.499 32.5
s30.5 46.167 30.5 73.5v92c0 26.667 -10.167 50.667 -30.5 72s-44.166 32 -71.499 32c-28 0 -52 -10.667 -72 -32s-30 -45.333 -30 -72v-92z" />
    <glyph glyph-name="otilde" unicode="&#xf5;" horiz-adv-x="487" 
d="M36 191v92c0 52.667 20.333 98.667 61 138s89.334 59 146.001 59c55.333 0 103.666 -19.5 144.999 -58.5s62 -85.167 62 -138.5v-92c0 -52 -20.833 -98.167 -62.5 -138.5s-89.834 -60.5 -144.501 -60.5c-55.333 0 -103.666 20 -144.999 60s-62 86.333 -62 139zM79 636
c0 22.667 9.66699 39.001 29 49.001s38.666 15 57.999 15c18.667 0 41.834 -5.16699 69.501 -15.5s50.5 -15.5 68.5 -15.5c16 0 31.667 4.16699 47 12.5s25.333 12.5 30 12.5c9.33301 0 16.333 -4 21 -12s7 -15.333 7 -22c0 -24 -9.33301 -40.667 -28 -50
s-37.667 -14 -57 -14c-21.333 0 -45.666 5.16699 -72.999 15.5s-49.333 15.5 -66 15.5c-16 0 -31.833 -4.5 -47.5 -13.5s-25.834 -13.5 -30.501 -13.5c-9.33301 0 -16.333 4.16699 -21 12.5s-7 16.166 -7 23.499zM141 191.001c0 -27.333 10 -51.833 30 -73.5
s44 -32.5 72 -32.5c27.333 0 51.166 10.833 71.499 32.5s30.5 46.167 30.5 73.5v92c0 26.667 -10.167 50.667 -30.5 72s-44.166 32 -71.499 32c-28 0 -52 -10.667 -72 -32s-30 -45.333 -30 -72v-92z" />
    <glyph glyph-name="odieresis" unicode="&#xf6;" horiz-adv-x="487" 
d="M36 191v92c0 52.667 20.333 98.667 61 138s89.334 59 146.001 59c55.333 0 103.666 -19.5 144.999 -58.5s62 -85.167 62 -138.5v-92c0 -52 -20.833 -98.167 -62.5 -138.5s-89.834 -60.5 -144.501 -60.5c-55.333 0 -103.666 20 -144.999 60s-62 86.333 -62 139zM128 630
c0 12.667 4.5 23.5 13.5 32.5s19.833 13.5 32.5 13.5s23.167 -4.5 31.5 -13.5s12.5 -19.833 12.5 -32.5s-4.33301 -23.667 -13 -33s-19 -14 -31 -14c-12.667 0 -23.5 4.66699 -32.5 14s-13.5 20.333 -13.5 33zM141 191c0 -27.333 10 -51.833 30 -73.5s44 -32.5 72 -32.5
c27.333 0 51.166 10.833 71.499 32.5s30.5 46.167 30.5 73.5v92c0 26.667 -10.167 50.667 -30.5 72s-44.166 32 -71.499 32c-28 0 -52 -10.667 -72 -32s-30 -45.333 -30 -72v-92zM268 630c0 12.667 4.33301 23.5 13 32.5s19.334 13.5 32.001 13.5s23.334 -4.5 32.001 -13.5
s13 -19.833 13 -32.5s-4.33301 -23.667 -13 -33s-19.334 -14 -32.001 -14s-23.334 4.66699 -32.001 14s-13 20.333 -13 33z" />
    <glyph glyph-name="divide" unicode="&#xf7;" horiz-adv-x="446" 
d="M28 239c0 12 3.33301 21.998 10 29.998s15.334 12 26.001 12h318c9.33301 0 17.666 -4.16699 24.999 -12.5s11 -18.166 11 -29.499c0 -12 -3.66699 -22 -11 -30s-15.666 -12 -24.999 -12h-318c-10.667 0 -19.334 3.83301 -26.001 11.5s-10 17.834 -10 30.501zM163 71.998
c0 15.333 5.66699 28.166 17 38.499s24.666 15.5 39.999 15.5c14.667 0 27.667 -5.16699 39 -15.5s17 -23.166 17 -38.499c0 -14.667 -5.83301 -27.5 -17.5 -38.5s-24.5 -16.5 -38.5 -16.5c-15.333 0 -28.666 5.5 -39.999 16.5s-17 23.833 -17 38.5zM163 406.998
c0 14.667 5.66699 27.5 17 38.5s24.666 16.5 39.999 16.5c14 0 26.833 -5.5 38.5 -16.5s17.5 -23.833 17.5 -38.5c0 -15.333 -5.66699 -28.333 -17 -39s-24.333 -16 -39 -16c-15.333 0 -28.666 5.33301 -39.999 16s-17 23.667 -17 39z" />
    <glyph glyph-name="oslash" unicode="&#xf8;" horiz-adv-x="487" 
d="M36 191l0.000976562 91.9971c0 52.667 20.333 98.667 61 138s89.334 59 146.001 59c37.333 0 73 -10 107 -30l32 49c4.66699 7.33301 10.667 11 18 11s13.666 -2.66699 18.999 -8s8 -11.666 8 -18.999c0 -3.33301 -2 -9 -6 -17l-31 -47c40 -38 60 -83.333 60 -136v-92
c0 -52 -20.833 -98.167 -62.5 -138.5s-89.834 -60.5 -144.501 -60.5c-41.333 0 -79 11.333 -113 34l-32 -49c-4 -6 -9.66699 -9 -17 -9c-6 0 -11.667 2.33301 -17 7s-8 10.334 -8 17.001c0 4.66699 1.66699 9.33398 5 14.001l32 50c-38 39.333 -57 84.333 -57 135z
M141.001 190.997c0 -17.333 3.33301 -32.667 10 -46l146 224c-17.333 12 -35.333 18 -54 18c-28 0 -52 -10.667 -72 -32s-30 -45.333 -30 -72v-92zM183.001 105.996c18 -14 38.001 -21 60.001 -21c27.333 0 51.166 10.833 71.499 32.5s30.5 46.167 30.5 73.5v92
c0 16 -4.33301 32 -13 48z" />
    <glyph glyph-name="ugrave" unicode="&#xf9;" horiz-adv-x="515" 
d="M51 189v250c0 9.33301 5.33301 17.5 16 24.5s23 10.5 37 10.5s26.167 -3.5 36.5 -10.5s15.5 -15.167 15.5 -24.5v-250c0 -26.667 10.167 -50.667 30.5 -72s44.166 -32 71.499 -32c28 0 52 10.5 72 31.5s30 45.167 30 72.5v251c0 9.33301 5.16699 17.333 15.5 24
s22.833 10 37.5 10s26.834 -3.33301 36.501 -10s14.5 -14.667 14.5 -24v-251c0 -52.667 -20.333 -98.667 -61 -138s-89 -59 -145 -59s-104.5 19.667 -145.5 59s-61.5 85.333 -61.5 138zM156 668c0 10 3.33301 19.333 10 28s14.667 13 24 13c2 0 5.66699 -0.666992 11 -2
l124 -63c10 -5.33301 15 -14 15 -26c0 -10 -3.33301 -19.333 -10 -28s-14.667 -13 -24 -13c-4.66699 0 -9 1 -13 3l-121 61c-10.667 4.66699 -16 13.667 -16 27z" />
    <glyph glyph-name="uacute" unicode="&#xfa;" horiz-adv-x="515" 
d="M51 189v250c0 9.33301 5.33301 17.5 16 24.5s23 10.5 37 10.5s26.167 -3.5 36.5 -10.5s15.5 -15.167 15.5 -24.5v-250c0 -26.667 10.167 -50.667 30.5 -72s44.166 -32 71.499 -32c28 0 52 10.5 72 31.5s30 45.167 30 72.5v251c0 9.33301 5.16699 17.333 15.5 24
s22.833 10 37.5 10s26.834 -3.33301 36.501 -10s14.5 -14.667 14.5 -24v-251c0 -52.667 -20.333 -98.667 -61 -138s-89 -59 -145 -59s-104.5 19.667 -145.5 59s-61.5 85.333 -61.5 138zM174 618c0 12 5 20.667 15 26l124 63c5.33301 1.33301 9 2 11 2
c9.33301 0 17.333 -4.33301 24 -13s10 -18 10 -28c0 -13.333 -5.33301 -22.333 -16 -27l-121 -61c-4 -2 -8 -3 -12 -3c-9.33301 0 -17.5 4.33301 -24.5 13s-10.5 18 -10.5 28z" />
    <glyph glyph-name="ucircumflex" unicode="&#xfb;" horiz-adv-x="515" 
d="M51 189v250c0 9.33301 5.33301 17.5 16 24.5s23 10.5 37 10.5s26.167 -3.5 36.5 -10.5s15.5 -15.167 15.5 -24.5v-250c0 -26.667 10.167 -50.667 30.5 -72s44.166 -32 71.499 -32c28 0 52 10.5 72 31.5s30 45.167 30 72.5v251c0 9.33301 5.16699 17.333 15.5 24
s22.833 10 37.5 10s26.834 -3.33301 36.501 -10s14.5 -14.667 14.5 -24v-251c0 -52.667 -20.333 -98.667 -61 -138s-89 -59 -145 -59s-104.5 19.667 -145.5 59s-61.5 85.333 -61.5 138zM119 617c0 14 5.99805 24.333 17.998 31l104 56c6.66699 3.33301 12.334 5 17.001 5
c6 0 11.667 -1.66699 17 -5l104 -55c12.667 -8 19 -19 19 -33c0 -8.66699 -2.5 -16.5 -7.5 -23.5s-11.167 -10.5 -18.5 -10.5c-1.33301 0 -3.33301 0.333008 -6 1c-1.33301 1.33301 -2.66602 2 -3.99902 2l-104 56l-104 -56c-2.66699 -2 -5.66699 -3 -9 -3
c-7.33301 0 -13.5 3.5 -18.5 10.5s-7.5 15.167 -7.5 24.5z" />
    <glyph glyph-name="udieresis" unicode="&#xfc;" horiz-adv-x="515" 
d="M51 189v250c0 9.33301 5.33301 17.5 16 24.5s23 10.5 37 10.5s26.167 -3.5 36.5 -10.5s15.5 -15.167 15.5 -24.5v-250c0 -26.667 10.167 -50.667 30.5 -72s44.166 -32 71.499 -32c28 0 52 10.5 72 31.5s30 45.167 30 72.5v251c0 9.33301 5.16699 17.333 15.5 24
s22.833 10 37.5 10s26.834 -3.33301 36.501 -10s14.5 -14.667 14.5 -24v-251c0 -52.667 -20.333 -98.667 -61 -138s-89 -59 -145 -59s-104.5 19.667 -145.5 59s-61.5 85.333 -61.5 138zM143 630c0 12.667 4.5 23.5 13.5 32.5s19.833 13.5 32.5 13.5s23.167 -4.5 31.5 -13.5
s12.5 -19.833 12.5 -32.5s-4.33301 -23.667 -13 -33s-19 -14 -31 -14c-12.667 0 -23.5 4.66699 -32.5 14s-13.5 20.333 -13.5 33zM283 630c0 12.667 4.33301 23.5 13 32.5s19.334 13.5 32.001 13.5s23.334 -4.5 32.001 -13.5s13 -19.833 13 -32.5s-4.33301 -23.667 -13 -33
s-19.334 -14 -32.001 -14s-23.334 4.66699 -32.001 14s-13 20.333 -13 33z" />
    <glyph glyph-name="yacute" unicode="&#xfd;" horiz-adv-x="457" 
d="M10 -180c0 30 9.66602 45 28.999 45c30 0 59.667 14.333 89 43s47.333 69 54 121l-168 388c-2.66699 3.33301 -4 8 -4 14c0 12.667 7.66699 24.167 23 34.5s30.666 15.5 45.999 15.5c16.667 0 27.334 -6.33301 32.001 -19l126 -325l108 325c6 12.667 16 19 30 19
s29.167 -5.16699 45.5 -15.5s24.5 -22.5 24.5 -36.5c0 -6 -0.666992 -10 -2 -12l-148 -391l-17 -45l-18.5 -43c-8.33301 -19.333 -15.5 -34 -21.5 -44l-24 -37c-10 -15.333 -20 -26.833 -30 -34.5s-21.333 -15.667 -34 -24s-26.667 -14.333 -42 -18
s-31.666 -5.5 -48.999 -5.5c-32.667 0 -49 15 -49 45zM164.999 618c0 12 5 20.667 15 26l124 63c5.33301 1.33301 9 2 11 2c9.33301 0 17.333 -4.33301 24 -13s10 -18 10 -28c0 -13.333 -5.33301 -22.333 -16 -27l-121 -61c-4 -2 -8 -3 -12 -3
c-9.33301 0 -17.5 4.33301 -24.5 13s-10.5 18 -10.5 28z" />
    <glyph glyph-name="thorn" unicode="&#xfe;" horiz-adv-x="506" 
d="M56 -190l0.000976562 912.001c0 10 4.83301 18.167 14.5 24.5s21.5 9.5 35.5 9.5c15.333 0 28.333 -3.16699 39 -9.5s16 -14.5 16 -24.5v-318c11.333 21.333 28.333 39.333 51 54s48.334 22 77.001 22c50 0 92.5 -19.333 127.5 -58s52.5 -85 52.5 -139v-92
c0 -52 -17.667 -98.167 -53 -138.5s-76.333 -60.5 -123 -60.5c-28.667 0 -55.167 7.66699 -79.5 23s-41.833 33.666 -52.5 54.999v-260c0 -9.33301 -5.33301 -17.5 -16 -24.5s-23.334 -10.5 -38.001 -10.5s-26.834 3.5 -36.501 10.5s-14.5 15.167 -14.5 24.5z
M161.001 168.001c0 -14.667 10.166 -32.167 30.499 -52.5s43.833 -30.5 70.5 -30.5s50.334 10.833 71.001 32.5s31 46.167 31 73.5v92c0 26.667 -10.333 50.667 -31 72s-45 32 -73 32c-26 0 -49 -9.5 -69 -28.5s-30 -44.167 -30 -75.5v-115z" />
    <glyph glyph-name="ydieresis" unicode="&#xff;" horiz-adv-x="457" 
d="M10 -180c0 30 9.66602 45 28.999 45c30 0 59.667 14.333 89 43s47.333 69 54 121l-168 388c-2.66699 3.33301 -4 8 -4 14c0 12.667 7.66699 24.167 23 34.5s30.666 15.5 45.999 15.5c16.667 0 27.334 -6.33301 32.001 -19l126 -325l108 325c6 12.667 16 19 30 19
s29.167 -5.16699 45.5 -15.5s24.5 -22.5 24.5 -36.5c0 -6 -0.666992 -10 -2 -12l-148 -391l-17 -45l-18.5 -43c-8.33301 -19.333 -15.5 -34 -21.5 -44l-24 -37c-10 -15.333 -20 -26.833 -30 -34.5s-21.333 -15.667 -34 -24s-26.667 -14.333 -42 -18
s-31.666 -5.5 -48.999 -5.5c-32.667 0 -49 15 -49 45zM120.999 630c0 12.667 4.5 23.5 13.5 32.5s19.833 13.5 32.5 13.5s23.167 -4.5 31.5 -13.5s12.5 -19.833 12.5 -32.5s-4.33301 -23.667 -13 -33s-19 -14 -31 -14c-12.667 0 -23.5 4.66699 -32.5 14
s-13.5 20.333 -13.5 33zM260.999 630c0 12.667 4.33301 23.5 13 32.5s19.334 13.5 32.001 13.5s23.334 -4.5 32.001 -13.5s13 -19.833 13 -32.5s-4.33301 -23.667 -13 -33s-19.334 -14 -32.001 -14s-23.334 4.66699 -32.001 14s-13 20.333 -13 33z" />
    <glyph glyph-name="Amacron" unicode="&#x100;" horiz-adv-x="562" 
d="M14 44c0 4 0.333008 7 1 9l199 648c8 24 30.333 36 67 36c37.333 0 60 -12 68 -36l198 -648c1.33301 -4 2 -7 2 -9c0 -12 -7.16699 -22.333 -21.5 -31s-29.5 -13 -45.5 -13c-19.333 -0 -31.333 7.33301 -36 22l-41 142h-247l-41 -142c-4.66699 -14.667 -17 -22 -37 -22
c-16 -0 -31 4.33301 -45 13s-21 19 -21 31zM142 902c0 10.667 3.16699 19.5 9.5 26.5s14.5 10.5 24.5 10.5h209c9.33301 0 17.5 -3.66699 24.5 -11s10.5 -16 10.5 -26s-3.5 -18.333 -10.5 -25s-15.167 -10 -24.5 -10h-209c-10 0 -18.167 3.16699 -24.5 9.5
s-9.5 14.833 -9.5 25.5zM181 249h200l-100 343z" />
    <glyph glyph-name="amacron" unicode="&#x101;" horiz-adv-x="460" 
d="M25 124c0 53.333 20 90.5 60 111.5s98 31.5 174 31.5h44v18c0 29.333 -8.16699 54.666 -24.5 75.999s-41.166 32 -74.499 32c-28.667 0 -53.834 -5 -75.501 -15s-33.5 -15 -35.5 -15c-11.333 0 -20.5 5.5 -27.5 16.5s-10.5 23.167 -10.5 36.5
c0 17.333 16.167 32.333 48.5 45s66.5 19 102.5 19c68.667 0 119.5 -18.5 152.5 -55.5s49.5 -83.167 49.5 -138.5v-251c0 -9.33301 -4.83301 -17.5 -14.5 -24.5s-21.834 -10.5 -36.501 -10.5c-13.333 0 -24.666 3.5 -33.999 10.5s-14 15.167 -14 24.5v35
c-44.667 -52 -95 -78 -151 -78c-38.667 0 -70.5 11.333 -95.5 34s-37.5 55.334 -37.5 98.001zM86 655c0 10.667 3.16699 19.5 9.5 26.5s14.5 10.5 24.5 10.5h209c9.33301 0 17.5 -3.66699 24.5 -11s10.5 -16 10.5 -26s-3.5 -18.333 -10.5 -25s-15.167 -10 -24.5 -10h-209
c-10 0 -18.167 3.16699 -24.5 9.5s-9.5 14.833 -9.5 25.5zM131 137c0 -21.333 6 -37.5 18 -48.5s27.667 -16.5 47 -16.5c25.333 0 49.5 10.667 72.5 32s34.5 44 34.5 68v37h-25c-30 0 -54.5 -1.33301 -73.5 -4s-36 -9.66699 -51 -21s-22.5 -27 -22.5 -47z" />
    <glyph glyph-name="Abreve" unicode="&#x102;" horiz-adv-x="562" 
d="M14 44c0 4 0.333008 7 1 9l199 648c8 24 30.333 36 67 36c37.333 0 60 -12 68 -36l198 -648c1.33301 -4 2 -7 2 -9c0 -12 -7.16699 -22.333 -21.5 -31s-29.5 -13 -45.5 -13c-19.333 -0 -31.333 7.33301 -36 22l-41 142h-247l-41 -142c-4.66699 -14.667 -17 -22 -37 -22
c-16 -0 -31 4.33301 -45 13s-21 19 -21 31zM154 965l60.001 -0.000976562c0 -21.333 6.83301 -39.5 20.5 -54.5s29.167 -22.5 46.5 -22.5s32.666 7.5 45.999 22.5s20 33.167 20 54.5h61c0 -33.333 -13 -62.666 -39 -87.999s-55.333 -38 -88 -38
c-33.333 0 -62.833 12.5 -88.5 37.5s-38.5 54.5 -38.5 88.5zM181.001 248.999h200l-100 343z" />
    <glyph glyph-name="abreve" unicode="&#x103;" horiz-adv-x="460" 
d="M25 124c0 53.333 20 90.5 60 111.5s98 31.5 174 31.5h44v18c0 29.333 -8.16699 54.666 -24.5 75.999s-41.166 32 -74.499 32c-28.667 0 -53.834 -5 -75.501 -15s-33.5 -15 -35.5 -15c-11.333 0 -20.5 5.5 -27.5 16.5s-10.5 23.167 -10.5 36.5
c0 17.333 16.167 32.333 48.5 45s66.5 19 102.5 19c68.667 0 119.5 -18.5 152.5 -55.5s49.5 -83.167 49.5 -138.5v-251c0 -9.33301 -4.83301 -17.5 -14.5 -24.5s-21.834 -10.5 -36.501 -10.5c-13.333 0 -24.666 3.5 -33.999 10.5s-14 15.167 -14 24.5v35
c-44.667 -52 -95 -78 -151 -78c-38.667 0 -70.5 11.333 -95.5 34s-37.5 55.334 -37.5 98.001zM96 718l60.001 -0.000976562c0 -21.333 6.83301 -39.5 20.5 -54.5s29.167 -22.5 46.5 -22.5s32.666 7.5 45.999 22.5s20 33.167 20 54.5h61c0 -33.333 -13 -62.666 -39 -87.999
s-55.333 -38 -88 -38c-33.333 0 -62.833 12.5 -88.5 37.5s-38.5 54.5 -38.5 88.5zM131.001 136.999c0 -21.333 6 -37.5 18 -48.5s27.667 -16.5 47 -16.5c25.333 0 49.5 10.667 72.5 32s34.5 44 34.5 68v37h-25c-30 0 -54.5 -1.33301 -73.5 -4s-36 -9.66699 -51 -21
s-22.5 -27 -22.5 -47z" />
    <glyph glyph-name="Aogonek" unicode="&#x104;" horiz-adv-x="562" 
d="M14 44c0 4 0.333008 6.99902 1 8.99902l199 648c8 24 30.333 36 67 36c37.333 0 60 -12 68 -36l198 -648c1.33301 -4 2 -7 2 -9c0 -8 -3.66699 -15.5 -11 -22.5s-16.333 -12.5 -27 -16.5c-50 -36 -75 -76 -75 -120c0 -30.667 20 -46 60 -46c14.667 0 22 -8.33301 22 -25
c0 -14.667 -9.33301 -22 -28 -22c-33.333 0 -59.833 7.5 -79.5 22.5s-29.5 35.5 -29.5 61.5c0 50.667 23.667 95.334 71 134.001c-2.66699 2.66699 -4.66699 6.66699 -6 12l-41 142h-247l-41 -142c-4.66699 -14.667 -17 -22 -37 -22c-16 -0 -31 4.33301 -45 13
s-21 19 -21 31zM181 248.999h200l-100 343z" />
    <glyph glyph-name="aogonek" unicode="&#x105;" horiz-adv-x="460" 
d="M25 124c0 53.333 20 90.5 60 111.5s98 31.5 174 31.5h44v18c0 29.333 -8.16699 54.666 -24.5 75.999s-41.166 32 -74.499 32c-28.667 0 -53.834 -5 -75.501 -15s-33.5 -15 -35.5 -15c-11.333 0 -20.5 5.5 -27.5 16.5s-10.5 23.167 -10.5 36.5
c0 17.333 16.167 32.333 48.5 45s66.5 19 102.5 19c68.667 0 119.5 -18.5 152.5 -55.5s49.5 -83.167 49.5 -138.5v-251c0 -12.667 -7.33301 -22.334 -22 -29.001c-22.667 -16 -41 -34.833 -55 -56.5s-21 -43.167 -21 -64.5c0 -30.667 20 -46 60 -46
c14.667 0 22 -8.33301 22 -25c0 -14.667 -9.33301 -22 -28 -22c-33.333 0 -59.833 7.5 -79.5 22.5s-29.5 35.5 -29.5 61.5c0 50 23 94.333 69 133c-10 6.66699 -15 15.334 -15 26.001v35c-44.667 -52 -95 -78 -151 -78c-38.667 0 -70.5 11.333 -95.5 34
s-37.5 55.334 -37.5 98.001zM131 137c0 -21.333 6 -37.5 18 -48.5s27.667 -16.5 47 -16.5c25.333 0 49.5 10.667 72.5 32s34.5 44 34.5 68v37h-25c-30 0 -54.5 -1.33301 -73.5 -4s-36 -9.66699 -51 -21s-22.5 -27 -22.5 -47z" />
    <glyph glyph-name="Cacute" unicode="&#x106;" horiz-adv-x="541" 
d="M59 217l0.00195312 291c0 76.667 20.5 133 61.5 169s94.5 54 160.5 54c68 0 122.833 -16.833 164.5 -50.5s62.5 -77.167 62.5 -130.5c0 -21.333 -4 -35.833 -12 -43.5s-21.667 -11.5 -41 -11.5c-34.667 0 -52.334 11.667 -53.001 35c-4 71.333 -43 107 -117 107
c-80 0 -120 -43 -120 -129v-291c0 -86 40.667 -129 122 -129c24 0 44 3.5 60 10.5s27.5 17.167 34.5 30.5s11.833 25 14.5 35s4.66699 22.333 6 37c2 23.333 19.333 35 52 35c19.333 0 33.166 -3.83301 41.499 -11.5s12.5 -22.167 12.5 -43.5
c0 -55.333 -21 -100.333 -63 -135s-97 -52 -165 -52c-66 0 -119.333 18 -160 54s-61 92.333 -61 169zM205.002 865c0 12 5 20.667 15 26l124 63c5.33301 1.33301 9 2 11 2c9.33301 0 17.333 -4.33301 24 -13s10 -18 10 -28c0 -13.333 -5.33301 -22.333 -16 -27l-121 -61
c-4 -2 -8 -3 -12 -3c-9.33301 0 -17.5 4.33301 -24.5 13s-10.5 18 -10.5 28z" />
    <glyph glyph-name="cacute" unicode="&#x107;" horiz-adv-x="426" 
d="M39 191v89.999c0 59.333 17.333 107.333 52 144s86.334 55 155.001 55c43.333 0 79.666 -7.5 108.999 -22.5s44 -31.833 44 -50.5c0 -11.333 -4.16699 -22.666 -12.5 -33.999s-18.166 -17 -29.499 -17c-3.33301 0 -15.166 5.16699 -35.499 15.5s-42.833 15.5 -67.5 15.5
c-73.333 0 -110 -35.333 -110 -106v-90c0 -70.667 37 -106 111 -106c25.333 0 48.166 5.5 68.499 16.5s32.5 16.5 36.5 16.5c13.333 0 24.166 -5.33301 32.499 -16s12.5 -22 12.5 -34c0 -18.667 -15.333 -36 -46 -52s-68 -24 -112 -24c-69.333 0 -121.333 18.167 -156 54.5
s-52 84.5 -52 144.5zM144 617.999c0 12 5 20.667 15 26l124 63c5.33301 1.33301 9 2 11 2c9.33301 0 17.333 -4.33301 24 -13s10 -18 10 -28c0 -13.333 -5.33301 -22.333 -16 -27l-121 -61c-4 -2 -8 -3 -12 -3c-9.33301 0 -17.5 4.33301 -24.5 13s-10.5 18 -10.5 28z" />
    <glyph glyph-name="Ccircumflex" unicode="&#x108;" horiz-adv-x="541" 
d="M59 217l0.00195312 291c0 76.667 20.5 133 61.5 169s94.5 54 160.5 54c68 0 122.833 -16.833 164.5 -50.5s62.5 -77.167 62.5 -130.5c0 -21.333 -4 -35.833 -12 -43.5s-21.667 -11.5 -41 -11.5c-34.667 0 -52.334 11.667 -53.001 35c-4 71.333 -43 107 -117 107
c-80 0 -120 -43 -120 -129v-291c0 -86 40.667 -129 122 -129c24 0 44 3.5 60 10.5s27.5 17.167 34.5 30.5s11.833 25 14.5 35s4.66699 22.333 6 37c2 23.333 19.333 35 52 35c19.333 0 33.166 -3.83301 41.499 -11.5s12.5 -22.167 12.5 -43.5
c0 -55.333 -21 -100.333 -63 -135s-97 -52 -165 -52c-66 0 -119.333 18 -160 54s-61 92.333 -61 169zM143.002 864c0 14 5.99805 24.333 17.998 31l104 56c6.66699 3.33301 12.334 5 17.001 5c6 0 11.667 -1.66699 17 -5l104 -55c12.667 -8 19 -19 19 -33
c0 -8.66699 -2.5 -16.5 -7.5 -23.5s-11.167 -10.5 -18.5 -10.5c-1.33301 0 -3.33301 0.333008 -6 1c-1.33301 1.33301 -2.66602 2 -3.99902 2l-104 56l-104 -56c-2.66699 -2 -5.66699 -3 -9 -3c-7.33301 0 -13.5 3.5 -18.5 10.5s-7.5 15.167 -7.5 24.5z" />
    <glyph glyph-name="ccircumflex" unicode="&#x109;" horiz-adv-x="426" 
d="M39 191v89.999c0 59.333 17.333 107.333 52 144s86.334 55 155.001 55c43.333 0 79.666 -7.5 108.999 -22.5s44 -31.833 44 -50.5c0 -11.333 -4.16699 -22.666 -12.5 -33.999s-18.166 -17 -29.499 -17c-3.33301 0 -15.166 5.16699 -35.499 15.5s-42.833 15.5 -67.5 15.5
c-73.333 0 -110 -35.333 -110 -106v-90c0 -70.667 37 -106 111 -106c25.333 0 48.166 5.5 68.499 16.5s32.5 16.5 36.5 16.5c13.333 0 24.166 -5.33301 32.499 -16s12.5 -22 12.5 -34c0 -18.667 -15.333 -36 -46 -52s-68 -24 -112 -24c-69.333 0 -121.333 18.167 -156 54.5
s-52 84.5 -52 144.5zM91 616.999c0 14 5.99805 24.333 17.998 31l104 56c6.66699 3.33301 12.334 5 17.001 5c6 0 11.667 -1.66699 17 -5l104 -55c12.667 -8 19 -19 19 -33c0 -8.66699 -2.5 -16.5 -7.5 -23.5s-11.167 -10.5 -18.5 -10.5c-1.33301 0 -3.33301 0.333008 -6 1
c-1.33301 1.33301 -2.66602 2 -3.99902 2l-104 56l-104 -56c-2.66699 -2 -5.66699 -3 -9 -3c-7.33301 0 -13.5 3.5 -18.5 10.5s-7.5 15.167 -7.5 24.5z" />
    <glyph glyph-name="Cdotaccent" unicode="&#x10a;" horiz-adv-x="541" 
d="M59 217l0.00195312 291c0 76.667 20.5 133 61.5 169s94.5 54 160.5 54c68 0 122.833 -16.833 164.5 -50.5s62.5 -77.167 62.5 -130.5c0 -21.333 -4 -35.833 -12 -43.5s-21.667 -11.5 -41 -11.5c-34.667 0 -52.334 11.667 -53.001 35c-4 71.333 -43 107 -117 107
c-80 0 -120 -43 -120 -129v-291c0 -86 40.667 -129 122 -129c24 0 44 3.5 60 10.5s27.5 17.167 34.5 30.5s11.833 25 14.5 35s4.66699 22.333 6 37c2 23.333 19.333 35 52 35c19.333 0 33.166 -3.83301 41.499 -11.5s12.5 -22.167 12.5 -43.5
c0 -55.333 -21 -100.333 -63 -135s-97 -52 -165 -52c-66 0 -119.333 18 -160 54s-61 92.333 -61 169zM239.002 877c0 12.667 4.33301 23.5 13 32.5s19.334 13.5 32.001 13.5s23.334 -4.5 32.001 -13.5s13 -19.833 13 -32.5s-4.33301 -23.667 -13 -33
s-19.334 -14 -32.001 -14s-23.334 4.66699 -32.001 14s-13 20.333 -13 33z" />
    <glyph glyph-name="cdotaccent" unicode="&#x10b;" horiz-adv-x="426" 
d="M39 191v89.999c0 59.333 17.333 107.333 52 144s86.334 55 155.001 55c43.333 0 79.666 -7.5 108.999 -22.5s44 -31.833 44 -50.5c0 -11.333 -4.16699 -22.666 -12.5 -33.999s-18.166 -17 -29.499 -17c-3.33301 0 -15.166 5.16699 -35.499 15.5s-42.833 15.5 -67.5 15.5
c-73.333 0 -110 -35.333 -110 -106v-90c0 -70.667 37 -106 111 -106c25.333 0 48.166 5.5 68.499 16.5s32.5 16.5 36.5 16.5c13.333 0 24.166 -5.33301 32.499 -16s12.5 -22 12.5 -34c0 -18.667 -15.333 -36 -46 -52s-68 -24 -112 -24c-69.333 0 -121.333 18.167 -156 54.5
s-52 84.5 -52 144.5zM183 629.999c0 12.667 4.33301 23.5 13 32.5s19.334 13.5 32.001 13.5s23.334 -4.5 32.001 -13.5s13 -19.833 13 -32.5s-4.33301 -23.667 -13 -33s-19.334 -14 -32.001 -14s-23.334 4.66699 -32.001 14s-13 20.333 -13 33z" />
    <glyph glyph-name="Ccaron" unicode="&#x10c;" horiz-adv-x="541" 
d="M59 217l0.00195312 291c0 76.667 20.5 133 61.5 169s94.5 54 160.5 54c68 0 122.833 -16.833 164.5 -50.5s62.5 -77.167 62.5 -130.5c0 -21.333 -4 -35.833 -12 -43.5s-21.667 -11.5 -41 -11.5c-34.667 0 -52.334 11.667 -53.001 35c-4 71.333 -43 107 -117 107
c-80 0 -120 -43 -120 -129v-291c0 -86 40.667 -129 122 -129c24 0 44 3.5 60 10.5s27.5 17.167 34.5 30.5s11.833 25 14.5 35s4.66699 22.333 6 37c2 23.333 19.333 35 52 35c19.333 0 33.166 -3.83301 41.499 -11.5s12.5 -22.167 12.5 -43.5
c0 -55.333 -21 -100.333 -63 -135s-97 -52 -165 -52c-66 0 -119.333 18 -160 54s-61 92.333 -61 169zM143.002 946c0 8.66699 2.33105 16.334 6.99805 23.001s10.334 10 17.001 10c4.66699 0 9 -2 13 -6l101 -75l102 75c4 4 8.33301 6 13 6
c6.66699 0 12.334 -3.33301 17.001 -10s7 -14.334 7 -23.001c0 -14 -6 -25 -18 -33l-102 -75c-6.66699 -4.66699 -13 -7 -19 -7c-4.66699 0 -10.667 2.33301 -18 7l-103 75c-11.333 8.66699 -17 19.667 -17 33z" />
    <glyph glyph-name="ccaron" unicode="&#x10d;" horiz-adv-x="426" 
d="M39 191v89.999c0 59.333 17.333 107.333 52 144s86.334 55 155.001 55c43.333 0 79.666 -7.5 108.999 -22.5s44 -31.833 44 -50.5c0 -11.333 -4.16699 -22.666 -12.5 -33.999s-18.166 -17 -29.499 -17c-3.33301 0 -15.166 5.16699 -35.499 15.5s-42.833 15.5 -67.5 15.5
c-73.333 0 -110 -35.333 -110 -106v-90c0 -70.667 37 -106 111 -106c25.333 0 48.166 5.5 68.499 16.5s32.5 16.5 36.5 16.5c13.333 0 24.166 -5.33301 32.499 -16s12.5 -22 12.5 -34c0 -18.667 -15.333 -36 -46 -52s-68 -24 -112 -24c-69.333 0 -121.333 18.167 -156 54.5
s-52 84.5 -52 144.5zM87 698.999c0 8.66699 2.33105 16.334 6.99805 23.001s10.334 10 17.001 10c4.66699 0 9 -2 13 -6l101 -75l102 75c4 4 8.33301 6 13 6c6.66699 0 12.334 -3.33301 17.001 -10s7 -14.334 7 -23.001c0 -14 -6 -25 -18 -33l-102 -75
c-6.66699 -4.66699 -13 -7 -19 -7c-4.66699 0 -10.667 2.33301 -18 7l-103 75c-11.333 8.66699 -17 19.667 -17 33z" />
    <glyph glyph-name="Dcaron" unicode="&#x10e;" horiz-adv-x="573" 
d="M66 34v663c0 9.33301 4.5 17.333 13.5 24s20.167 10 33.5 10h177c68 0 122.5 -18 163.5 -54s61.5 -92.333 61.5 -169v-285c0 -76.667 -20.5 -133 -61.5 -169s-95.5 -54 -163.5 -54h-177c-13.333 -0 -24.5 3.33301 -33.5 10s-13.5 14.667 -13.5 24zM137 946
c0 8.66699 2.33105 16.334 6.99805 23.001s10.334 10 17.001 10c4.66699 0 9 -2 13 -6l101 -75l102 75c4 4 8.33301 6 13 6c6.66699 0 12.334 -3.33301 17.001 -10s7 -14.334 7 -23.001c0 -14 -6 -25 -18 -33l-102 -75c-6.66699 -4.66699 -13 -7 -19 -7
c-4.66699 0 -10.667 2.33301 -18 7l-103 75c-11.333 8.66699 -17 19.667 -17 33zM171.998 94h118c79.333 0 119 43 119 129v285c0 86 -39.667 129 -119 129h-118v-543z" />
    <glyph glyph-name="dcaron" unicode="&#x10f;" horiz-adv-x="507" 
d="M37 191l0.00195312 91.999c0 54 17.5 100.333 52.5 139s77.167 58 126.5 58c29.333 0 55.333 -7.33301 78 -22s40 -32.667 52 -54v318c0 10 5 18.167 15 24.5s22.667 9.5 38 9.5s27.833 -3.16699 37.5 -9.5s14.5 -14.5 14.5 -24.5v-687c0 -8.66699 -5 -16.667 -15 -24
s-22.333 -11 -37 -11c-12.667 0 -23.834 3.66699 -33.501 11s-14.5 15.333 -14.5 24v35c-10.667 -21.333 -28.834 -39.666 -54.501 -54.999s-53.5 -23 -83.5 -23c-46.667 0 -87.667 20.167 -123 60.5s-53 86.5 -53 138.5zM142.002 190.999c0 -27.333 10 -51.833 30 -73.5
s43.667 -32.5 71 -32.5c26 0 49.667 10.167 71 30.5s32 37.833 32 52.5v115c0 30.667 -10.333 55.667 -31 75s-44.334 29 -71.001 29c-27.333 0 -51.166 -10.667 -71.499 -32s-30.5 -45.333 -30.5 -72v-92zM504.002 680.999c0 16.667 5.66797 30.833 17.001 42.5
s25.333 17.5 42 17.5s30.834 -5.83301 42.501 -17.5s17.5 -25.5 17.5 -41.5c0 -14 -16.667 -58.667 -50 -134c-4.66699 -10 -12.334 -15 -23.001 -15c-8.66699 0 -16.834 2.66699 -24.501 8s-11.5 12.333 -11.5 21c0 5.33301 0.666992 9.33301 2 12l23 53
c-23.333 11.333 -35 29.333 -35 54z" />
    <glyph glyph-name="Dcroat" unicode="&#x110;" horiz-adv-x="581" 
d="M-4 383c0 10.667 2.66699 19.832 8 27.499s12.333 11.5 21 11.5h49v275c0 9.33301 4.5 17.333 13.5 24s20.167 10 33.5 10h177c68 0 122.5 -18 163.5 -54s61.5 -92.333 61.5 -169v-285c0 -76.667 -20.5 -133 -61.5 -169s-95.5 -54 -163.5 -54h-177
c-13.333 0 -24.5 3.33301 -33.5 10s-13.5 14.667 -13.5 24v310h-49c-8.66699 0 -15.667 3.83301 -21 11.5s-8 16.834 -8 27.501zM180 93.998l118 0.00195312c79.333 0 119 43 119 129v285c0 86 -39.667 129 -119 129h-118v-215h91c9.33301 0 16.666 -3.83301 21.999 -11.5
s8 -16.834 8 -27.501s-2.66699 -19.834 -8 -27.501s-12.666 -11.5 -21.999 -11.5h-91v-250z" />
    <glyph glyph-name="dcroat" unicode="&#x111;" horiz-adv-x="507" 
d="M37 191l0.00195312 91.999c0 54 17.5 100.333 52.5 139s77.167 58 126.5 58c29.333 0 55.333 -7.33301 78 -22s40 -32.667 52 -54v157h-94c-8.66699 0 -15.667 3.83301 -21 11.5s-8 16.834 -8 27.501s2.66699 20 8 28s12.333 12 21 12h94v82c0 10 5 18.167 15 24.5
s22.667 9.5 38 9.5s27.833 -3.16699 37.5 -9.5s14.5 -14.5 14.5 -24.5v-82h36c8.66699 0 15.834 -4 21.501 -12s8.5 -17.333 8.5 -28s-2.83301 -19.834 -8.5 -27.501s-12.834 -11.5 -21.501 -11.5h-36v-526c0 -8.66699 -5 -16.667 -15 -24s-22.333 -11 -37 -11
c-12.667 0 -23.834 3.66699 -33.501 11s-14.5 15.333 -14.5 24v35c-10.667 -21.333 -28.834 -39.666 -54.501 -54.999s-53.5 -23 -83.5 -23c-46.667 0 -87.667 20.167 -123 60.5s-53 86.5 -53 138.5zM142.002 190.999c0 -27.333 10 -51.833 30 -73.5s43.667 -32.5 71 -32.5
c26 0 49.667 10.167 71 30.5s32 37.833 32 52.5v115c0 30.667 -10.333 55.667 -31 75s-44.334 29 -71.001 29c-27.333 0 -51.166 -10.667 -71.499 -32s-30.5 -45.333 -30.5 -72v-92z" />
    <glyph glyph-name="Emacron" unicode="&#x112;" horiz-adv-x="523" 
d="M66 35v660.998c0 10.667 4.66699 19.167 14 25.5s20.333 9.5 33 9.5h356c11.333 0 20 -4.66699 26 -14s9 -20 9 -32c0 -13.333 -3.16699 -24.666 -9.5 -33.999s-14.833 -14 -25.5 -14h-297v-229h154c10.667 0 19.167 -4.16699 25.5 -12.5s9.5 -18.5 9.5 -30.5
c0 -10.667 -3 -20.167 -9 -28.5s-14.667 -12.5 -26 -12.5h-154v-230h297c10.667 0 19.167 -4.66699 25.5 -14s9.5 -20.666 9.5 -33.999c0 -12 -3 -22.667 -9 -32s-14.667 -14 -26 -14h-356c-12.667 0 -23.667 3.16699 -33 9.5s-14 14.833 -14 25.5zM149 901.998
c0 10.667 3.16699 19.5 9.5 26.5s14.5 10.5 24.5 10.5h209c9.33301 0 17.5 -3.66699 24.5 -11s10.5 -16 10.5 -26s-3.5 -18.333 -10.5 -25s-15.167 -10 -24.5 -10h-209c-10 0 -18.167 3.16699 -24.5 9.5s-9.5 14.833 -9.5 25.5z" />
    <glyph glyph-name="emacron" unicode="&#x113;" horiz-adv-x="474" 
d="M37 191l0.00195312 95c0 52.667 20.333 98.167 61 136.5s89.667 57.5 147 57.5c54.667 0 101.5 -17.5 140.5 -52.5s58.5 -79.167 58.5 -132.5c0 -20 -2.33301 -36.167 -7 -48.5s-12 -21 -22 -26s-19.333 -8.16699 -28 -9.5s-20 -2 -34 -2h-211v-23
c0 -33.333 12 -59.833 36 -79.5s55.333 -29.5 94 -29.5c27.333 0 53.166 6.33301 77.499 19s39.166 19 44.499 19c11.333 0 21 -5.33301 29 -16s12 -21 12 -31c0 -16.667 -16 -33.5 -48 -50.5s-71.333 -25.5 -118 -25.5c-68 0 -123.667 18.333 -167 55s-65 84.667 -65 144z
M106.002 655c0 10.667 3.16699 19.5 9.5 26.5s14.5 10.5 24.5 10.5h209c9.33301 0 17.5 -3.66699 24.5 -11s10.5 -16 10.5 -26s-3.5 -18.333 -10.5 -25s-15.167 -10 -24.5 -10h-209c-10 0 -18.167 3.16699 -24.5 9.5s-9.5 14.833 -9.5 25.5zM142.002 274l166 -0.000976562
c14.667 0 24.5 2 29.5 6s7.5 12 7.5 24c0 26.667 -9.66699 49.334 -29 68.001s-43.333 28 -72 28c-28 0 -52 -8.83301 -72 -26.5s-30 -40.167 -30 -67.5v-32z" />
    <glyph glyph-name="Ebreve" unicode="&#x114;" horiz-adv-x="523" 
d="M66 35v660.998c0 10.667 4.66699 19.167 14 25.5s20.333 9.5 33 9.5h356c11.333 0 20 -4.66699 26 -14s9 -20 9 -32c0 -13.333 -3.16699 -24.666 -9.5 -33.999s-14.833 -14 -25.5 -14h-297v-229h154c10.667 0 19.167 -4.16699 25.5 -12.5s9.5 -18.5 9.5 -30.5
c0 -10.667 -3 -20.167 -9 -28.5s-14.667 -12.5 -26 -12.5h-154v-230h297c10.667 0 19.167 -4.66699 25.5 -14s9.5 -20.666 9.5 -33.999c0 -12 -3 -22.667 -9 -32s-14.667 -14 -26 -14h-356c-12.667 0 -23.667 3.16699 -33 9.5s-14 14.833 -14 25.5zM157 964.998
l60.001 -0.000976562c0 -21.333 6.83301 -39.5 20.5 -54.5s29.167 -22.5 46.5 -22.5s32.666 7.5 45.999 22.5s20 33.167 20 54.5h61c0 -33.333 -13 -62.666 -39 -87.999s-55.333 -38 -88 -38c-33.333 0 -62.833 12.5 -88.5 37.5s-38.5 54.5 -38.5 88.5z" />
    <glyph glyph-name="ebreve" unicode="&#x115;" horiz-adv-x="474" 
d="M37 191l0.00195312 95c0 52.667 20.333 98.167 61 136.5s89.667 57.5 147 57.5c54.667 0 101.5 -17.5 140.5 -52.5s58.5 -79.167 58.5 -132.5c0 -20 -2.33301 -36.167 -7 -48.5s-12 -21 -22 -26s-19.333 -8.16699 -28 -9.5s-20 -2 -34 -2h-211v-23
c0 -33.333 12 -59.833 36 -79.5s55.333 -29.5 94 -29.5c27.333 0 53.166 6.33301 77.499 19s39.166 19 44.499 19c11.333 0 21 -5.33301 29 -16s12 -21 12 -31c0 -16.667 -16 -33.5 -48 -50.5s-71.333 -25.5 -118 -25.5c-68 0 -123.667 18.333 -167 55s-65 84.667 -65 144z
M117.002 718l60.001 -0.000976562c0 -21.333 6.83301 -39.5 20.5 -54.5s29.167 -22.5 46.5 -22.5s32.666 7.5 45.999 22.5s20 33.167 20 54.5h61c0 -33.333 -13 -62.666 -39 -87.999s-55.333 -38 -88 -38c-33.333 0 -62.833 12.5 -88.5 37.5s-38.5 54.5 -38.5 88.5z
M142.003 273.999l166 -0.000976562c14.667 0 24.5 2 29.5 6s7.5 12 7.5 24c0 26.667 -9.66699 49.334 -29 68.001s-43.333 28 -72 28c-28 0 -52 -8.83301 -72 -26.5s-30 -40.167 -30 -67.5v-32z" />
    <glyph glyph-name="Edotaccent" unicode="&#x116;" horiz-adv-x="523" 
d="M66 35v660.998c0 10.667 4.66699 19.167 14 25.5s20.333 9.5 33 9.5h356c11.333 0 20 -4.66699 26 -14s9 -20 9 -32c0 -13.333 -3.16699 -24.666 -9.5 -33.999s-14.833 -14 -25.5 -14h-297v-229h154c10.667 0 19.167 -4.16699 25.5 -12.5s9.5 -18.5 9.5 -30.5
c0 -10.667 -3 -20.167 -9 -28.5s-14.667 -12.5 -26 -12.5h-154v-230h297c10.667 0 19.167 -4.66699 25.5 -14s9.5 -20.666 9.5 -33.999c0 -12 -3 -22.667 -9 -32s-14.667 -14 -26 -14h-356c-12.667 0 -23.667 3.16699 -33 9.5s-14 14.833 -14 25.5zM248 876.998
c0 12.667 4.33301 23.5 13 32.5s19.334 13.5 32.001 13.5s23.334 -4.5 32.001 -13.5s13 -19.833 13 -32.5s-4.33301 -23.667 -13 -33s-19.334 -14 -32.001 -14s-23.334 4.66699 -32.001 14s-13 20.333 -13 33z" />
    <glyph glyph-name="edotaccent" unicode="&#x117;" horiz-adv-x="474" 
d="M37 191l0.00195312 95c0 52.667 20.333 98.167 61 136.5s89.667 57.5 147 57.5c54.667 0 101.5 -17.5 140.5 -52.5s58.5 -79.167 58.5 -132.5c0 -20 -2.33301 -36.167 -7 -48.5s-12 -21 -22 -26s-19.333 -8.16699 -28 -9.5s-20 -2 -34 -2h-211v-23
c0 -33.333 12 -59.833 36 -79.5s55.333 -29.5 94 -29.5c27.333 0 53.166 6.33301 77.499 19s39.166 19 44.499 19c11.333 0 21 -5.33301 29 -16s12 -21 12 -31c0 -16.667 -16 -33.5 -48 -50.5s-71.333 -25.5 -118 -25.5c-68 0 -123.667 18.333 -167 55s-65 84.667 -65 144z
M142.002 274l166 -0.000976562c14.667 0 24.5 2 29.5 6s7.5 12 7.5 24c0 26.667 -9.66699 49.334 -29 68.001s-43.333 28 -72 28c-28 0 -52 -8.83301 -72 -26.5s-30 -40.167 -30 -67.5v-32zM199.002 629.999c0 12.667 4.33301 23.5 13 32.5s19.334 13.5 32.001 13.5
s23.334 -4.5 32.001 -13.5s13 -19.833 13 -32.5s-4.33301 -23.667 -13 -33s-19.334 -14 -32.001 -14s-23.334 4.66699 -32.001 14s-13 20.333 -13 33z" />
    <glyph glyph-name="Eogonek" unicode="&#x118;" horiz-adv-x="523" 
d="M66 35v660.998c0 10.667 4.66699 19.167 14 25.5s20.333 9.5 33 9.5h356c11.333 0 20 -4.66699 26 -14s9 -20 9 -32c0 -13.333 -3.16699 -24.666 -9.5 -33.999s-14.833 -14 -25.5 -14h-297v-229h154c10.667 0 19.167 -4.16699 25.5 -12.5s9.5 -18.5 9.5 -30.5
c0 -10.667 -3 -20.167 -9 -28.5s-14.667 -12.5 -26 -12.5h-154v-230h297c10.667 0 19.167 -4.66699 25.5 -14s9.5 -20.666 9.5 -33.999c0 -20.667 -7 -35 -21 -43c-48 -35.333 -72 -74.666 -72 -117.999c0 -30.667 20 -46 60 -46c14.667 0 22 -8.33301 22 -25
c0 -14.667 -9.33301 -22 -28 -22c-33.333 0 -59.833 7.5 -79.5 22.5s-29.5 35.5 -29.5 61.5c0 45.333 19.667 86.666 59 123.999h-302c-12.667 0 -23.667 3.16699 -33 9.5s-14 14.833 -14 25.5z" />
    <glyph glyph-name="eogonek" unicode="&#x119;" horiz-adv-x="474" 
d="M37 191l0.00195312 95c0 52.667 20.333 98.167 61 136.5s89.667 57.5 147 57.5c54.667 0 101.5 -17.5 140.5 -52.5s58.5 -79.167 58.5 -132.5c0 -20 -2.33301 -36.167 -7 -48.5s-12 -21 -22 -26s-19.333 -8.16699 -28 -9.5s-20 -2 -34 -2h-211v-23
c0 -33.333 12 -59.833 36 -79.5s55.333 -29.5 94 -29.5c27.333 0 53.166 6.33301 77.499 19s39.166 19 44.499 19c11.333 0 21 -5.33301 29 -16s12 -21 12 -31c0 -8.66699 -5.16699 -18 -15.5 -28s-24.5 -19 -42.5 -27c-47.333 -36 -71 -75.333 -71 -118
c0 -30.667 20 -46 60 -46c14.667 0 22 -8.33301 22 -25c0 -14.667 -9.33301 -22 -28 -22c-33.333 0 -59.833 7.5 -79.5 22.5s-29.5 35.5 -29.5 61.5c0 38.667 14.667 74.667 44 108c-6 -1.33301 -14.667 -2 -26 -2c-68 0 -123.667 18.333 -167 55s-65 84.667 -65 144z
M142.002 274l166 -0.000976562c14.667 0 24.5 2 29.5 6s7.5 12 7.5 24c0 26.667 -9.66699 49.334 -29 68.001s-43.333 28 -72 28c-28 0 -52 -8.83301 -72 -26.5s-30 -40.167 -30 -67.5v-32z" />
    <glyph glyph-name="Ecaron" unicode="&#x11a;" horiz-adv-x="523" 
d="M66 35v660.998c0 10.667 4.66699 19.167 14 25.5s20.333 9.5 33 9.5h356c11.333 0 20 -4.66699 26 -14s9 -20 9 -32c0 -13.333 -3.16699 -24.666 -9.5 -33.999s-14.833 -14 -25.5 -14h-297v-229h154c10.667 0 19.167 -4.16699 25.5 -12.5s9.5 -18.5 9.5 -30.5
c0 -10.667 -3 -20.167 -9 -28.5s-14.667 -12.5 -26 -12.5h-154v-230h297c10.667 0 19.167 -4.66699 25.5 -14s9.5 -20.666 9.5 -33.999c0 -12 -3 -22.667 -9 -32s-14.667 -14 -26 -14h-356c-12.667 0 -23.667 3.16699 -33 9.5s-14 14.833 -14 25.5zM145 945.998
c0 8.66699 2.33105 16.334 6.99805 23.001s10.334 10 17.001 10c4.66699 0 9 -2 13 -6l101 -75l102 75c4 4 8.33301 6 13 6c6.66699 0 12.334 -3.33301 17.001 -10s7 -14.334 7 -23.001c0 -14 -6 -25 -18 -33l-102 -75c-6.66699 -4.66699 -13 -7 -19 -7
c-4.66699 0 -10.667 2.33301 -18 7l-103 75c-11.333 8.66699 -17 19.667 -17 33z" />
    <glyph glyph-name="ecaron" unicode="&#x11b;" horiz-adv-x="474" 
d="M37 191l0.00195312 95c0 52.667 20.333 98.167 61 136.5s89.667 57.5 147 57.5c54.667 0 101.5 -17.5 140.5 -52.5s58.5 -79.167 58.5 -132.5c0 -20 -2.33301 -36.167 -7 -48.5s-12 -21 -22 -26s-19.333 -8.16699 -28 -9.5s-20 -2 -34 -2h-211v-23
c0 -33.333 12 -59.833 36 -79.5s55.333 -29.5 94 -29.5c27.333 0 53.166 6.33301 77.499 19s39.166 19 44.499 19c11.333 0 21 -5.33301 29 -16s12 -21 12 -31c0 -16.667 -16 -33.5 -48 -50.5s-71.333 -25.5 -118 -25.5c-68 0 -123.667 18.333 -167 55s-65 84.667 -65 144z
M106.002 699c0 8.66699 2.33008 16.334 6.99707 23.001s10.334 10 17.001 10c4.66699 0 9 -2 13 -6l101 -75l102 75c4 4 8.33301 6 13 6c6.66699 0 12.334 -3.33301 17.001 -10s7 -14.334 7 -23.001c0 -14 -6 -25 -18 -33l-102 -75c-7.33301 -4.66699 -13.666 -7 -18.999 -7
s-11.333 2.33301 -18 7l-103 75c-11.333 8.66699 -17 19.667 -17 33zM141.999 274l166 -0.000976562c14.667 0 24.5 2 29.5 6s7.5 12 7.5 24c0 26.667 -9.66699 49.334 -29 68.001s-43.333 28 -72 28c-28 0 -52 -8.83301 -72 -26.5s-30 -40.167 -30 -67.5v-32z" />
    <glyph glyph-name="Gcircumflex" unicode="&#x11c;" horiz-adv-x="556" 
d="M59 217l0.00195312 290.999c0 76.667 20.333 133 61 169s94 54 160 54c67.333 0 122.166 -16.833 164.499 -50.5s63.5 -78.5 63.5 -134.5c0 -19.333 -4.16699 -32.666 -12.5 -39.999s-21.833 -11 -40.5 -11c-34.667 0 -52.334 11.667 -53.001 35
c-7.33301 71.333 -47 107 -119 107c-78.667 0 -118 -43 -118 -129v-291c0 -86 39.333 -129 118 -129c38 0 67.333 10.667 88 32s31 53.666 31 96.999v82h-101c-10.667 0 -19 4.16699 -25 12.5s-9 18.5 -9 30.5c0 10.667 3 20.334 9 29.001s14.333 13 25 13h172
c10.667 0 19.167 -3.5 25.5 -10.5s9.5 -15.5 9.5 -25.5v-131c0 -76.667 -20.5 -133 -61.5 -169s-95.5 -54 -163.5 -54s-122.333 18 -163 54s-61 92.333 -61 169zM135.002 863.999c0 14 5.99805 24.333 17.998 31l104 56c6.66699 3.33301 12.334 5 17.001 5
c6 0 11.667 -1.66699 17 -5l104 -55c12.667 -8 19 -19 19 -33c0 -8.66699 -2.5 -16.5 -7.5 -23.5s-11.167 -10.5 -18.5 -10.5c-1.33301 0 -3.33301 0.333008 -6 1c-1.33301 1.33301 -2.66602 2 -3.99902 2l-104 56l-104 -56c-2.66699 -2 -5.66699 -3 -9 -3
c-7.33301 0 -13.5 3.5 -18.5 10.5s-7.5 15.167 -7.5 24.5z" />
    <glyph glyph-name="gcircumflex" unicode="&#x11d;" horiz-adv-x="463" 
d="M19 -87c0 46.667 25.667 82.333 77 107c-31.333 13.333 -47 35.333 -47 66c0 29.333 16.667 54.666 50 75.999c-39.333 30.667 -59 72.667 -59 126v28c0 48 17.167 87.333 51.5 118s79.166 46 134.499 46c46.667 0 85.334 -11.333 116.001 -34c19.333 44.667 41 67 65 67
c12.667 0 23 -3.83301 31 -11.5s12 -15.834 12 -24.501c0 -10.667 -5.66699 -19 -17 -25c-21.333 -9.33301 -38 -22.666 -50 -39.999c21.333 -26.667 32 -58.667 32 -96v-28c0 -48 -17.667 -87.667 -53 -119s-80.666 -47 -135.999 -47c-26 0 -49 4 -69 12
c-12.667 -8.66699 -19 -18 -19 -28c0 -13.333 10.5 -23 31.5 -29s46.333 -10.667 76 -14s59.334 -8.16602 89.001 -14.499s55 -19.833 76 -40.5s31.5 -48 31.5 -82c0 -50 -19.833 -87.667 -59.5 -113s-89.834 -38 -150.501 -38s-111.334 12.5 -152.001 37.5
s-61 58.5 -61 100.5zM94 616.999c0 14 5.99805 24.333 17.998 31l104 56c6.66699 3.33301 12.334 5 17.001 5c6 0 11.667 -1.66699 17 -5l104 -55c12.667 -8 19 -19 19 -33c0 -8.66699 -2.5 -16.5 -7.5 -23.5s-11.167 -10.5 -18.5 -10.5c-1.33301 0 -3.33301 0.333008 -6 1
c-1.33301 1.33301 -2.66602 2 -3.99902 2l-104 56l-104 -56c-3.33301 -2 -6.33301 -3 -9 -3c-7.33301 0 -13.5 3.5 -18.5 10.5s-7.5 15.167 -7.5 24.5zM117.998 -76.001c0 -24 10.499 -43.166 31.499 -57.499s48.167 -21.5 81.5 -21.5c32.667 0 59 7 79 21s30 33 30 57
c0 15.333 -4.66699 28.166 -14 38.499s-23.166 18 -41.499 23s-34 8.33301 -47 10s-30.5 3.16699 -52.5 4.5c-44.667 -16.667 -67 -41.667 -67 -75zM141.997 289c0 -29.333 7.66699 -53.332 23 -71.999s36.333 -28 63 -28c26 0 46.667 9.16699 62 27.5s23 42.166 23 71.499
v28c0 28 -7.66699 51.167 -23 69.5s-36.333 27.5 -63 27.5c-26 0 -46.667 -9.16699 -62 -27.5s-23 -41.5 -23 -69.5v-27z" />
    <glyph glyph-name="Gbreve" unicode="&#x11e;" horiz-adv-x="556" 
d="M59 217l0.00195312 290.999c0 76.667 20.333 133 61 169s94 54 160 54c67.333 0 122.166 -16.833 164.499 -50.5s63.5 -78.5 63.5 -134.5c0 -19.333 -4.16699 -32.666 -12.5 -39.999s-21.833 -11 -40.5 -11c-34.667 0 -52.334 11.667 -53.001 35
c-7.33301 71.333 -47 107 -119 107c-78.667 0 -118 -43 -118 -129v-291c0 -86 39.333 -129 118 -129c38 0 67.333 10.667 88 32s31 53.666 31 96.999v82h-101c-10.667 0 -19 4.16699 -25 12.5s-9 18.5 -9 30.5c0 10.667 3 20.334 9 29.001s14.333 13 25 13h172
c10.667 0 19.167 -3.5 25.5 -10.5s9.5 -15.5 9.5 -25.5v-131c0 -76.667 -20.5 -133 -61.5 -169s-95.5 -54 -163.5 -54s-122.333 18 -163 54s-61 92.333 -61 169zM155.002 964.999l60.001 -0.000976562c0 -21.333 6.83301 -39.5 20.5 -54.5s29.167 -22.5 46.5 -22.5
s32.666 7.5 45.999 22.5s20 33.167 20 54.5h61c0 -33.333 -13 -62.666 -39 -87.999s-55.333 -38 -88 -38c-33.333 0 -62.833 12.5 -88.5 37.5s-38.5 54.5 -38.5 88.5z" />
    <glyph glyph-name="gbreve" unicode="&#x11f;" horiz-adv-x="463" 
d="M19 -87c0 46.667 25.667 82.333 77 107c-31.333 13.333 -47 35.333 -47 66c0 29.333 16.667 54.666 50 75.999c-39.333 30.667 -59 72.667 -59 126v28c0 48 17.167 87.333 51.5 118s79.166 46 134.499 46c46.667 0 85.334 -11.333 116.001 -34c19.333 44.667 41 67 65 67
c12.667 0 23 -3.83301 31 -11.5s12 -15.834 12 -24.501c0 -10.667 -5.66699 -19 -17 -25c-21.333 -9.33301 -38 -22.666 -50 -39.999c21.333 -26.667 32 -58.667 32 -96v-28c0 -48 -17.667 -87.667 -53 -119s-80.666 -47 -135.999 -47c-26 0 -49 4 -69 12
c-12.667 -8.66699 -19 -18 -19 -28c0 -13.333 10.5 -23 31.5 -29s46.333 -10.667 76 -14s59.334 -8.16602 89.001 -14.499s55 -19.833 76 -40.5s31.5 -48 31.5 -82c0 -50 -19.833 -87.667 -59.5 -113s-89.834 -38 -150.501 -38s-111.334 12.5 -152.001 37.5
s-61 58.5 -61 100.5zM106 717.999l60.001 -0.000976562c0 -21.333 6.83301 -39.5 20.5 -54.5s29.167 -22.5 46.5 -22.5s32.666 7.5 45.999 22.5s20 33.167 20 54.5h61c0 -33.333 -13 -62.666 -39 -87.999s-55.333 -38 -88 -38c-33.333 0 -62.833 12.5 -88.5 37.5
s-38.5 54.5 -38.5 88.5zM118.001 -76.002c0 -24 10.499 -43.166 31.499 -57.499s48.167 -21.5 81.5 -21.5c32.667 0 59 7 79 21s30 33 30 57c0 15.333 -4.66699 28.166 -14 38.499s-23.166 18 -41.499 23s-34 8.33301 -47 10s-30.5 3.16699 -52.5 4.5
c-44.667 -16.667 -67 -41.667 -67 -75zM142 288.999c0 -29.333 7.66699 -53.332 23 -71.999s36.333 -28 63 -28c26 0 46.667 9.16699 62 27.5s23 42.166 23 71.499v28c0 28 -7.66699 51.167 -23 69.5s-36.333 27.5 -63 27.5c-26 0 -46.667 -9.16699 -62 -27.5
s-23 -41.5 -23 -69.5v-27z" />
    <glyph glyph-name="Gdotaccent" unicode="&#x120;" horiz-adv-x="556" 
d="M59 217l0.00195312 290.999c0 76.667 20.333 133 61 169s94 54 160 54c67.333 0 122.166 -16.833 164.499 -50.5s63.5 -78.5 63.5 -134.5c0 -19.333 -4.16699 -32.666 -12.5 -39.999s-21.833 -11 -40.5 -11c-34.667 0 -52.334 11.667 -53.001 35
c-7.33301 71.333 -47 107 -119 107c-78.667 0 -118 -43 -118 -129v-291c0 -86 39.333 -129 118 -129c38 0 67.333 10.667 88 32s31 53.666 31 96.999v82h-101c-10.667 0 -19 4.16699 -25 12.5s-9 18.5 -9 30.5c0 10.667 3 20.334 9 29.001s14.333 13 25 13h172
c10.667 0 19.167 -3.5 25.5 -10.5s9.5 -15.5 9.5 -25.5v-131c0 -76.667 -20.5 -133 -61.5 -169s-95.5 -54 -163.5 -54s-122.333 18 -163 54s-61 92.333 -61 169zM235.002 876.999c0 12.667 4.33301 23.5 13 32.5s19.334 13.5 32.001 13.5s23.334 -4.5 32.001 -13.5
s13 -19.833 13 -32.5s-4.33301 -23.667 -13 -33s-19.334 -14 -32.001 -14s-23.334 4.66699 -32.001 14s-13 20.333 -13 33z" />
    <glyph glyph-name="gdotaccent" unicode="&#x121;" horiz-adv-x="463" 
d="M19 -87c0 46.667 25.667 82.333 77 107c-31.333 13.333 -47 35.333 -47 66c0 29.333 16.667 54.666 50 75.999c-39.333 30.667 -59 72.667 -59 126v28c0 48 17.167 87.333 51.5 118s79.166 46 134.499 46c46.667 0 85.334 -11.333 116.001 -34c19.333 44.667 41 67 65 67
c12.667 0 23 -3.83301 31 -11.5s12 -15.834 12 -24.501c0 -10.667 -5.66699 -19 -17 -25c-21.333 -9.33301 -38 -22.666 -50 -39.999c21.333 -26.667 32 -58.667 32 -96v-28c0 -48 -17.667 -87.667 -53 -119s-80.666 -47 -135.999 -47c-26 0 -49 4 -69 12
c-12.667 -8.66699 -19 -18 -19 -28c0 -13.333 10.5 -23 31.5 -29s46.333 -10.667 76 -14s59.334 -8.16602 89.001 -14.499s55 -19.833 76 -40.5s31.5 -48 31.5 -82c0 -50 -19.833 -87.667 -59.5 -113s-89.834 -38 -150.501 -38s-111.334 12.5 -152.001 37.5
s-61 58.5 -61 100.5zM118 -76.001c0 -24 10.499 -43.166 31.499 -57.499s48.167 -21.5 81.5 -21.5c32.667 0 59 7 79 21s30 33 30 57c0 15.333 -4.66699 28.166 -14 38.499s-23.166 18 -41.499 23s-34 8.33301 -47 10s-30.5 3.16699 -52.5 4.5
c-44.667 -16.667 -67 -41.667 -67 -75zM141.999 289c0 -29.333 7.66699 -53.332 23 -71.999s36.333 -28 63 -28c26 0 46.667 9.16699 62 27.5s23 42.166 23 71.499v28c0 28 -7.66699 51.167 -23 69.5s-36.333 27.5 -63 27.5c-26 0 -46.667 -9.16699 -62 -27.5
s-23 -41.5 -23 -69.5v-27zM187.999 630.001c0 12.667 4.33301 23.5 13 32.5s19.334 13.5 32.001 13.5s23.334 -4.5 32.001 -13.5s13 -19.833 13 -32.5s-4.33301 -23.667 -13 -33s-19.334 -14 -32.001 -14s-23.334 4.66699 -32.001 14s-13 20.333 -13 33z" />
    <glyph glyph-name="Gcommaaccent" unicode="&#x122;" horiz-adv-x="555" 
d="M58 217l0.00195312 290.999c0 76.667 20.333 133 61 169s94 54 160 54c67.333 0 122.166 -16.833 164.499 -50.5s63.5 -78.5 63.5 -134.5c0 -19.333 -4.16699 -32.666 -12.5 -39.999s-21.833 -11 -40.5 -11c-34.667 0 -52.334 11.667 -53.001 35
c-7.33301 71.333 -47 107 -119 107c-78.667 0 -118 -43 -118 -129v-291c0 -86 39.333 -129 118 -129c38 0 67.333 10.667 88 32s31 53.666 31 96.999v82h-101c-10.667 0 -19 4.16699 -25 12.5s-9 18.5 -9 30.5c0 10.667 3 20.334 9 29.001s14.333 13 25 13h172
c10.667 0 19.167 -3.5 25.5 -10.5s9.5 -15.5 9.5 -25.5v-131c0 -76.667 -20.5 -133 -61.5 -169s-95.5 -54 -163.5 -54s-122.333 18 -163 54s-61 92.333 -61 169zM188.002 -139.001c0 12 5 20.666 15 25.999l124 62c4 2 7.66699 3 11 3c9.33301 0 17.333 -4.33301 24 -13
s10 -18 10 -28c0 -12.667 -5.33301 -22 -16 -28l-121 -60c-5.33301 -2.66699 -9.33301 -4 -12 -4c-9.33301 0 -17.5 4.33301 -24.5 13s-10.5 18.334 -10.5 29.001z" />
    <glyph glyph-name="gcommaaccent" unicode="&#x123;" horiz-adv-x="463" 
d="M19 -87c0 46.667 25.667 82.333 77 107c-31.333 13.333 -47 35.333 -47 66c0 29.333 16.667 54.666 50 75.999c-39.333 30.667 -59 72.667 -59 126v28c0 48 17.167 87.333 51.5 118s79.166 46 134.499 46c46.667 0 85.334 -11.333 116.001 -34c19.333 44.667 41 67 65 67
c12.667 0 23 -3.83301 31 -11.5s12 -15.834 12 -24.501c0 -10.667 -5.66699 -19 -17 -25c-21.333 -9.33301 -38 -22.666 -50 -39.999c21.333 -26.667 32 -58.667 32 -96v-28c0 -48 -17.667 -87.667 -53 -119s-80.666 -47 -135.999 -47c-26 0 -49 4 -69 12
c-12.667 -8.66699 -19 -18 -19 -28c0 -13.333 10.5 -23 31.5 -29s46.333 -10.667 76 -14s59.334 -8.16602 89.001 -14.499s55 -19.833 76 -40.5s31.5 -48 31.5 -82c0 -50 -19.833 -87.667 -59.5 -113s-89.834 -38 -150.501 -38s-111.334 12.5 -152.001 37.5
s-61 58.5 -61 100.5zM118 -76.001c0 -24 10.499 -43.166 31.499 -57.499s48.167 -21.5 81.5 -21.5c32.667 0 59 7 79 21s30 33 30 57c0 15.333 -4.66699 28.166 -14 38.499s-23.166 18 -41.499 23s-34 8.33301 -47 10s-30.5 3.16699 -52.5 4.5
c-44.667 -16.667 -67 -41.667 -67 -75zM141.999 289c0 -29.333 7.66699 -53.332 23 -71.999s36.333 -28 63 -28c26 0 46.667 9.16699 62 27.5s23 42.166 23 71.499v28c0 28 -7.66699 51.167 -23 69.5s-36.333 27.5 -63 27.5c-26 0 -46.667 -9.16699 -62 -27.5
s-23 -41.5 -23 -69.5v-27zM149.999 618.001c0 12 5 20.667 15 26l124 63c5.33301 1.33301 9 2 11 2c9.33301 0 17.333 -4.33301 24 -13s10 -18 10 -28c0 -13.333 -5.33301 -22.333 -16 -27l-121 -61c-4 -2 -8 -3 -12 -3c-9.33301 0 -17.5 4.33301 -24.5 13
s-10.5 18 -10.5 28zM173.999 852.001c0 13.333 16.667 57.667 50 133c3.33301 10 11 15 23 15c8.66699 0 16.834 -2.66699 24.501 -8s11.5 -12.333 11.5 -21c0 -3.33301 -1 -7.33301 -3 -12l-22 -53c23.333 -10 35 -28 35 -54c0 -16.667 -5.83301 -30.834 -17.5 -42.501
s-25.834 -17.5 -42.501 -17.5c-16 0 -29.833 5.83301 -41.5 17.5s-17.5 25.834 -17.5 42.501z" />
    <glyph glyph-name="Hcircumflex" unicode="&#x124;" horiz-adv-x="593" 
d="M66 35v662c0 11.333 5.16699 19.833 15.5 25.5s22.833 8.5 37.5 8.5s27.167 -2.83301 37.5 -8.5s15.5 -14.167 15.5 -25.5v-276h249v276c0 11.333 5.16699 19.833 15.5 25.5s22.833 8.5 37.5 8.5s27.167 -2.83301 37.5 -8.5s15.5 -14.167 15.5 -25.5v-662
c0 -10.667 -5.16699 -19.167 -15.5 -25.5s-22.833 -9.5 -37.5 -9.5c-14 0 -26.333 3.16699 -37 9.5s-16 14.833 -16 25.5v302h-249v-302c0 -10.667 -5.16699 -19.167 -15.5 -25.5s-22.833 -9.5 -37.5 -9.5c-14 0 -26.333 3.16699 -37 9.5s-16 14.833 -16 25.5zM158 864
c0 14 5.99805 24.333 17.998 31l104 56c6.66699 3.33301 12.334 5 17.001 5c6 0 11.667 -1.66699 17 -5l104 -55c12.667 -8 19 -19 19 -33c0 -8.66699 -2.5 -16.5 -7.5 -23.5s-11.167 -10.5 -18.5 -10.5c-1.33301 0 -3.33301 0.333008 -6 1
c-1.33301 1.33301 -2.66602 2 -3.99902 2l-104 56l-104 -56c-3.33301 -2 -6.33301 -3 -9 -3c-7.33301 0 -13.5 3.5 -18.5 10.5s-7.5 15.167 -7.5 24.5z" />
    <glyph glyph-name="hcircumflex" unicode="&#x125;" horiz-adv-x="514" 
d="M-33 872c0 14 5.99805 24.333 17.998 31l104 56c6.66699 3.33301 12.334 5 17.001 5c6 0 11.667 -1.66699 17 -5l104 -55c12.667 -8 19 -19 19 -33c0 -8.66699 -2.5 -16.5 -7.5 -23.5s-11.167 -10.5 -18.5 -10.5c-1.33301 0 -3.33301 0.333008 -6 1
c-1.33301 1.33301 -2.66602 2 -3.99902 2l-104 56l-104 -56c-2.66699 -2 -5.66699 -3 -9 -3c-7.33301 0 -13.5 3.5 -18.5 10.5s-7.5 15.167 -7.5 24.5zM55.998 35v687c0 10 4.83301 18.167 14.5 24.5s22.167 9.5 37.5 9.5c14.667 0 27.167 -3.16699 37.5 -9.5
s15.5 -14.5 15.5 -24.5v-318c10.667 21.333 27.167 39.333 49.5 54s48.5 22 78.5 22c47.333 0 88.166 -19.333 122.499 -58s51.5 -85 51.5 -139v-248c0 -10.667 -5.33301 -19.167 -16 -25.5s-23 -9.5 -37 -9.5c-13.333 0 -25.333 3.16699 -36 9.5s-16 14.833 -16 25.5v248
c0 26.667 -10 50.667 -30 72s-43.667 32 -71 32c-25.333 0 -47.666 -9.5 -66.999 -28.5s-29 -44.167 -29 -75.5v-248c0 -8.66699 -5.33301 -16.667 -16 -24s-23 -11 -37 -11c-14.667 0 -27 3.66699 -37 11s-15 15.333 -15 24z" />
    <glyph glyph-name="Hbar" unicode="&#x126;" horiz-adv-x="598" 
d="M19 572c0 10 2.5 18.499 7.5 25.499s12.167 10.5 21.5 10.5h20v89c0 11.333 5.16699 19.833 15.5 25.5s22.833 8.5 37.5 8.5s27.167 -2.83301 37.5 -8.5s15.5 -14.167 15.5 -25.5v-89h249v89c0 11.333 5.16699 19.833 15.5 25.5s22.833 8.5 37.5 8.5
s27.167 -2.83301 37.5 -8.5s15.5 -14.167 15.5 -25.5v-89h20c8.66699 0 15.834 -3.66699 21.501 -11s8.5 -15.666 8.5 -24.999c0 -10 -2.83301 -18.333 -8.5 -25s-12.834 -10 -21.501 -10h-20v-502c0 -10.667 -5.16699 -19.167 -15.5 -25.5s-22.833 -9.5 -37.5 -9.5
c-14 0 -26.333 3.16699 -37 9.5s-16 14.833 -16 25.5v302h-249v-302c0 -10.667 -5.16699 -19.167 -15.5 -25.5s-22.833 -9.5 -37.5 -9.5c-14 0 -26.333 3.16699 -37 9.5s-16 14.833 -16 25.5v502h-20c-9.33301 0 -16.5 3.33301 -21.5 10s-7.5 15 -7.5 25zM174 420.999h249
v116h-249v-116z" />
    <glyph glyph-name="hbar" unicode="&#x127;" horiz-adv-x="514" 
d="M-6 600c0 10.667 3.16699 19.5 9.5 26.5s14.5 10.5 24.5 10.5h28v85c0 10 4.83301 18.167 14.5 24.5s22.167 9.5 37.5 9.5c14.667 0 27.167 -3.16699 37.5 -9.5s15.5 -14.5 15.5 -24.5v-85h76c9.33301 0 17.5 -3.66699 24.5 -11s10.5 -16 10.5 -26
s-3.5 -18.333 -10.5 -25s-15.167 -10 -24.5 -10h-76v-161c10.667 21.333 27.167 39.333 49.5 54s48.5 22 78.5 22c47.333 0 88.166 -19.333 122.499 -58s51.5 -85 51.5 -139v-248c0 -10.667 -5.33301 -19.167 -16 -25.5s-23 -9.5 -37 -9.5
c-13.333 0 -25.333 3.16699 -36 9.5s-16 14.833 -16 25.5v248c0 26.667 -10 50.667 -30 72s-43.667 32 -71 32c-25.333 0 -47.666 -9.5 -66.999 -28.5s-29 -44.167 -29 -75.5v-248c0 -8.66699 -5.33301 -16.667 -16 -24s-23 -11 -37 -11c-14.667 0 -27 3.66699 -37 11
s-15 15.333 -15 24v530h-28c-10 0 -18.167 3.16699 -24.5 9.5s-9.5 14.833 -9.5 25.5z" />
    <glyph glyph-name="Itilde" unicode="&#x128;" horiz-adv-x="238" 
d="M-46 883c0 22.667 9.66699 39.001 29 49.001s38.666 15 57.999 15c18.667 0 41.834 -5.16699 69.501 -15.5s50.5 -15.5 68.5 -15.5c16 0 31.667 4.16699 47 12.5s25.333 12.5 30 12.5c9.33301 0 16.333 -4 21 -12s7 -15.333 7 -22c0 -24 -9.33301 -40.667 -28 -50
s-37.667 -14 -57 -14c-21.333 0 -45.666 5.16699 -72.999 15.5s-49.333 15.5 -66 15.5c-16 0 -31.833 -4.5 -47.5 -13.5s-25.834 -13.5 -30.501 -13.5c-9.33301 0 -16.333 4.16699 -21 12.5s-7 16.166 -7 23.499zM66 35.001v662c0 11.333 5.16699 19.833 15.5 25.5
s22.833 8.5 37.5 8.5s27.167 -2.83301 37.5 -8.5s15.5 -14.167 15.5 -25.5v-662c0 -10.667 -5.16699 -19.167 -15.5 -25.5s-22.833 -9.5 -37.5 -9.5c-14 0 -26.333 3.16699 -37 9.5s-16 14.833 -16 25.5z" />
    <glyph glyph-name="itilde" unicode="&#x129;" 
d="M-57 636c0 22.667 9.66699 39.001 29 49.001s38.666 15 57.999 15c18.667 0 41.834 -5.16699 69.501 -15.5s50.5 -15.5 68.5 -15.5c16 0 31.667 4.16699 47 12.5s25.333 12.5 30 12.5c9.33301 0 16.333 -4 21 -12s7 -15.333 7 -22c0 -24 -9.33301 -40.667 -28 -50
s-37.667 -14 -57 -14c-21.333 0 -45.666 5.16699 -72.999 15.5s-49.333 15.5 -66 15.5c-16 0 -31.833 -4.5 -47.5 -13.5s-25.834 -13.5 -30.501 -13.5c-9.33301 0 -16.333 4.16699 -21 12.5s-7 16.166 -7 23.499zM55 35.001v405c0 10 4.83301 18.167 14.5 24.5
s22.167 9.5 37.5 9.5s28 -3.16699 38 -9.5s15 -14.5 15 -24.5v-405c0 -8.66699 -5.16699 -16.667 -15.5 -24s-22.833 -11 -37.5 -11s-27 3.66699 -37 11s-15 15.333 -15 24z" />
    <glyph glyph-name="Imacron" unicode="&#x12a;" horiz-adv-x="238" 
d="M-20 902c0 10.667 3.16699 19.5 9.5 26.5s14.5 10.5 24.5 10.5h209c9.33301 0 17.5 -3.66699 24.5 -11s10.5 -16 10.5 -26s-3.5 -18.333 -10.5 -25s-15.167 -10 -24.5 -10h-209c-10 0 -18.167 3.16699 -24.5 9.5s-9.5 14.833 -9.5 25.5zM66 35v662
c0 11.333 5.16699 19.833 15.5 25.5s22.833 8.5 37.5 8.5s27.167 -2.83301 37.5 -8.5s15.5 -14.167 15.5 -25.5v-662c0 -10.667 -5.16699 -19.167 -15.5 -25.5s-22.833 -9.5 -37.5 -9.5c-14 0 -26.333 3.16699 -37 9.5s-16 14.833 -16 25.5z" />
    <glyph glyph-name="imacron" unicode="&#x12b;" 
d="M-31 655c0 10.667 3.16699 19.5 9.5 26.5s14.5 10.5 24.5 10.5h209c9.33301 0 17.5 -3.66699 24.5 -11s10.5 -16 10.5 -26s-3.5 -18.333 -10.5 -25s-15.167 -10 -24.5 -10h-209c-10 0 -18.167 3.16699 -24.5 9.5s-9.5 14.833 -9.5 25.5zM55 35v405
c0 10 4.83301 18.167 14.5 24.5s22.167 9.5 37.5 9.5s28 -3.16699 38 -9.5s15 -14.5 15 -24.5v-405c0 -8.66699 -5.16699 -16.667 -15.5 -24s-22.833 -11 -37.5 -11s-27 3.66699 -37 11s-15 15.333 -15 24z" />
    <glyph glyph-name="Ibreve" unicode="&#x12c;" horiz-adv-x="238" 
d="M-7 965l60.001 -0.000976562c0 -21.333 6.83301 -39.5 20.5 -54.5s29.167 -22.5 46.5 -22.5s32.666 7.5 45.999 22.5s20 33.167 20 54.5h61c0 -33.333 -13 -62.666 -39 -87.999s-55.333 -38 -88 -38c-33.333 0 -62.833 12.5 -88.5 37.5s-38.5 54.5 -38.5 88.5z
M66.001 34.999v662c0 11.333 5.16699 19.833 15.5 25.5s22.833 8.5 37.5 8.5s27.167 -2.83301 37.5 -8.5s15.5 -14.167 15.5 -25.5v-662c0 -10.667 -5.16699 -19.167 -15.5 -25.5s-22.833 -9.5 -37.5 -9.5c-14 0 -26.333 3.16699 -37 9.5s-16 14.833 -16 25.5z" />
    <glyph glyph-name="ibreve" unicode="&#x12d;" 
d="M-19 718l60.001 -0.000976562c0 -21.333 6.83301 -39.5 20.5 -54.5s29.167 -22.5 46.5 -22.5s32.666 7.5 45.999 22.5s20 33.167 20 54.5h61c0 -33.333 -13 -62.666 -39 -87.999s-55.333 -38 -88 -38c-33.333 0 -62.833 12.5 -88.5 37.5s-38.5 54.5 -38.5 88.5z
M55.001 34.999v405c0 10 4.83301 18.167 14.5 24.5s22.167 9.5 37.5 9.5s28 -3.16699 38 -9.5s15 -14.5 15 -24.5v-405c0 -8.66699 -5.16699 -16.667 -15.5 -24s-22.833 -11 -37.5 -11s-27 3.66699 -37 11s-15 15.333 -15 24z" />
    <glyph glyph-name="Iogonek" unicode="&#x12e;" horiz-adv-x="238" 
d="M21 -122c0 46.667 21.667 89.667 65 129c-13.333 6.66699 -20 16 -20 28v662c0 11.333 5.16699 19.833 15.5 25.5s22.833 8.5 37.5 8.5s27.167 -2.83301 37.5 -8.5s15.5 -14.167 15.5 -25.5v-662c0 -14 -8 -24 -24 -30c-48 -36 -72 -75.333 -72 -118
c0 -30.667 20 -46 60 -46c14.667 0 22 -8.33301 22 -25c0 -14.667 -9.33301 -22 -28 -22c-33.333 0 -59.833 7.5 -79.5 22.5s-29.5 35.5 -29.5 61.5z" />
    <glyph glyph-name="iogonek" unicode="&#x12f;" 
d="M6 -123c0 48 22.333 91.668 67 131.001c-12 7.33301 -18 16.333 -18 27v405c0 10 4.83301 18.167 14.5 24.5s22.167 9.5 37.5 9.5s28 -3.16699 38 -9.5s15 -14.5 15 -24.5v-405c0 -12.667 -8.33301 -22.334 -25 -29.001c-49.333 -36.667 -74 -76.667 -74 -120
c0 -30.667 20 -46 60 -46c14.667 0 22 -8.33301 22 -25c0 -14.667 -9.33301 -22 -28 -22c-33.333 0 -59.833 7.5 -79.5 22.5s-29.5 35.5 -29.5 61.5zM46 648.001c0 15.333 6 28.333 18 39s26.333 16 43 16s31 -5.33301 43 -16s18 -23.667 18 -39
c0 -14.667 -6 -27.5 -18 -38.5s-26.333 -16.5 -43 -16.5s-31 5.5 -43 16.5s-18 23.833 -18 38.5z" />
    <glyph glyph-name="Idotaccent" unicode="&#x130;" horiz-adv-x="238" 
d="M66 35v662c0 11.333 5.16699 19.833 15.5 25.5s22.833 8.5 37.5 8.5s27.167 -2.83301 37.5 -8.5s15.5 -14.167 15.5 -25.5v-662c0 -10.667 -5.16699 -19.167 -15.5 -25.5s-22.833 -9.5 -37.5 -9.5c-14 0 -26.333 3.16699 -37 9.5s-16 14.833 -16 25.5zM74 877
c0 12.667 4.33301 23.5 13 32.5s19.334 13.5 32.001 13.5s23.334 -4.5 32.001 -13.5s13 -19.833 13 -32.5s-4.33301 -23.667 -13 -33s-19.334 -14 -32.001 -14s-23.334 4.66699 -32.001 14s-13 20.333 -13 33z" />
    <glyph glyph-name="dotlessi" unicode="&#x131;" 
d="M55 35v405c0 10 4.83301 18.167 14.5 24.5s22.167 9.5 37.5 9.5s28 -3.16699 38 -9.5s15 -14.5 15 -24.5v-405c0 -8.66699 -5.16699 -16.667 -15.5 -24s-22.833 -11 -37.5 -11s-27 3.66699 -37 11s-15 15.333 -15 24z" />
    <glyph glyph-name="IJ" unicode="&#x132;" horiz-adv-x="760" 
d="M66 35v662c0 11.333 5.16699 19.833 15.5 25.5s22.833 8.5 37.5 8.5s27.167 -2.83301 37.5 -8.5s15.5 -14.167 15.5 -25.5v-662c0 -10.667 -5.16699 -19.167 -15.5 -25.5s-22.833 -9.5 -37.5 -9.5c-14 0 -26.333 3.16699 -37 9.5s-16 14.833 -16 25.5zM247 185
c0 19.333 4.33301 32.668 13 40.001s22.334 11 41.001 11c34 0 51.333 -11.667 52 -35c1.33301 -32.667 11.666 -59.667 30.999 -81s48.333 -32 87 -32c80 0 120 43 120 129v420h-117c-10.667 0 -19.167 4.66699 -25.5 14s-9.5 20.666 -9.5 33.999c0 12.667 3 23.5 9 32.5
s14.667 13.5 26 13.5h176c12.667 0 23.667 -3.16699 33 -9.5s14 -14.833 14 -25.5v-479c0 -76.667 -20.333 -133 -61 -169s-94.334 -54 -161.001 -54c-67.333 0 -122.166 17.5 -164.499 52.5s-63.5 81.167 -63.5 138.5z" />
    <glyph glyph-name="ij" unicode="&#x133;" horiz-adv-x="414" 
d="M46 648c0 15.333 6 28.333 18 39s26.333 16 43 16s31 -5.33301 43 -16s18 -23.667 18 -39c0 -14.667 -6 -27.5 -18 -38.5s-26.333 -16.5 -43 -16.5s-31 5.5 -43 16.5s-18 23.833 -18 38.5zM55 35v405c0 10 4.83301 18.167 14.5 24.5s22.167 9.5 37.5 9.5
s28 -3.16699 38 -9.5s15 -14.5 15 -24.5v-405c0 -8.66699 -5.16699 -16.667 -15.5 -24s-22.833 -11 -37.5 -11s-27 3.66699 -37 11s-15 15.333 -15 24zM161 -181c0 13.333 4 24.334 12 33.001s17.667 13 29 13c21.333 0 35.333 8.16699 42 24.5s10 41.166 10 74.499v476
c0 10 4.83301 18.167 14.5 24.5s22.167 9.5 37.5 9.5s28 -3.16699 38 -9.5s15 -14.5 15 -24.5v-476c0 -58 -12 -104 -36 -138s-59.667 -51 -107 -51c-36.667 0 -55 14.667 -55 44zM245 648.001c0 15.333 6 28.333 18 39s26.333 16 43 16s31 -5.33301 43 -16
s18 -23.667 18 -39c0 -14.667 -6 -27.5 -18 -38.5s-26.333 -16.5 -43 -16.5s-31 5.5 -43 16.5s-18 23.833 -18 38.5z" />
    <glyph glyph-name="Jcircumflex" unicode="&#x134;" horiz-adv-x="530" 
d="M17 185c0 19.333 4.33301 32.668 13 40.001s22.334 11 41.001 11c34 0 51.333 -11.667 52 -35c1.33301 -32.667 11.666 -59.667 30.999 -81s48.333 -32 87 -32c80 0 120 43 120 129v420h-117c-10.667 0 -19.167 4.66699 -25.5 14s-9.5 20.666 -9.5 33.999
c0 12.667 3 23.5 9 32.5s14.667 13.5 26 13.5h176c12.667 0 23.667 -3.16699 33 -9.5s14 -14.833 14 -25.5v-479c0 -76.667 -20.333 -133 -61 -169s-94.334 -54 -161.001 -54c-67.333 0 -122.166 17.5 -164.499 52.5s-63.5 81.167 -63.5 138.5zM127 864.002
c0 14 5.99805 24.333 17.998 31l104 56c6.66699 3.33301 12.334 5 17.001 5c6 0 11.667 -1.66699 17 -5l104 -55c12.667 -8 19 -19 19 -33c0 -8.66699 -2.5 -16.5 -7.5 -23.5s-11.167 -10.5 -18.5 -10.5c-1.33301 0 -3.33301 0.333008 -6 1
c-1.33301 1.33301 -2.66602 2 -3.99902 2l-104 56l-104 -56c-2.66699 -2 -5.66699 -3 -9 -3c-7.33301 0 -13.5 3.5 -18.5 10.5s-7.5 15.167 -7.5 24.5z" />
    <glyph glyph-name="jcircumflex" unicode="&#x135;" 
d="M-38 -181c0 13.333 4 24.334 12 33.001s17.667 13 29 13c21.333 0 35.333 8.16699 42 24.5s10 41.166 10 74.499v476c0 10 4.83301 18.167 14.5 24.5s22.167 9.5 37.5 9.5s28 -3.16699 38 -9.5s15 -14.5 15 -24.5v-476c0 -58 -12 -104 -36 -138s-59.667 -51 -107 -51
c-36.667 0 -55 14.667 -55 44zM-31 617.001c0 14 5.99805 24.333 17.998 31l104 56c6.66699 3.33301 12.334 5 17.001 5c6 0 11.667 -1.66699 17 -5l104 -55c12.667 -8 19 -19 19 -33c0 -8.66699 -2.5 -16.5 -7.5 -23.5s-11.167 -10.5 -18.5 -10.5
c-1.33301 0 -3.33301 0.333008 -6 1c-1.33301 1.33301 -2.66602 2 -3.99902 2l-104 56l-104 -56c-2.66699 -2 -5.66699 -3 -9 -3c-7.33301 0 -13.5 3.5 -18.5 10.5s-7.5 15.167 -7.5 24.5z" />
    <glyph glyph-name="Kcommaaccent" unicode="&#x136;" horiz-adv-x="541" 
d="M66 35l0.000976562 662c0 11.333 5.16699 19.833 15.5 25.5s22.833 8.5 37.5 8.5s27.167 -2.83301 37.5 -8.5s15.5 -14.167 15.5 -25.5v-304l244 323c6.66699 10 16.667 15 30 15c14 0 27.667 -5.83301 41 -17.5s20 -24.167 20 -37.5c0 -8 -2.66699 -15 -8 -21l-192 -240
l228 -347c4 -6 6 -12.333 6 -19c0 -12.667 -6.5 -24.5 -19.5 -35.5s-27.167 -16.5 -42.5 -16.5c-16.667 0 -29.334 6.66699 -38.001 20l-204 309l-65 -82v-209c0 -10.667 -5.16699 -19.167 -15.5 -25.5s-22.833 -9.5 -37.5 -9.5c-14 0 -26.333 3.16699 -37 9.5
s-16 14.833 -16 25.5zM181.001 -139c0 12 5 20.666 15 25.999l124 62c4 2 7.66699 3 11 3c9.33301 0 17.333 -4.33301 24 -13s10 -18 10 -28c0 -12.667 -5.33301 -22 -16 -28l-121 -60c-5.33301 -2.66699 -9.33301 -4 -12 -4c-9.33301 0 -17.5 4.33301 -24.5 13
s-10.5 18.334 -10.5 29.001z" />
    <glyph glyph-name="kcommaaccent" unicode="&#x137;" horiz-adv-x="480" 
d="M56 35l0.00390625 687c0 10 4.66699 18.167 14 24.5s21.666 9.5 36.999 9.5s28.166 -3.16699 38.499 -9.5s15.5 -14.5 15.5 -24.5v-445l209 192c6 6 13.333 9 22 9c11.333 0 22.666 -5.33301 33.999 -16s17 -22 17 -34c0 -8.66699 -3 -16 -9 -22l-129 -115l157 -226
c4 -6 6 -12 6 -18c0 -12 -6.66699 -23.833 -20 -35.5s-26.333 -17.5 -39 -17.5c-11.333 0 -20.666 5 -27.999 15l-147 217l-73 -66v-125c0 -8.66699 -5.33301 -16.667 -16 -24s-23.334 -11 -38.001 -11s-26.834 3.66699 -36.501 11s-14.5 15.333 -14.5 24zM147.004 -139
c0 12 5 20.666 15 25.999l124 62c4 2 7.66699 3 11 3c9.33301 0 17.333 -4.33301 24 -13s10 -18 10 -28c0 -12.667 -5.33301 -22 -16 -28l-121 -60c-5.33301 -2.66699 -9.33301 -4 -12 -4c-9.33301 0 -17.5 4.33301 -24.5 13s-10.5 18.334 -10.5 29.001z" />
    <glyph glyph-name="kgreenlandic" unicode="&#x138;" horiz-adv-x="479" 
d="M55 35l0.00292969 405c0 10 4.83301 18.167 14.5 24.5s21.834 9.5 36.501 9.5c15.333 0 28.166 -3.16699 38.499 -9.5s15.5 -14.5 15.5 -24.5v-163l209 192c6 6 13.333 9 22 9c11.333 0 22.666 -5.33301 33.999 -16s17 -22 17 -34c0 -8.66699 -3 -16 -9 -22l-129 -115
l157 -226c4 -6 6 -12 6 -18c0 -12 -6.66699 -23.833 -20 -35.5s-26.333 -17.5 -39 -17.5c-12 0 -21.333 5 -28 15l-147 217l-73 -66v-125c0 -8.66699 -5.33301 -16.667 -16 -24s-23.334 -11 -38.001 -11s-26.834 3.66699 -36.501 11s-14.5 15.333 -14.5 24z" />
    <glyph glyph-name="Lacute" unicode="&#x139;" horiz-adv-x="477" 
d="M66 35v662c0 11.333 5.16699 19.833 15.5 25.5s22.833 8.5 37.5 8.5s27.167 -2.83301 37.5 -8.5s15.5 -14.167 15.5 -25.5v-603h260c10 0 17.833 -4.66699 23.5 -14s8.5 -20.333 8.5 -33s-2.83301 -23.667 -8.5 -33s-13.5 -14 -23.5 -14h-319
c-12.667 0 -23.667 3.16699 -33 9.5s-14 14.833 -14 25.5zM166 865c0 12 5 20.667 15 26l124 63c5.33301 1.33301 9 2 11 2c9.33301 0 17.333 -4.33301 24 -13s10 -18 10 -28c0 -13.333 -5.33301 -22.333 -16 -27l-121 -61c-4 -2 -8 -3 -12 -3
c-9.33301 0 -17.5 4.33301 -24.5 13s-10.5 18 -10.5 28z" />
    <glyph glyph-name="lacute" unicode="&#x13a;" horiz-adv-x="233" 
d="M41 840c0 12 5 20.667 15 26l124 63c5.33301 1.33301 9 2 11 2c9.33301 0 17.333 -4.33301 24 -13s10 -18 10 -28c0 -13.333 -5.33301 -22.333 -16 -27l-121 -61c-4 -2 -8 -3 -12 -3c-9.33301 0 -17.5 4.33301 -24.5 13s-10.5 18 -10.5 28zM64 35v687
c0 10 4.83301 18.167 14.5 24.5s22.167 9.5 37.5 9.5c14.667 0 27.167 -3.16699 37.5 -9.5s15.5 -14.5 15.5 -24.5v-687c0 -8.66699 -5.33301 -16.667 -16 -24s-23 -11 -37 -11c-14.667 0 -27 3.66699 -37 11s-15 15.333 -15 24z" />
    <glyph glyph-name="Lcommaaccent" unicode="&#x13b;" horiz-adv-x="477" 
d="M66 35v662c0 11.333 5.16699 19.833 15.5 25.5s22.833 8.5 37.5 8.5s27.167 -2.83301 37.5 -8.5s15.5 -14.167 15.5 -25.5v-603h260c10 0 17.833 -4.66699 23.5 -14s8.5 -20.333 8.5 -33s-2.83301 -23.667 -8.5 -33s-13.5 -14 -23.5 -14h-319
c-12.667 0 -23.667 3.16699 -33 9.5s-14 14.833 -14 25.5zM165 -139c0 12 5 20.666 15 25.999l124 62c4 2 7.66699 3 11 3c9.33301 0 17.333 -4.33301 24 -13s10 -18 10 -28c0 -12.667 -5.33301 -22 -16 -28l-121 -60c-5.33301 -2.66699 -9.33301 -4 -12 -4
c-9.33301 0 -17.5 4.33301 -24.5 13s-10.5 18.334 -10.5 29.001z" />
    <glyph glyph-name="lcommaaccent" unicode="&#x13c;" horiz-adv-x="233" 
d="M25 -139c0 12 5 20.666 15 25.999l124 62c4 2 7.66699 3 11 3c9.33301 0 17.333 -4.33301 24 -13s10 -18 10 -28c0 -12.667 -5.33301 -22 -16 -28l-121 -60c-5.33301 -2.66699 -9.33301 -4 -12 -4c-9.33301 0 -17.5 4.33301 -24.5 13s-10.5 18.334 -10.5 29.001z
M64 34.999v687c0 10 4.83301 18.167 14.5 24.5s22.167 9.5 37.5 9.5c14.667 0 27.167 -3.16699 37.5 -9.5s15.5 -14.5 15.5 -24.5v-687c0 -8.66699 -5.33301 -16.667 -16 -24s-23 -11 -37 -11c-14.667 0 -27 3.66699 -37 11s-15 15.333 -15 24z" />
    <glyph glyph-name="Lcaron" unicode="&#x13d;" horiz-adv-x="477" 
d="M66 35v662c0 11.333 5.16699 19.833 15.5 25.5s22.833 8.5 37.5 8.5s27.167 -2.83301 37.5 -8.5s15.5 -14.167 15.5 -25.5v-603h260c10 0 17.833 -4.66699 23.5 -14s8.5 -20.333 8.5 -33s-2.83301 -23.667 -8.5 -33s-13.5 -14 -23.5 -14h-319
c-12.667 0 -23.667 3.16699 -33 9.5s-14 14.833 -14 25.5zM303 681c0 16.667 5.66797 30.833 17.001 42.5s25.333 17.5 42 17.5s30.834 -5.83301 42.501 -17.5s17.5 -25.5 17.5 -41.5c0 -14 -16.667 -58.667 -50 -134c-4.66699 -10 -12.334 -15 -23.001 -15
c-8.66699 0 -16.834 2.66699 -24.501 8s-11.5 12.333 -11.5 21c0 5.33301 0.666992 9.33301 2 12l23 53c-23.333 11.333 -35 29.333 -35 54z" />
    <glyph glyph-name="lcaron" unicode="&#x13e;" horiz-adv-x="233" 
d="M64 35v687c0 10 4.83301 18.167 14.5 24.5s22.167 9.5 37.5 9.5c14.667 0 27.167 -3.16699 37.5 -9.5s15.5 -14.5 15.5 -24.5v-687c0 -8.66699 -5.33301 -16.667 -16 -24s-23 -11 -37 -11c-14.667 0 -27 3.66699 -37 11s-15 15.333 -15 24zM226 681
c0 16.667 5.66797 30.833 17.001 42.5s25.333 17.5 42 17.5s30.834 -5.83301 42.501 -17.5s17.5 -25.5 17.5 -41.5c0 -14 -16.667 -58.667 -50 -134c-4.66699 -10 -12.334 -15 -23.001 -15c-8.66699 0 -16.834 2.66699 -24.501 8s-11.5 12.333 -11.5 21
c0 5.33301 0.666992 9.33301 2 12l23 53c-23.333 11.333 -35 29.333 -35 54z" />
    <glyph glyph-name="Ldot" unicode="&#x13f;" horiz-adv-x="477" 
d="M66 35v662c0 11.333 5.16699 19.833 15.5 25.5s22.833 8.5 37.5 8.5s27.167 -2.83301 37.5 -8.5s15.5 -14.167 15.5 -25.5v-603h260c10 0 17.833 -4.66699 23.5 -14s8.5 -20.333 8.5 -33s-2.83301 -23.667 -8.5 -33s-13.5 -14 -23.5 -14h-319
c-12.667 0 -23.667 3.16699 -33 9.5s-14 14.833 -14 25.5zM294 421c0 15.333 6 28.5 18 39.5s27 16.5 45 16.5c16.667 0 31.167 -5.5 43.5 -16.5s18.5 -24.167 18.5 -39.5s-6.16699 -28.666 -18.5 -39.999s-26.833 -17 -43.5 -17c-18 0 -33 5.66699 -45 17
s-18 24.666 -18 39.999z" />
    <glyph glyph-name="ldot" unicode="&#x140;" horiz-adv-x="350" 
d="M64 35v687c0 10 4.83301 18.167 14.5 24.5s22.167 9.5 37.5 9.5c14.667 0 27.167 -3.16699 37.5 -9.5s15.5 -14.5 15.5 -24.5v-687c0 -8.66699 -5.33301 -16.667 -16 -24s-23 -11 -37 -11c-14.667 0 -27 3.66699 -37 11s-15 15.333 -15 24zM221 300
c0 15.333 6 28.5 18 39.5s27 16.5 45 16.5c16.667 0 31.167 -5.5 43.5 -16.5s18.5 -24.167 18.5 -39.5s-6.16699 -28.666 -18.5 -39.999s-26.833 -17 -43.5 -17c-18 0 -33 5.66699 -45 17s-18 24.666 -18 39.999z" />
    <glyph glyph-name="Lslash" unicode="&#x141;" horiz-adv-x="483" 
d="M-3 304c0 12.667 4.66602 21.333 13.999 26l61 31v336c0 11.333 5.16699 19.833 15.5 25.5s22.833 8.5 37.5 8.5s27.167 -2.83301 37.5 -8.5s15.5 -14.167 15.5 -25.5v-282l74 38c2.66699 1.33301 6.33398 2 11.001 2c10 0 19 -5.16699 27 -15.5s12 -20.833 12 -31.5
c0 -12 -5 -20.667 -15 -26l-109 -56v-232h260c10 0 17.833 -4.66699 23.5 -14s8.5 -20.333 8.5 -33s-2.83301 -23.667 -8.5 -33s-13.5 -14 -23.5 -14h-319c-12.667 0 -23.667 3.16699 -33 9.5s-14 14.833 -14 25.5v237l-26 -13c-4 -2 -8 -3 -12 -3
c-9.33301 0 -17.833 5 -25.5 15s-11.5 21 -11.5 33z" />
    <glyph glyph-name="lslash" unicode="&#x142;" horiz-adv-x="315" 
d="M13 304c0 12.667 4.66602 21.333 13.999 26l75 38v354c0 10 4.83301 18.167 14.5 24.5s22.167 9.5 37.5 9.5c14.667 0 27.167 -3.16699 37.5 -9.5s15.5 -14.5 15.5 -24.5v-300l46 24c2.66699 1.33301 6.33398 2 11.001 2c10 0 19 -5.16699 27 -15.5s12 -20.833 12 -31.5
c0 -12 -5 -20.667 -15 -26l-81 -42v-298c0 -8.66699 -5.33301 -16.667 -16 -24s-23 -11 -37 -11c-14.667 0 -27 3.66699 -37 11s-15 15.333 -15 24v244l-40 -20c-4 -2 -8 -3 -12 -3c-9.33301 0 -17.833 5 -25.5 15s-11.5 21 -11.5 33z" />
    <glyph glyph-name="Nacute" unicode="&#x143;" horiz-adv-x="593" 
d="M66 35v660.999c0 23.333 17.667 35 53 35c18.667 0 33.667 -4.16699 45 -12.5s23 -24.166 35 -47.499l222 -433v459c0 11.333 5.16699 19.833 15.5 25.5s22.833 8.5 37.5 8.5s27.167 -2.83301 37.5 -8.5s15.5 -14.167 15.5 -25.5v-662
c0 -10.667 -5.16699 -19.167 -15.5 -25.5s-22.833 -9.5 -37.5 -9.5c-28 0 -49 13 -63 39l-239 455v-459c0 -10.667 -5.16699 -19.167 -15.5 -25.5s-22.833 -9.5 -37.5 -9.5c-14 0 -26.333 3.16699 -37 9.5s-16 14.833 -16 25.5zM196 864.999c0 12 5 20.667 15 26l124 63
c5.33301 1.33301 9 2 11 2c9.33301 0 17.333 -4.33301 24 -13s10 -18 10 -28c0 -13.333 -5.33301 -22.333 -16 -27l-121 -61c-4 -2 -8 -3 -12 -3c-9.33301 0 -17.5 4.33301 -24.5 13s-10.5 18 -10.5 28z" />
    <glyph glyph-name="nacute" unicode="&#x144;" horiz-adv-x="513" 
d="M55 35l-0.000976562 405c0 10 4.83301 18.167 14.5 24.5s22.167 9.5 37.5 9.5c13.333 0 24.5 -3.16699 33.5 -9.5s13.5 -14.5 13.5 -24.5v-36c10.667 21.333 27.834 39.333 51.501 54s51.167 22 82.5 22c47.333 0 88.166 -19.333 122.499 -58s51.5 -85 51.5 -139v-248
c0 -10.667 -5.16699 -19.167 -15.5 -25.5s-22.833 -9.5 -37.5 -9.5c-13.333 0 -25.333 3.16699 -36 9.5s-16 14.833 -16 25.5v248c0 26.667 -10 50.667 -30 72s-43.667 32 -71 32c-25.333 0 -47.666 -9.5 -66.999 -28.5s-29 -44.167 -29 -75.5v-248
c0 -8.66699 -5.33301 -16.667 -16 -24s-23 -11 -37 -11c-14.667 0 -27 3.66699 -37 11s-15 15.333 -15 24zM167.999 618c0 12 5 20.667 15 26l124 63c5.33301 1.33301 9 2 11 2c9.33301 0 17.333 -4.33301 24 -13s10 -18 10 -28c0 -13.333 -5.33301 -22.333 -16 -27
l-121 -61c-4 -2 -8 -3 -12 -3c-9.33301 0 -17.5 4.33301 -24.5 13s-10.5 18 -10.5 28z" />
    <glyph glyph-name="Ncommaaccent" unicode="&#x145;" horiz-adv-x="593" 
d="M66 35v660.999c0 23.333 17.667 35 53 35c18.667 0 33.667 -4.16699 45 -12.5s23 -24.166 35 -47.499l222 -433v459c0 11.333 5.16699 19.833 15.5 25.5s22.833 8.5 37.5 8.5s27.167 -2.83301 37.5 -8.5s15.5 -14.167 15.5 -25.5v-662
c0 -10.667 -5.16699 -19.167 -15.5 -25.5s-22.833 -9.5 -37.5 -9.5c-28 0 -49 13 -63 39l-239 455v-459c0 -10.667 -5.16699 -19.167 -15.5 -25.5s-22.833 -9.5 -37.5 -9.5c-14 0 -26.333 3.16699 -37 9.5s-16 14.833 -16 25.5zM203 -139.001c0 12 5 20.666 15 25.999
l124 62c4 2 7.66699 3 11 3c9.33301 0 17.333 -4.33301 24 -13s10 -18 10 -28c0 -12.667 -5.33301 -22 -16 -28l-121 -60c-5.33301 -2.66699 -9.33301 -4 -12 -4c-9.33301 0 -17.5 4.33301 -24.5 13s-10.5 18.334 -10.5 29.001z" />
    <glyph glyph-name="ncommaaccent" unicode="&#x146;" horiz-adv-x="513" 
d="M55 35l-0.000976562 405c0 10 4.83301 18.167 14.5 24.5s22.167 9.5 37.5 9.5c13.333 0 24.5 -3.16699 33.5 -9.5s13.5 -14.5 13.5 -24.5v-36c10.667 21.333 27.834 39.333 51.501 54s51.167 22 82.5 22c47.333 0 88.166 -19.333 122.499 -58s51.5 -85 51.5 -139v-248
c0 -10.667 -5.16699 -19.167 -15.5 -25.5s-22.833 -9.5 -37.5 -9.5c-13.333 0 -25.333 3.16699 -36 9.5s-16 14.833 -16 25.5v248c0 26.667 -10 50.667 -30 72s-43.667 32 -71 32c-25.333 0 -47.666 -9.5 -66.999 -28.5s-29 -44.167 -29 -75.5v-248
c0 -8.66699 -5.33301 -16.667 -16 -24s-23 -11 -37 -11c-14.667 0 -27 3.66699 -37 11s-15 15.333 -15 24zM159.999 -139c0 12 5 20.666 15 25.999l124 62c4 2 7.66699 3 11 3c9.33301 0 17.333 -4.33301 24 -13s10 -18 10 -28c0 -12.667 -5.33301 -22 -16 -28l-121 -60
c-5.33301 -2.66699 -9.33301 -4 -12 -4c-9.33301 0 -17.5 4.33301 -24.5 13s-10.5 18.334 -10.5 29.001z" />
    <glyph glyph-name="Ncaron" unicode="&#x147;" horiz-adv-x="593" 
d="M66 35v660.999c0 23.333 17.667 35 53 35c18.667 0 33.667 -4.16699 45 -12.5s23 -24.166 35 -47.499l222 -433v459c0 11.333 5.16699 19.833 15.5 25.5s22.833 8.5 37.5 8.5s27.167 -2.83301 37.5 -8.5s15.5 -14.167 15.5 -25.5v-662
c0 -10.667 -5.16699 -19.167 -15.5 -25.5s-22.833 -9.5 -37.5 -9.5c-28 0 -49 13 -63 39l-239 455v-459c0 -10.667 -5.16699 -19.167 -15.5 -25.5s-22.833 -9.5 -37.5 -9.5c-14 0 -26.333 3.16699 -37 9.5s-16 14.833 -16 25.5zM158 945.999
c0 8.66699 2.33008 16.334 6.99707 23.001s10.334 10 17.001 10c4.66699 0 9 -2 13 -6l101 -75l102 75c4 4 8.33301 6 13 6c6.66699 0 12.334 -3.33301 17.001 -10s7 -14.334 7 -23.001c0 -14 -6 -25 -18 -33l-102 -75c-7.33301 -4.66699 -13.666 -7 -18.999 -7
s-11.333 2.33301 -18 7l-103 75c-11.333 8.66699 -17 19.667 -17 33z" />
    <glyph glyph-name="ncaron" unicode="&#x148;" horiz-adv-x="513" 
d="M55 35l-0.000976562 405c0 10 4.83301 18.167 14.5 24.5s22.167 9.5 37.5 9.5c13.333 0 24.5 -3.16699 33.5 -9.5s13.5 -14.5 13.5 -24.5v-36c10.667 21.333 27.834 39.333 51.501 54s51.167 22 82.5 22c47.333 0 88.166 -19.333 122.499 -58s51.5 -85 51.5 -139v-248
c0 -10.667 -5.16699 -19.167 -15.5 -25.5s-22.833 -9.5 -37.5 -9.5c-13.333 0 -25.333 3.16699 -36 9.5s-16 14.833 -16 25.5v248c0 26.667 -10 50.667 -30 72s-43.667 32 -71 32c-25.333 0 -47.666 -9.5 -66.999 -28.5s-29 -44.167 -29 -75.5v-248
c0 -8.66699 -5.33301 -16.667 -16 -24s-23 -11 -37 -11c-14.667 0 -27 3.66699 -37 11s-15 15.333 -15 24zM113.999 699c0 8.66699 2.33008 16.334 6.99707 23.001s10.334 10 17.001 10c4.66699 0 9 -2 13 -6l101 -75l102 75c4 4 8.33301 6 13 6
c6.66699 0 12.334 -3.33301 17.001 -10s7 -14.334 7 -23.001c0 -14 -6 -25 -18 -33l-102 -75c-7.33301 -4.66699 -13.666 -7 -18.999 -7s-11.333 2.33301 -18 7l-103 75c-11.333 8.66699 -17 19.667 -17 33z" />
    <glyph glyph-name="Eng" unicode="&#x14a;" horiz-adv-x="594" 
d="M66 35l-0.000976562 660.998c0 23.333 17.667 35 53 35c18.667 0 33.667 -4.16699 45 -12.5s23 -24.166 35 -47.499l222 -433v459c0 11.333 5.16699 19.833 15.5 25.5s22.833 8.5 37.5 8.5s27.167 -2.83301 37.5 -8.5s15.5 -14.167 15.5 -25.5v-733
c0 -58 -12.167 -104 -36.5 -138s-60.166 -51 -107.499 -51c-36 0 -54 14.667 -54 44c0 14 3.83301 25.167 11.5 33.5s17.5 12.5 29.5 12.5c20.667 0 34.5 8.33301 41.5 25s10.5 41.334 10.5 74.001v41c0 10.667 -3.66699 22 -11 34l-239 455v-459
c0 -10.667 -5.16699 -19.167 -15.5 -25.5s-22.833 -9.5 -37.5 -9.5c-14 0 -26.333 3.16699 -37 9.5s-16 14.833 -16 25.5z" />
    <glyph glyph-name="eng" unicode="&#x14b;" horiz-adv-x="514" 
d="M55 35l-0.000976562 405.001c0 10 4.83301 18.167 14.5 24.5s22.167 9.5 37.5 9.5c13.333 0 24.5 -3.16699 33.5 -9.5s13.5 -14.5 13.5 -24.5v-36c10.667 21.333 27.834 39.333 51.501 54s51.167 22 82.5 22c47.333 0 88.166 -19.333 122.499 -58s51.5 -85 51.5 -139
v-319c0 -58 -12.167 -104 -36.5 -138s-59.833 -51 -106.5 -51c-36.667 0 -55 14.667 -55 44c0 14 3.83301 25.167 11.5 33.5s17.5 12.5 29.5 12.5c21.333 0 35.333 8.16699 42 24.5s10 41.166 10 74.499v319c0 26.667 -10 50.667 -30 72s-43.667 32 -71 32
c-25.333 0 -47.666 -9.5 -66.999 -28.5s-29 -44.167 -29 -75.5v-248c0 -8.66699 -5.33301 -16.667 -16 -24s-23 -11 -37 -11c-14.667 0 -27 3.66699 -37 11s-15 15.333 -15 24z" />
    <glyph glyph-name="Omacron" unicode="&#x14c;" horiz-adv-x="566" 
d="M59 217v291c0 76.667 20.333 133 61 169s95 54 163 54s122.5 -18 163.5 -54s61.5 -92.333 61.5 -169v-291c0 -76.667 -20.5 -133 -61.5 -169s-95.5 -54 -163.5 -54s-122.333 18 -163 54s-61 92.333 -61 169zM144 902c0 10.667 3.16699 19.5 9.5 26.5s14.5 10.5 24.5 10.5
h209c9.33301 0 17.5 -3.66699 24.5 -11s10.5 -16 10.5 -26s-3.5 -18.333 -10.5 -25s-15.167 -10 -24.5 -10h-209c-10 0 -18.167 3.16699 -24.5 9.5s-9.5 14.833 -9.5 25.5zM165 217c0 -86 39.333 -128.998 118 -128.998c38 0 67.333 10.667 88 32s31 53.666 31 96.999v291
c0 43.333 -10.333 75.666 -31 96.999s-50 32 -88 32c-78.667 0 -118 -43 -118 -129v-291z" />
    <glyph glyph-name="omacron" unicode="&#x14d;" horiz-adv-x="487" 
d="M36 191v92c0 52.667 20.333 98.667 61 138s89.334 59 146.001 59c55.333 0 103.666 -19.5 144.999 -58.5s62 -85.167 62 -138.5v-92c0 -52 -20.833 -98.167 -62.5 -138.5s-89.834 -60.5 -144.501 -60.5c-55.333 0 -103.666 20 -144.999 60s-62 86.333 -62 139zM104 655
c0 10.667 3.16699 19.5 9.5 26.5s14.5 10.5 24.5 10.5h209c9.33301 0 17.5 -3.66699 24.5 -11s10.5 -16 10.5 -26s-3.5 -18.333 -10.5 -25s-15.167 -10 -24.5 -10h-209c-10 0 -18.167 3.16699 -24.5 9.5s-9.5 14.833 -9.5 25.5zM141 191c0 -27.333 10 -51.833 30 -73.5
s44 -32.5 72 -32.5c27.333 0 51.166 10.833 71.499 32.5s30.5 46.167 30.5 73.5v92c0 26.667 -10.167 50.667 -30.5 72s-44.166 32 -71.499 32c-28 0 -52 -10.667 -72 -32s-30 -45.333 -30 -72v-92z" />
    <glyph glyph-name="Obreve" unicode="&#x14e;" horiz-adv-x="566" 
d="M59 217v291c0 76.667 20.333 133 61 169s95 54 163 54s122.5 -18 163.5 -54s61.5 -92.333 61.5 -169v-291c0 -76.667 -20.5 -133 -61.5 -169s-95.5 -54 -163.5 -54s-122.333 18 -163 54s-61 92.333 -61 169zM156 965l60.001 -0.000976562
c0 -21.333 6.83301 -39.5 20.5 -54.5s29.167 -22.5 46.5 -22.5s32.666 7.5 45.999 22.5s20 33.167 20 54.5h61c0 -33.333 -13 -62.666 -39 -87.999s-55.333 -38 -88 -38c-33.333 0 -62.833 12.5 -88.5 37.5s-38.5 54.5 -38.5 88.5zM165.001 216.999
c0 -86 39.333 -128.998 118 -128.998c38 0 67.333 10.667 88 32s31 53.666 31 96.999v291c0 43.333 -10.333 75.666 -31 96.999s-50 32 -88 32c-78.667 0 -118 -43 -118 -129v-291z" />
    </font>
</defs>
</svg>
